QalamBadi-BoldItalic.ufo
<glyph name="exclam" format="2">
  <advance width="434"/>
  <unicode hex="0021"/>
  <outline>
    <contour>
      <point x="375.7589385190421" y="1303.0" type="line" smooth="yes"/>
      <point x="335.35022713560153" y="1301.3675567094"/>
      <point x="297.5059514897552" y="1266.5271358313391"/>
      <point x="292.1376964640522" y="1222.6371978136553" type="curve" smooth="yes"/>
      <point x="215.4780692385447" y="515.6700250707706" type="line" smooth="yes"/>
      <point x="213.46552487414513" y="470.5299051688361"/>
      <point x="254.4316159015944" y="431.6245401294484"/>
      <point x="298.8157190487277" y="430.0" type="curve" smooth="yes"/>
      <point x="343.3792845489662" y="431.3727381638813"/>
      <point x="385.5198944835788" y="462.78104959023926"/>
      <point x="397.2994392013827" y="503.89580702318756" type="curve" smooth="yes"/>
      <point x="570.9551483155228" y="1210.8654465783256" type="line" smooth="yes"/>
      <point x="581.0816554638261" y="1255.4834685958442"/>
      <point x="547.3521116543958" y="1300.96245198125"/>
      <point x="505.7589385190421" y="1303.0" type="curve" smooth="yes"/>
    </contour>
    <contour>
      <point x="95.01622140423717" y="212.90403804067563" type="curve" smooth="yes"/>
      <point x="67.86186637513357" y="58.90403804067563" type="line" smooth="yes"/>
      <point x="61.962819809087804" y="-4.924245604354182"/>
      <point x="122.26712837392904" y="-43.63484885889527"/>
      <point x="215.23673019291536" y="-44.0" type="curve" smooth="yes"/>
      <point x="307.9650955419458" y="-43.66960886505942"/>
      <point x="370.4328231294398" y="-12.634929452577666"/>
      <point x="384.82879357996376" y="47.09596195932437" type="curve" smooth="yes"/>
      <point x="411.98314860906737" y="201.09596195932437" type="line" smooth="yes"/>
      <point x="417.8821951751131" y="264.9242456043542"/>
      <point x="357.57788661027183" y="303.6348488588953"/>
      <point x="264.60828479128554" y="304.0" type="curve" smooth="yes"/>
      <point x="171.87991944225507" y="303.66960886505944"/>
      <point x="109.41219185476112" y="272.63492945257764"/>
    </contour>
  </outline>
</glyph>
<glyph name="numbersign" format="2">
  <advance width="1292"/>
  <unicode hex="0023"/>
  <outline>
    <contour>
      <point x="1104.1979507680508" y="1189.5975622234366" type="curve" smooth="yes"/>
      <point x="979.4942401977364" y="903.7594736322033" type="line" smooth="yes"/>
      <point x="979.8410685610655" y="899.8724949900538"/>
      <point x="975.3942091696539" y="896.7873056446574"/>
      <point x="973.6793324534472" y="899.0" type="curve" smooth="yes"/>
      <point x="764.5175282542284" y="899.0" type="line" smooth="yes"/>
      <point x="767.5187368789724" y="894.570103772101"/>
      <point x="777.6359956593097" y="878.5026692982818"/>
      <point x="780.6591627520039" y="876.5679465822531" type="curve" smooth="yes"/>
      <point x="890.5255784690052" y="1128.3969112442749" type="line" smooth="yes"/>
      <point x="910.4573819712754" y="1193.3600172564077"/>
      <point x="850.7293285933232" y="1241.3217776716515"/>
      <point x="801.1793196765342" y="1243.0" type="curve" smooth="yes"/>
      <point x="770.4808791959373" y="1242.3336300922642"/>
      <point x="728.3784718116656" y="1224.0053993615682"/>
      <point x="710.1979507680509" y="1189.5975622234366" type="curve" smooth="yes"/>
      <point x="585.4942401977365" y="903.7594736322033" type="line" smooth="yes"/>
      <point x="585.8410685610656" y="899.872494990054"/>
      <point x="581.3942091696539" y="896.7873056446574"/>
      <point x="579.6793324534472" y="899.0" type="curve" smooth="yes"/>
      <point x="377.5228383128222" y="899.0" type="line" smooth="yes"/>
      <point x="322.73413576165274" y="897.5604254020848"/>
      <point x="279.72000743105554" y="858.3339268238733"/>
      <point x="268.3438320993977" y="798.9040380406757" type="curve" smooth="yes"/>
      <point x="258.75018991402675" y="738.5018876889433"/>
      <point x="296.2944528843165" y="688.7734127740079"/>
      <point x="352.1317530908033" y="687.0" type="curve" smooth="yes"/>
      <point x="516.8559047021314" y="687.0" type="line" smooth="yes"/>
      <point x="513.854696014164" y="691.4298962637787"/>
      <point x="503.7374370695695" y="707.497331320259"/>
      <point x="500.7142699953045" y="709.432054027926" type="curve" smooth="yes"/>
      <point x="415.78369121472025" y="514.7594740819767" type="line" smooth="yes"/>
      <point x="416.130519366971" y="510.8724952643924"/>
      <point x="411.6836595638497" y="507.787305696974"/>
      <point x="409.96878270980744" y="510.0" type="curve" smooth="yes"/>
      <point x="238.93164281722932" y="510.0" type="line" smooth="yes"/>
      <point x="184.14294026605984" y="508.5604254020848"/>
      <point x="141.1288119354626" y="469.33392682387336"/>
      <point x="129.75263660380477" y="409.90403804067563" type="curve" smooth="yes"/>
      <point x="120.15899441843385" y="349.50188768894327"/>
      <point x="157.70325738872364" y="299.7734127740078"/>
      <point x="213.54055759521037" y="298.0" type="curve" smooth="yes"/>
      <point x="347.1453244409135" y="298.0" type="line" smooth="yes"/>
      <point x="344.1441159665179" y="302.42989614257544"/>
      <point x="334.0268575767922" y="318.4973292307976"/>
      <point x="331.0036904402724" y="320.43205196671147" type="curve" smooth="yes"/>
      <point x="216.7744419576574" y="58.60284668840719" type="line" smooth="yes"/>
      <point x="196.8427441296725" y="-6.360017256407566"/>
      <point x="256.5707975076248" y="-54.321777671651546"/>
      <point x="306.1208064244138" y="-56.0" type="curve" smooth="yes"/>
      <point x="336.8192469050107" y="-55.33363009226419"/>
      <point x="378.9216542892823" y="-37.005399361568166"/>
      <point x="397.1022003731959" y="-2.5975048365147657" type="curve" smooth="yes"/>
      <point x="526.1686138554502" y="293.24052717083856" type="line" smooth="yes"/>
      <point x="525.8217851152543" y="297.12750549976005"/>
      <point x="530.2686437715846" y="300.2126944487505"/>
      <point x="531.9835202416948" y="298.0" type="curve" smooth="yes"/>
      <point x="741.1453549584917" y="298.0" type="line" smooth="yes"/>
      <point x="738.1441461281431" y="302.42989634458087"/>
      <point x="728.026886813636" y="318.49733271323345"/>
      <point x="725.0037197808741" y="320.43205540206907" type="curve" smooth="yes"/>
      <point x="610.7744430046174" y="58.60284908669601" type="line" smooth="yes"/>
      <point x="590.8427441296725" y="-6.360017256407566"/>
      <point x="650.5707975076248" y="-54.32177767165155"/>
      <point x="700.1208064244138" y="-56.0" type="curve" smooth="yes"/>
      <point x="730.8192469050107" y="-55.33363009226419"/>
      <point x="772.9216542892823" y="-37.005399361568166"/>
      <point x="791.1021993655753" y="-2.5975071457675956" type="curve" smooth="yes"/>
      <point x="920.1686411489679" y="293.24052526438066" type="line" smooth="yes"/>
      <point x="919.8218133034712" y="297.12750433691934"/>
      <point x="924.2686737049183" y="300.2126942269959"/>
      <point x="925.9835507592729" y="298.0" type="curve" smooth="yes"/>
      <point x="1125.5405575952104" y="298.0" type="line" smooth="yes"/>
      <point x="1180.32926014638" y="299.4395745979152"/>
      <point x="1223.343388476977" y="338.6660731761267"/>
      <point x="1234.7195638086348" y="398.09596195932437" type="curve" smooth="yes"/>
      <point x="1244.3132059940058" y="458.4981123110566"/>
      <point x="1206.7689430237162" y="508.22658722599215"/>
      <point x="1150.9316428172294" y="510.0" type="curve" smooth="yes"/>
      <point x="988.8069479930106" y="510.0" type="line" smooth="yes"/>
      <point x="991.808156680978" y="505.5701037362213"/>
      <point x="1001.9254156255724" y="489.50266867974085"/>
      <point x="1004.9485826998376" y="487.56794597207397" type="curve" smooth="yes"/>
      <point x="1089.8791614804215" y="682.2405259180233" type="line" smooth="yes"/>
      <point x="1089.532333328171" y="686.1275047356077"/>
      <point x="1093.9791931312923" y="689.2126943030261"/>
      <point x="1095.6940699853344" y="687.0" type="curve" smooth="yes"/>
      <point x="1264.1317530908032" y="687.0" type="line" smooth="yes"/>
      <point x="1318.9204556419727" y="688.4395745979152"/>
      <point x="1361.93458397257" y="727.6660731761266"/>
      <point x="1373.3107593042278" y="787.0959619593244" type="curve" smooth="yes"/>
      <point x="1382.9044014895987" y="847.4981123110567"/>
      <point x="1345.360138519309" y="897.2265872259921"/>
      <point x="1289.5228383128222" y="899.0" type="curve" smooth="yes"/>
      <point x="1158.5175282542284" y="899.0" type="line" smooth="yes"/>
      <point x="1161.5187368789723" y="894.570103772101"/>
      <point x="1171.6359956593096" y="878.5026692982818"/>
      <point x="1174.6591627520038" y="876.5679465822531" type="curve" smooth="yes"/>
      <point x="1284.525578469005" y="1128.3969112442749" type="line" smooth="yes"/>
      <point x="1304.4573819712755" y="1193.3600172564077"/>
      <point x="1244.729328593323" y="1241.3217776716515"/>
      <point x="1195.179319676534" y="1243.0" type="curve" smooth="yes"/>
      <point x="1164.4808791959372" y="1242.3336300922642"/>
      <point x="1122.3784718116656" y="1224.0053993615682"/>
    </contour>
    <contour>
      <point x="695.8791657045988" y="682.2405284158725" type="line" smooth="yes"/>
      <point x="695.5323363801098" y="686.1275062591665"/>
      <point x="699.9791938967717" y="689.2126945935697"/>
      <point x="701.6940699853345" y="687.0" type="curve" smooth="yes"/>
      <point x="910.8558741845533" y="687.0" type="line" smooth="yes"/>
      <point x="907.8546654965859" y="691.4298962637787"/>
      <point x="897.7374065519914" y="707.4973313202591"/>
      <point x="894.7142394777262" y="709.432054027926" type="curve" smooth="yes"/>
      <point x="809.7836606971422" y="514.7594740819767" type="line" smooth="yes"/>
      <point x="810.1304888493929" y="510.87249526439246"/>
      <point x="805.6836290462716" y="507.787305696974"/>
      <point x="803.9687521922293" y="510.0" type="curve" smooth="yes"/>
      <point x="594.8069785105887" y="510.0" type="line" smooth="yes"/>
      <point x="597.8081867815824" y="505.5701039728563"/>
      <point x="607.9254446428616" y="489.5026727591656"/>
      <point x="610.9486118386717" y="487.56794999634997" type="curve" smooth="yes"/>
    </contour>
  </outline>
</glyph>
<glyph name="dollar" format="2">
  <advance width="1040"/>
  <unicode hex="0024"/>
  <outline>
    <contour>
      <point x="202.26154941313882" y="822.9040380406757" type="curve" smooth="yes"/>
      <point x="180.5055332993959" y="688.4942866641437"/>
      <point x="246.1969467775964" y="601.7989454553629"/>
      <point x="336.21306613046204" y="560.9525297586533" type="curve" smooth="yes"/>
      <point x="476.82328276598946" y="499.34695769035596"/>
      <point x="686.9239418208692" y="509.18140164482907"/>
      <point x="787.4043406688709" y="468.3594960440267" type="curve" smooth="yes"/>
      <point x="834.9501385685277" y="450.2790552750371"/>
      <point x="850.2930904053568" y="439.7175909857798"/>
      <point x="839.6172746892072" y="393.90403804067563" type="curve" smooth="yes"/>
      <point x="827.4808542632908" y="308.04774367163225"/>
      <point x="751.1511651981936" y="252.96463348410586"/>
      <point x="582.4778055326002" y="254.0" type="curve" smooth="yes"/>
      <point x="456.27396613339874" y="253.66001847134592"/>
      <point x="343.75965699760496" y="287.0135681615101"/>
      <point x="254.16142401490268" y="345.4743264308603" type="curve" smooth="yes"/>
      <point x="217.35804920363935" y="367.893685864086"/>
      <point x="156.60260189598114" y="358.2375717585471"/>
      <point x="115.07023841762312" y="300.04774367163225" type="curve" smooth="yes"/>
      <point x="78.37236707130668" y="242.85282525687796"/>
      <point x="88.72778014419112" y="179.63135197663433"/>
      <point x="132.21039119832423" y="150.17934312209084" type="curve" smooth="yes"/>
      <point x="223.15922557647733" y="93.13096640961743"/>
      <point x="334.4496095695756" y="58.120623478648035"/>
      <point x="408.27054792750323" y="50.258284963330865" type="curve" smooth="yes"/>
      <point x="418.3244168477945" y="52.85648196355703"/>
      <point x="421.85796128706875" y="47.81915616094996"/>
      <point x="416.712027022425" y="37.150650589503755" type="curve" smooth="yes"/>
      <point x="382.9900892609685" y="-154.09596195932437" type="line" smooth="yes"/>
      <point x="374.72280699243" y="-210.9366247345819"/>
      <point x="416.69119311525844" y="-257.69735437154026"/>
      <point x="475.0122991173333" y="-259.0" type="curve" smooth="yes"/>
      <point x="532.5379814953666" y="-257.91371659337324"/>
      <point x="578.7802855532168" y="-221.1907549813908"/>
      <point x="589.9570164657987" y="-165.90403804067563" type="curve" smooth="yes"/>
      <point x="622.876396873304" y="20.791045577488436" type="line" smooth="yes"/>
      <point x="622.5559870385515" y="33.87001505060212"/>
      <point x="635.0155169466352" y="44.85813832447582"/>
      <point x="647.5708109651978" y="42.72031437760255" type="curve" smooth="yes"/>
      <point x="859.2961774772641" y="53.204637093272865"/>
      <point x="1024.7788505873093" y="191.66341832999458"/>
      <point x="1060.5842018940373" y="382.09596195932437" type="curve" smooth="yes"/>
      <point x="1085.4301793729455" y="534.9947783461673"/>
      <point x="1008.7141719095249" y="626.9161678968339"/>
      <point x="908.0547316954916" y="669.469115424315" type="curve" smooth="yes"/>
      <point x="761.5775384779372" y="727.6981137881191"/>
      <point x="555.7145206392761" y="717.8274560966606"/>
      <point x="463.21720246975354" y="756.5413294984554" type="curve" smooth="yes"/>
      <point x="424.25759810946454" y="771.4867931493625"/>
      <point x="414.69419153645975" y="777.1646332189347"/>
      <point x="423.228476617969" y="811.0959619593243" type="curve" smooth="yes"/>
      <point x="435.14871448502635" y="898.894425794345"/>
      <point x="513.2436930296396" y="941.8692677665554"/>
      <point x="650.6046759674914" y="941.0" type="curve" smooth="yes"/>
      <point x="769.1494054371084" y="941.2931673914456"/>
      <point x="871.9766772183406" y="912.6509110251403"/>
      <point x="961.1918695653162" y="859.7001223695296" type="curve" smooth="yes"/>
      <point x="1000.2097345317103" y="838.7783216149037"/>
      <point x="1060.7618667520023" y="850.6104978516432"/>
      <point x="1099.1193422753397" y="909.9322714666401" type="curve" smooth="yes"/>
      <point x="1134.60465622893" y="967.918620967092"/>
      <point x="1122.5174744921137" y="1030.997618330645"/>
      <point x="1078.2579660527374" y="1059.4706225500227" type="curve" smooth="yes"/>
      <point x="992.7260545428851" y="1108.2115629982134"/>
      <point x="891.6822022060087" y="1137.581316321167"/>
      <point x="828.2533425382322" y="1144.5593451442908" type="curve" smooth="yes"/>
      <point x="820.0868856981361" y="1141.802078165882"/>
      <point x="817.8620474687702" y="1145.0566898284578"/>
      <point x="822.6588678189298" y="1153.8137409297199" type="curve" smooth="yes"/>
      <point x="855.6817763934554" y="1341.0959619593243" type="line" smooth="yes"/>
      <point x="863.949058661994" y="1397.936624734582"/>
      <point x="821.9806725391654" y="1444.6973543715403"/>
      <point x="763.6595665370905" y="1446.0" type="curve" smooth="yes"/>
      <point x="706.1338841590573" y="1444.9137165933732"/>
      <point x="659.8915801012071" y="1408.190754981391"/>
      <point x="648.7148491886252" y="1352.9040380406757" type="curve" smooth="yes"/>
      <point x="617.2090791935834" y="1174.2259374547382" type="line" smooth="yes"/>
      <point x="617.51712535687" y="1161.1275417321665"/>
      <point x="604.9688968354479" y="1150.0244656712073"/>
      <point x="592.351227079026" y="1152.0938558945738" type="curve" smooth="yes"/>
      <point x="424.73866649181116" y="1143.0697838128638"/>
      <point x="240.77996247118583" y="1024.071276608741"/>
    </contour>
  </outline>
</glyph>
<glyph name="ampersand" format="2">
  <advance width="1119"/>
  <unicode hex="0026"/>
  <outline>
    <contour>
      <point x="327.7373586493727" y="925.9040380406757" type="curve" smooth="yes"/>
      <point x="308.686968403316" y="814.7176278748262"/>
      <point x="330.29944049465604" y="723.826304117098"/>
      <point x="359.4632560834738" y="674.9508055844534" type="curve" smooth="yes"/>
      <point x="364.61654554538967" y="674.5233623613848"/>
      <point x="362.89628473384215" y="670.4051460678553"/>
      <point x="352.90472743437516" y="666.8136867285489" type="curve" smooth="yes"/>
      <point x="253.5402739938202" y="602.6391249442864"/>
      <point x="144.84309694014243" y="487.5797701847275"/>
      <point x="114.94117022429373" y="325.90403804067563" type="curve" smooth="yes"/>
      <point x="82.68440937844942" y="129.11723975311344"/>
      <point x="204.47934048645254" y="-52.68594914920381"/>
      <point x="447.1208064244138" y="-56.0" type="curve" smooth="yes"/>
      <point x="583.992049802519" y="-55.01230422169767"/>
      <point x="709.8889149090061" y="9.928764967115164"/>
      <point x="778.2971289342099" y="75.10958196305464" type="curve" smooth="yes"/>
      <point x="787.1794546677534" y="87.23067917402291"/>
      <point x="791.6221375835946" y="87.93066939485402"/>
      <point x="791.2209630419798" y="80.33911711571602" type="curve" smooth="yes"/>
      <point x="862.3788245742174" y="-16.230257235086995" type="line" smooth="yes"/>
      <point x="893.3839354240232" y="-53.21966799848797"/>
      <point x="947.3567154573035" y="-56.309167951459216"/>
      <point x="999.4479846798" y="-30.287947591949237" type="curve" smooth="yes"/>
      <point x="1058.977583004094" y="1.262559987880799"/>
      <point x="1082.1840956943713" y="62.81602804156113"/>
      <point x="1051.2470912838603" y="110.16094163371166" type="curve" smooth="yes"/>
      <point x="952.3439795277715" y="244.42249229338367" type="line" smooth="yes"/>
      <point x="944.8372010430742" y="249.3986436282664"/>
      <point x="946.2094802645809" y="267.107912235435"/>
      <point x="957.1188299963709" y="278.623430512726" type="curve" smooth="yes"/>
      <point x="1000.5654638231871" y="336.8121546352727"/>
      <point x="1066.0767529640266" y="453.66608660381644"/>
      <point x="1123.076678521278" y="576.7451206679842" type="curve" smooth="yes"/>
      <point x="1146.3449890491486" y="628.9148880344183"/>
      <point x="1127.225591188164" y="693.3609765294483"/>
      <point x="1056.8151385364076" y="706.6081472581374" type="curve" smooth="yes"/>
      <point x="999.0786738624647" y="715.0"/>
      <point x="948.8332948609979" y="695.1035067960665"/>
      <point x="922.760371033855" y="642.024084739028" type="curve" smooth="yes"/>
      <point x="882.73942796208" y="552.3749211666285"/>
      <point x="837.8131352381641" y="465.9645059967761"/>
      <point x="809.2708264903915" y="423.457888317857" type="curve" smooth="yes"/>
      <point x="807.7041352100458" y="416.0477560094931"/>
      <point x="818.9115369677941" y="416.50733574900477"/>
      <point x="823.7326960994013" y="419.01304936135557" type="curve" smooth="yes"/>
      <point x="602.6591036080213" y="719.1216634722176" type="line" smooth="yes"/>
      <point x="554.1588489322523" y="785.7930144722013"/>
      <point x="533.6387123798022" y="834.1067866524407"/>
      <point x="548.7042858542029" y="914.0959619593243" type="curve" smooth="yes"/>
      <point x="564.1870343496851" y="1011.8562654746003"/>
      <point x="637.1397882511528" y="1089.7851970303298"/>
      <point x="749.6625453741892" y="1087.0" type="curve" smooth="yes"/>
      <point x="828.0874280556094" y="1087.460201746521"/>
      <point x="890.017568152845" y="1065.032332096852"/>
      <point x="945.8016158351107" y="1022.7563828529792" type="curve" smooth="yes"/>
      <point x="980.9816074189253" y="998.7647513086907"/>
      <point x="1043.1638335813554" y="1003.7780619635365"/>
      <point x="1086.3196571080837" y="1061.2985960694023" type="curve" smooth="yes"/>
      <point x="1126.1247631740443" y="1119.2593420684054"/>
      <point x="1118.0834116238902" y="1179.932932143589"/>
      <point x="1077.9128702397484" y="1209.8562234653853" type="curve" smooth="yes"/>
      <point x="997.3821115199574" y="1266.2910179336347"/>
      <point x="893.1578928947373" y="1302.5686057447901"/>
      <point x="776.7589385190421" y="1303.0" type="curve" smooth="yes"/>
      <point x="547.0882045617038" y="1300.5507923986443"/>
      <point x="366.22821743975805" y="1132.8118510171264"/>
    </contour>
    <contour>
      <point x="664.2140814687492" y="252.70230329623018" type="line" smooth="yes"/>
      <point x="669.3746955831781" y="251.93622235364512"/>
      <point x="667.8469213548628" y="243.70279729847408"/>
      <point x="658.6189209494031" y="237.3795345953831" type="curve" smooth="yes"/>
      <point x="621.1815600295683" y="199.01515383318883"/>
      <point x="552.0773705271835" y="158.820110433514"/>
      <point x="473.2171995692666" y="160.0" type="curve" smooth="yes"/>
      <point x="366.05725959928986" y="157.48226260015946"/>
      <point x="314.86206422149576" y="212.61152872749994"/>
      <point x="335.90809742912387" y="314.09596195932437" type="curve" smooth="yes"/>
      <point x="350.5667212079861" y="403.61094368844704"/>
      <point x="401.44391566667065" y="460.8051370026466"/>
      <point x="458.8155975074388" y="497.7959611249613" type="curve" smooth="yes"/>
      <point x="470.4018136684127" y="508.10873716204173"/>
      <point x="481.6108513903648" y="507.3717124219772"/>
      <point x="482.6141665850937" y="499.154577322822" type="curve" smooth="yes"/>
    </contour>
  </outline>
</glyph>
<glyph name="quotesingle" format="2">
  <advance width="409"/>
  <unicode hex="0027"/>
  <outline>
    <contour>
      <point x="346.39526217495643" y="1303.0" type="line" smooth="yes"/>
      <point x="306.18512244280635" y="1301.430742308032"/>
      <point x="267.14227514566954" y="1266.5271358313391"/>
      <point x="262.6296231507346" y="1220.8562621734177" type="curve" smooth="yes"/>
      <point x="238.28201772573988" y="770.8477545535368" type="line" smooth="yes"/>
      <point x="238.25372629474995" y="723.4634361739592"/>
      <point x="281.0342197228701" y="682.7195839096158"/>
      <point x="330.7101148624668" y="681.0" type="curve" smooth="yes"/>
      <point x="380.3656280559365" y="682.3998302923017"/>
      <point x="426.15798596535865" y="715.5989884826365"/>
      <point x="440.81371458516935" y="759.283158656518" type="curve" smooth="yes"/>
      <point x="575.1630979675413" y="1209.2906797820751" type="line" smooth="yes"/>
      <point x="586.7179791197404" y="1255.4834685958442"/>
      <point x="551.7455520636404" y="1301.0495073198144"/>
      <point x="510.39526217495643" y="1303.0" type="curve" smooth="yes"/>
    </contour>
  </outline>
</glyph>
<glyph name="parenleft" format="2">
  <advance width="709"/>
  <unicode hex="0028"/>
  <outline>
    <contour>
      <point x="138.6775854238613" y="522.9040380406757" type="curve" smooth="yes"/>
      <point x="64.06060736931661" y="88.27259486164792"/>
      <point x="270.226838862424" y="-226.06643334362175"/>
      <point x="476.7107713769724" y="-365.2848890378821" type="curve" smooth="yes"/>
      <point x="523.8530084103795" y="-387.92395265717386"/>
      <point x="577.9557585625943" y="-358.3367569573068"/>
      <point x="605.4297717292687" y="-323.8496948527537" type="curve" smooth="yes"/>
      <point x="631.7964486955428" y="-289.12367019278946"/>
      <point x="649.6091183600824" y="-231.0254347165207"/>
      <point x="617.4990792652463" y="-192.7186014029129" type="curve" smooth="yes"/>
      <point x="446.95718616751253" y="-66.76986405806375"/>
      <point x="288.27391308851145" y="151.63271141595152"/>
      <point x="353.6445126286915" y="511.09596195932437" type="curve" smooth="yes"/>
      <point x="415.76360826909126" y="872.3522935015593"/>
      <point x="657.8660771968924" y="1101.2363894480004"/>
      <point x="875.0794411071912" y="1228.706844322733" type="curve" smooth="yes"/>
      <point x="912.4031462370752" y="1258.2944295017014"/>
      <point x="914.5914218494293" y="1317.2171034281075"/>
      <point x="899.7606670677492" y="1354.2635863187265" type="curve" smooth="yes"/>
      <point x="882.7505853514124" y="1391.6557508014046"/>
      <point x="831.774658304668" y="1425.920240835779"/>
      <point x="781.2943450214559" y="1404.9166807296458" type="curve" smooth="yes"/>
      <point x="528.7468618840832" y="1267.6804740861626"/>
      <point x="216.60213854614042" y="955.724678406835"/>
    </contour>
  </outline>
</glyph>
<glyph name="parenright" format="2">
  <advance width="709"/>
  <unicode hex="0029"/>
  <outline>
    <contour>
      <point x="307.507798554371" y="1361.8496948527538" type="curve" smooth="yes"/>
      <point x="281.1411215880969" y="1327.1236701927894"/>
      <point x="263.32845192355717" y="1269.0254347165207"/>
      <point x="295.4384910183934" y="1230.718601402913" type="curve" smooth="yes"/>
      <point x="465.83110295891015" y="1104.930439112268"/>
      <point x="623.9460770704696" y="882.4408355694684"/>
      <point x="558.5877497321144" y="522.9040380406757" type="curve" smooth="yes"/>
      <point x="496.4964769144519" y="161.7012618040256"/>
      <point x="255.1933822028084" y="-63.14133588951838"/>
      <point x="37.858129176448436" y="-190.70684432273308" type="curve" smooth="yes"/>
      <point x="0.5344240465644816" y="-220.29442950170144"/>
      <point x="-1.6538515657894735" y="-279.21710342810746"/>
      <point x="13.176903215890633" y="-316.2635863187265" type="curve" smooth="yes"/>
      <point x="30.186984932227336" y="-353.65575080140445"/>
      <point x="81.1629119789717" y="-387.92024083577905"/>
      <point x="131.6432252621837" y="-366.91668072964586" type="curve" smooth="yes"/>
      <point x="384.08739234050734" y="-229.7617596367562"/>
      <point x="695.6063950723722" y="78.22991552285667"/>
      <point x="773.5546769369446" y="511.09596195932437" type="curve" smooth="yes"/>
      <point x="848.1822755379857" y="945.664907774716"/>
      <point x="642.836894737966" y="1263.9290561847633"/>
      <point x="436.22679890666734" y="1403.284889037882" type="curve" smooth="yes"/>
      <point x="389.0845618732601" y="1425.923952657174"/>
      <point x="334.98181172104546" y="1396.3367569573068"/>
    </contour>
  </outline>
</glyph>
<glyph name="asterisk" format="2">
  <advance width="1200"/>
  <unicode hex="002A"/>
  <outline>
    <contour>
      <point x="1156.788269765513" y="613.6516799693437" type="line" smooth="yes"/>
      <point x="1227.3214116116599" y="630.4780682989458"/>
      <point x="1277.723599165443" y="692.9718321728881"/>
      <point x="1269.6228805015144" y="769.8455369005088" type="curve" smooth="yes"/>
      <point x="1255.1663845953922" y="846.8920043826263"/>
      <point x="1182.9051879077542" y="881.9574791098285"/>
      <point x="1113.186697320296" y="855.338721270713" type="curve" smooth="yes"/>
      <point x="791.5272100486752" y="699.8517509658615" type="line"/>
      <point x="907.3380091619049" y="1020.4848861764768" type="line" smooth="yes"/>
      <point x="924.9577765324688" y="1092.105252144563"/>
      <point x="878.7441326999017" y="1158.439739744967"/>
      <point x="798.8003015526431" y="1161.0" type="curve" smooth="yes"/>
      <point x="720.3934330022464" y="1159.0294138234526"/>
      <point x="661.0294047028369" y="1102.8067300841712"/>
      <point x="654.7585963580447" y="1032.0525511054193" type="curve" smooth="yes"/>
      <point x="648.7437689813252" y="702.240603883142" type="line"/>
      <point x="379.4590673815802" y="854.4699425962287" type="line" smooth="yes"/>
      <point x="316.3180169872223" y="881.9568229682899"/>
      <point x="240.8683268469882" y="852.6917060866858"/>
      <point x="203.51858729890319" y="780.1233412787938" type="curve" smooth="yes"/>
      <point x="167.92394772261343" y="705.0237823524934"/>
      <point x="201.67242847560945" y="632.3481273212424"/>
      <point x="270.0726191126114" y="613.747608748256" type="curve" smooth="yes"/>
      <point x="583.9846074125816" y="571.5768749303389" type="line"/>
      <point x="294.54969155354263" y="322.97036875247085" type="line" smooth="yes"/>
      <point x="240.35297517596726" y="270.879909558069"/>
      <point x="235.1912795284921" y="191.7501700142284"/>
      <point x="291.9313531436906" y="140.7387367375102" type="curve" smooth="yes"/>
      <point x="353.5440210390143" y="94.98032685794499"/>
      <point x="431.4536692272086" y="115.62099318436432"/>
      <point x="478.462177461626" y="173.5666412026819" type="curve" smooth="yes"/>
      <point x="690.3760779613452" y="480.1590576171875" type="line"/>
      <point x="785.7030498426202" y="181.41271851127638" type="line" smooth="yes"/>
      <point x="814.1064538656019" y="119.10573535899007"/>
      <point x="890.8992797110473" y="93.82086295715985"/>
      <point x="963.9078246723631" y="138.39714647661594" type="curve" smooth="yes"/>
      <point x="1032.3987509395317" y="184.08587550414487"/>
      <point x="1052.1074118687538" y="261.14596903225316"/>
      <point x="1014.0936511145146" y="318.0371178361936" type="curve" smooth="yes"/>
      <point x="815.2286371783181" y="560.9419854008435" type="line"/>
    </contour>
  </outline>
</glyph>
<glyph name="plus" format="2">
  <advance width="1132"/>
  <unicode hex="002B"/>
  <outline>
    <contour>
      <point x="300.3178453833361" y="688.0" type="line" smooth="yes"/>
      <point x="245.5291428321666" y="686.5604254020848"/>
      <point x="202.51501450156937" y="647.3339268238733"/>
      <point x="191.13883916991156" y="587.9040380406757" type="curve" smooth="yes"/>
      <point x="181.54519698454064" y="527.5018876889433"/>
      <point x="219.0894599548304" y="477.7734127740078"/>
      <point x="274.92676016131713" y="476.0" type="curve" smooth="yes"/>
      <point x="535.9267601613171" y="476.0" type="line" smooth="yes"/>
      <point x="545.8603849973779" y="479.74190473154056"/>
      <point x="547.3264726956166" y="477.8596957497804"/>
      <point x="541.9796014848957" y="467.90403804067563" type="curve" smooth="yes"/>
      <point x="495.9582595199863" y="206.90403804067563" type="line" smooth="yes"/>
      <point x="487.840649458079" y="151.24855434289898"/>
      <point x="529.7304824482026" y="105.10631413591395"/>
      <point x="590.3331233377681" y="104.0" type="curve" smooth="yes"/>
      <point x="650.2504462384485" y="104.93467075490761"/>
      <point x="695.9929159496613" y="140.946446370421"/>
      <point x="706.9251867248165" y="195.09596195932437" type="curve" smooth="yes"/>
      <point x="752.9465286897259" y="456.09596195932437" type="line" smooth="yes"/>
      <point x="752.5037364127087" y="468.98418933756926"/>
      <point x="764.0237121099555" y="478.8110447122662"/>
      <point x="775.9267601613171" y="476.0" type="curve" smooth="yes"/>
      <point x="1036.9267601613171" y="476.0" type="line" smooth="yes"/>
      <point x="1091.7154627124867" y="477.4395745979152"/>
      <point x="1134.7295910430837" y="516.6660731761267"/>
      <point x="1146.1057663747415" y="576.0959619593244" type="curve" smooth="yes"/>
      <point x="1155.6994085601125" y="636.4981123110566"/>
      <point x="1118.155145589823" y="686.2265872259921"/>
      <point x="1062.3178453833361" y="688.0" type="curve" smooth="yes"/>
      <point x="801.3178453833361" y="688.0" type="line" smooth="yes"/>
      <point x="791.3842205472753" y="684.2580952684594"/>
      <point x="789.9181328490365" y="686.1403042502195"/>
      <point x="795.2650040597575" y="696.0959619593243" type="curve" smooth="yes"/>
      <point x="841.2863460246668" y="957.0959619593244" type="line" smooth="yes"/>
      <point x="849.4039560865742" y="1012.751445657101"/>
      <point x="807.5141230964506" y="1058.8936858640861"/>
      <point x="746.911482206885" y="1060.0" type="curve" smooth="yes"/>
      <point x="686.9941593062047" y="1059.0653292450925"/>
      <point x="641.2516895949918" y="1023.053553629579"/>
      <point x="630.3194188198366" y="968.9040380406756" type="curve" smooth="yes"/>
      <point x="584.2980768549273" y="707.9040380406757" type="line" smooth="yes"/>
      <point x="584.7408691319445" y="695.0158106624307"/>
      <point x="573.2208934346978" y="685.1889552877337"/>
      <point x="561.3178453833361" y="688.0" type="curve" smooth="yes"/>
    </contour>
  </outline>
</glyph>
<glyph name="comma" format="2">
  <advance width="560"/>
  <unicode hex="002C"/>
  <outline>
    <contour>
      <point x="291.430775064672" y="328.0" type="line" smooth="yes"/>
      <point x="254.17214239373186" y="326.71509928251174"/>
      <point x="215.10535045081988" y="300.8496948527537"/>
      <point x="200.50295143971735" y="265.83218786405934" type="curve" smooth="yes"/>
      <point x="21.511003195295082" y="-216.1741273263377" type="line" smooth="yes"/>
      <point x="4.004117896791861" y="-271.2162249872869"/>
      <point x="45.231535058983276" y="-326.33189072115624"/>
      <point x="111.7505104080946" y="-328.0" type="curve" smooth="yes"/>
      <point x="163.46170176794286" y="-327.5168956386357"/>
      <point x="210.3314551545056" y="-306.6751654308037"/>
      <point x="233.9564268919986" y="-270.7865638134832" type="curve" smooth="yes"/>
      <point x="531.3002412748173" y="213.21597089514705" type="line" smooth="yes"/>
      <point x="556.4338753971886" y="257.57743813710357"/>
      <point x="538.5779412444865" y="321.38780193668237"/>
      <point x="485.430775064672" y="328.0" type="curve" smooth="yes"/>
    </contour>
  </outline>
</glyph>
<glyph name="period" format="2">
  <advance width="454"/>
  <unicode hex="002E"/>
  <outline>
    <contour>
      <point x="100.30603082549112" y="242.90403804067563" type="curve" smooth="yes"/>
      <point x="67.86186637513356" y="58.90403804067563" type="line" smooth="yes"/>
      <point x="62.505459853427155" y="-6.172908420478745"/>
      <point x="125.6369325361948" y="-43.687413992724764"/>
      <point x="225.23673019291536" y="-44.0" type="curve" smooth="yes"/>
      <point x="324.62882075970464" y="-43.71512331955974"/>
      <point x="389.8146682111877" y="-13.420224524474008"/>
      <point x="404.82879357996376" y="47.09596195932437" type="curve" smooth="yes"/>
      <point x="437.2729580303213" y="231.09596195932437" type="line" smooth="yes"/>
      <point x="442.6293645520277" y="296.17290842047873"/>
      <point x="379.49789186926006" y="333.68741399272477"/>
      <point x="279.8980942125395" y="334.0" type="curve" smooth="yes"/>
      <point x="180.5060036457502" y="333.7151233195597"/>
      <point x="115.32015619426711" y="303.420224524474"/>
    </contour>
  </outline>
</glyph>
<glyph name="slash" format="2">
  <advance width="1017"/>
  <unicode hex="002F"/>
  <outline>
    <contour>
      <point x="977.5267846891687" y="1375.1808112488386" type="curve" smooth="yes"/>
      <point x="15.815658172472958" y="-267.82926340713834" type="line" smooth="yes"/>
      <point x="-11.262602217397237" y="-331.5106976922234"/>
      <point x="49.0225259318723" y="-387.5582696985198"/>
      <point x="121.8183961963485" y="-389.0" type="curve" smooth="yes"/>
      <point x="162.2435748423427" y="-387.9395865909559"/>
      <point x="203.4140970442793" y="-365.0850743802748"/>
      <point x="222.50589696263359" y="-336.1808112488386" type="curve" smooth="yes"/>
      <point x="1184.2170234793293" y="1306.8292634071383" type="line" smooth="yes"/>
      <point x="1211.2952838691995" y="1370.5106976922234"/>
      <point x="1151.01015571993" y="1426.5582696985198"/>
      <point x="1078.2142854554538" y="1428.0" type="curve" smooth="yes"/>
      <point x="1037.7891068094596" y="1426.939586590956"/>
      <point x="996.618584607523" y="1404.0850743802748"/>
    </contour>
  </outline>
</glyph>
<glyph name="zero" format="2">
  <advance width="1080"/>
  <unicode hex="0030"/>
  <outline>
    <contour>
      <point x="187.07843595770467" y="598.9040380406757" type="curve" smooth="yes"/>
      <point x="121.45881460492754" y="219.94090833102837"/>
      <point x="257.7244197515146" y="-50.59323272001921"/>
      <point x="536.1208064244138" y="-56.0" type="curve" smooth="yes"/>
      <point x="811.9110075721858" y="-52.11095394890204"/>
      <point x="1034.4072246422654" y="209.2289630603379"/>
      <point x="1102.0453631625346" y="587.0959619593244" type="curve" smooth="yes"/>
      <point x="1167.6662950059329" y="966.0445505723158"/>
      <point x="1031.6347452044226" y="1237.5551618553382"/>
      <point x="753.1793196765342" y="1243.0" type="curve" smooth="yes"/>
      <point x="477.34331580669266" y="1239.0868905245186"/>
      <point x="254.7115922079004" y="976.759784620661"/>
    </contour>
    <contour>
      <point x="337.1869049194704" y="439.04865753273714" type="line"/>
      <point x="391.83446893554833" y="465.07659775397997"/>
      <point x="396.52529480930616" y="521.9475851862024"/>
      <point x="408.04536316253484" y="587.0959619593243" type="curve" smooth="yes"/>
      <point x="458.47954102301406" y="877.8933226511024"/>
      <point x="586.8463865618448" y="1031.4198308352181"/>
      <point x="727.0829265316813" y="1027.0" type="curve" smooth="yes"/>
      <point x="799.832081497862" y="1028.6989001271959"/>
      <point x="844.9729843737239" y="993.7537600570942"/>
      <point x="879.5581661684535" y="945.6198984364919" type="curve"/>
    </contour>
    <contour>
      <point x="881.0784359577046" y="598.9040380406757" type="curve" smooth="yes"/>
      <point x="830.650029604676" y="308.1204835125799"/>
      <point x="702.5210883396776" y="155.61823542699992"/>
      <point x="562.2171995692665" y="160.0" type="curve" smooth="yes"/>
      <point x="489.5613044624197" y="158.32813693829152"/>
      <point x="444.46158274481496" y="192.87871082530904"/>
      <point x="409.8473955920223" y="240.26395539988" type="curve"/>
      <point x="951.9706565700955" y="746.817632515493" type="line"/>
      <point x="897.282070124513" y="720.7876589068115"/>
      <point x="892.5793973737764" y="663.9448492795459"/>
    </contour>
  </outline>
</glyph>
<glyph name="one" format="2">
  <advance width="1080"/>
  <unicode hex="0031"/>
  <outline>
    <contour>
      <point x="500.43200931069856" y="991.0115877922284" type="line" smooth="yes"/>
      <point x="480.61075149648804" y="964.5091962879842"/>
      <point x="466.68343216842646" y="918.9555046407726"/>
      <point x="468.00784935840727" y="868.8608944874901" type="curve" smooth="yes"/>
      <point x="470.87059289093537" y="813.5695437868892"/>
      <point x="534.2481100655572" y="794.5983154208128"/>
      <point x="554.8885464406853" y="818.3871360974508" type="curve" smooth="yes"/>
      <point x="641.3847127468587" y="931.9732843067438" type="line" smooth="yes"/>
      <point x="650.2575154235507" y="946.4705397001901"/>
      <point x="608.7200410526034" y="964.0378048182479"/>
      <point x="603.935265816806" y="951.9040380406757" type="curve" smooth="yes"/>
      <point x="469.77772449363556" y="191.0588129699677" type="line" smooth="yes"/>
      <point x="470.86022564121635" y="181.79855487919804"/>
      <point x="463.1247947256265" y="175.18895528773376"/>
      <point x="454.84971596174006" y="178.0" type="curve" smooth="yes"/>
      <point x="398.0169315355748" y="178.0" type="line" smooth="yes"/>
      <point x="361.130957370391" y="171.1292430782422"/>
      <point x="338.69559579776103" y="132.78281628946638"/>
      <point x="328.88916606789815" y="77.90403804067564" type="curve" smooth="yes"/>
      <point x="319.3265359036694" y="22.888376875425003"/>
      <point x="331.8425052002109" y="-23.686727484295112"/>
      <point x="372.6258463135559" y="-34.0" type="curve" smooth="yes"/>
      <point x="713.5012407457479" y="-34.0" type="line" smooth="yes"/>
      <point x="750.3872149109316" y="-27.129243078242254"/>
      <point x="772.8225764835618" y="11.217183710533554"/>
      <point x="782.6290062134246" y="66.09596195932438" type="curve" smooth="yes"/>
      <point x="792.1916363776533" y="121.11162312457503"/>
      <point x="779.6756670811119" y="167.68672748429512"/>
      <point x="738.8923259677669" y="178.0" type="curve" smooth="yes"/>
      <point x="685.0173816232608" y="178.0" type="line" smooth="yes"/>
      <point x="679.8469246991189" y="174.25809526845944"/>
      <point x="681.8599835307654" y="171.91636289436704"/>
      <point x="686.3669797249704" y="177.1088526915529" type="curve" smooth="yes"/>
      <point x="858.1071859511222" y="1151.0959619593243" type="line" smooth="yes"/>
      <point x="863.4942516583465" y="1228.1651883678064"/>
      <point x="781.4414037479912" y="1257.7643328868464"/>
      <point x="717.350133884061" y="1224.2261847635605" type="curve" smooth="yes"/>
    </contour>
  </outline>
</glyph>
<glyph name="two" format="2">
  <advance width="1080"/>
  <unicode hex="0032"/>
  <outline>
    <contour>
      <point x="348.98675054400655" y="1123.7872385890714" type="curve" smooth="yes"/>
      <point x="306.371457983397" y="1095.4163399743948"/>
      <point x="282.8246111072747" y="1039.5018876889433"/>
      <point x="305.538180924196" y="982.2226078773921" type="curve" smooth="yes"/>
      <point x="334.45301212468763" y="925.0130798063595"/>
      <point x="399.2863819693892" y="913.0747566222684"/>
      <point x="441.721529190448" y="938.2898225692697" type="curve" smooth="yes"/>
      <point x="531.4586166376365" y="995.2692193419424"/>
      <point x="628.1143306327251" y="1027.5392444112522"/>
      <point x="711.0829265316813" y="1027.0" type="curve" smooth="yes"/>
      <point x="847.172169883458" y="1029.154531310298"/>
      <point x="891.7688548792516" y="973.7038022790388"/>
      <point x="869.9814128261563" y="864.9040380406757" type="curve" smooth="yes"/>
      <point x="855.2025060415716" y="774.3871611974616"/>
      <point x="799.6428603957531" y="711.5772764918839"/>
      <point x="662.9775605372365" y="593.772421846609" type="curve" smooth="yes"/>
      <point x="144.32302627454723" y="147.76148779687114" type="line" smooth="yes"/>
      <point x="126.8759860757117" y="130.72091478103155"/>
      <point x="113.94298813641723" y="103.5482469170876"/>
      <point x="108.50677108576056" y="73.90403804067563" type="curve" smooth="yes"/>
      <point x="99.3058969302536" y="15.006784355798057"/>
      <point x="138.2041297355238" y="-32.55826969851977"/>
      <point x="193.0" y="-34.0" type="curve" smooth="yes"/>
      <point x="887.0" y="-34.0" type="line" smooth="yes"/>
      <point x="941.7887025511694" y="-32.56042540208479"/>
      <point x="984.8028308817668" y="6.666073176126652"/>
      <point x="996.1790062134246" y="66.09596195932438" type="curve" smooth="yes"/>
      <point x="1005.7726483987955" y="126.49811231105669"/>
      <point x="968.2283854285057" y="176.22658722599218"/>
      <point x="912.391085222019" y="178.0" type="curve" smooth="yes"/>
      <point x="431.06455347201677" y="156.0559713660768" type="line"/>
      <point x="808.2915266257154" y="451.2339408044466" type="line" smooth="yes"/>
      <point x="961.8068306881892" y="583.5247318074751"/>
      <point x="1062.6073309917708" y="699.4087669054659"/>
      <point x="1090.9483400309864" y="853.0959619593244" type="curve" smooth="yes"/>
      <point x="1129.4005004126318" y="1088.315833835372"/>
      <point x="980.6413820951227" y="1241.0097036086306"/>
      <point x="736.1793196765342" y="1243.0" type="curve" smooth="yes"/>
      <point x="611.5383228792554" y="1242.5287809968256"/>
      <point x="466.4954069938947" y="1196.9376430214852"/>
    </contour>
  </outline>
</glyph>
<glyph name="three" format="2">
  <advance width="1080"/>
  <unicode hex="0033"/>
  <outline>
    <contour>
      <point x="377.4181584027749" y="1142.9574272396499" type="curve" smooth="yes"/>
      <point x="333.59687435409217" y="1117.6909183948017"/>
      <point x="306.68449797326184" y="1062.5394633952226"/>
      <point x="326.10588684264303" y="1002.332705454367" type="curve" smooth="yes"/>
      <point x="351.2381874909495" y="943.442082151242"/>
      <point x="414.26395184543" y="929.7744095201101"/>
      <point x="456.5325240111636" y="951.167378891989" type="curve" smooth="yes"/>
      <point x="551.8732078450832" y="1003.6371275884426"/>
      <point x="636.2004061019287" y="1027.3508288113808"/>
      <point x="718.3287248398806" y="1027.0" type="curve" smooth="yes"/>
      <point x="852.7430360717592" y="1028.6898902306962"/>
      <point x="899.1507595213553" y="982.1762966875971"/>
      <point x="878.7537507485249" y="884.9040380406757" type="curve" smooth="yes"/>
      <point x="861.5260828407038" y="774.4185071511905"/>
      <point x="791.1977557913583" y="723.8171928355517"/>
      <point x="647.0877419777486" y="725.0" type="curve" smooth="yes"/>
      <point x="592.0877419777486" y="725.0" type="line" smooth="yes"/>
      <point x="538.163636163538" y="723.8079309834798"/>
      <point x="494.805001471887" y="686.7200273224285"/>
      <point x="483.61404368715785" y="628.9040380406757" type="curve" smooth="yes"/>
      <point x="474.41316953165085" y="570.006784355798"/>
      <point x="513.3114023369211" y="522.4417303014802"/>
      <point x="568.1072726013973" y="521.0" type="curve" smooth="yes"/>
      <point x="641.1072726013973" y="521.0" type="line" smooth="yes"/>
      <point x="786.4056910672332" y="522.4135102268446"/>
      <point x="846.8542239155756" y="474.8078199814569"/>
      <point x="821.5951430502046" y="350.90403804067563" type="curve" smooth="yes"/>
      <point x="802.3106425710791" y="229.91669569225837"/>
      <point x="719.0821101562562" y="158.376491009985"/>
      <point x="560.4629978774658" y="160.0" type="curve" smooth="yes"/>
      <point x="461.26816910702394" y="159.3120045109326"/>
      <point x="372.6088429646142" y="197.00497250245172"/>
      <point x="303.47197249005717" y="257.649421647458" type="curve" smooth="yes"/>
      <point x="265.30098978552115" y="286.7124076004486"/>
      <point x="201.49729565746944" y="276.7438893332289"/>
      <point x="157.4374127184276" y="224.1729312598101" type="curve" smooth="yes"/>
      <point x="116.65284301183084" y="170.33392682387333"/>
      <point x="122.44931249109248" y="109.56603378431605"/>
      <point x="157.7897906443282" y="77.90362154063398" type="curve" smooth="yes"/>
      <point x="253.38793930280514" y="-1.562264614076465"/>
      <point x="395.0439306830513" y="-55.406942285444174"/>
      <point x="534.366604732613" y="-56.0" type="curve" smooth="yes"/>
      <point x="807.4173824198294" y="-54.15400927579205"/>
      <point x="1000.2318592861818" y="110.9504621934355"/>
      <point x="1042.5620702550348" y="339.09596195932437" type="curve" smooth="yes"/>
      <point x="1067.3151499684118" y="488.29920899124863"/>
      <point x="1002.492644860175" y="606.4516038574864"/>
      <point x="905.6643369343436" y="652.0567042418116" type="curve" smooth="yes"/>
      <point x="908.2379835404377" y="645.2020997033325"/>
      <point x="906.7808848184017" y="614.031617548577"/>
      <point x="909.254566334745" y="612.1903967350715" type="curve" smooth="yes"/>
      <point x="991.844586944752" y="652.1610818900216"/>
      <point x="1075.949934628261" y="745.3788427735798"/>
      <point x="1099.7206779533549" y="873.0959619593244" type="curve" smooth="yes"/>
      <point x="1134.434821066539" y="1089.1132919424815"/>
      <point x="985.943842620335" y="1240.9893573359827"/>
      <point x="743.4251179847334" y="1243.0" type="curve" smooth="yes"/>
      <point x="624.6334371120308" y="1242.6606564762806"/>
      <point x="498.79180843573397" y="1207.492667369427"/>
    </contour>
  </outline>
</glyph>
<glyph name="four" format="2">
  <advance width="1080"/>
  <unicode hex="0034"/>
  <outline>
    <contour>
      <point x="753.4557124007965" y="1169.9472221177816" type="curve" smooth="yes"/>
      <point x="141.984128313631" y="446.96238509564756" type="line" smooth="yes"/>
      <point x="130.08399481087181" y="432.5975243738265"/>
      <point x="118.47656943467494" y="406.9049805107373"/>
      <point x="113.81548114396776" y="381.90403804067563" type="curve" smooth="yes"/>
      <point x="104.63164071163732" y="322.81992993255506"/>
      <point x="141.76142612038257" y="270.3769572203731"/>
      <point x="199.25074817395642" y="268.0" type="curve" smooth="yes"/>
      <point x="651.2507481739565" y="268.0" type="line" smooth="yes"/>
      <point x="649.5243730100171" y="271.7419047315406"/>
      <point x="642.4736816887815" y="280.19969574978046"/>
      <point x="639.1827830731212" y="281.90403804067563" type="curve" smooth="yes"/>
      <point x="600.2145203365504" y="60.90403804067562" type="line" smooth="yes"/>
      <point x="591.7576808344146" y="5.596908305787272"/>
      <point x="631.4067741195688" y="-42.833395738832294"/>
      <point x="696.2367301929154" y="-44.0" type="curve" smooth="yes"/>
      <point x="698.2367301929154" y="-44.0" type="line" smooth="yes"/>
      <point x="762.3472564526804" y="-43.018470040110294"/>
      <point x="806.5544971235073" y="-5.036045769882536"/>
      <point x="817.1814475413806" y="49.09596195932438" type="curve" smooth="yes"/>
      <point x="856.1497102779514" y="270.09596195932437" type="line" smooth="yes"/>
      <point x="853.6509454058735" y="271.3241893375691"/>
      <point x="853.0077001225949" y="270.81104471226627"/>
      <point x="853.2507481739565" y="268.0" type="curve" smooth="yes"/>
      <point x="989.2507481739565" y="268.0" type="line" smooth="yes"/>
      <point x="1044.039450725126" y="269.4395745979152"/>
      <point x="1087.053579055723" y="308.6660731761267"/>
      <point x="1098.4297543873809" y="368.09596195932437" type="curve" smooth="yes"/>
      <point x="1108.0233965727518" y="428.4981123110566"/>
      <point x="1070.4791336024623" y="478.22658722599215"/>
      <point x="1014.6418333959754" y="480.0" type="curve" smooth="yes"/>
      <point x="878.6418333959754" y="480.0" type="line" smooth="yes"/>
      <point x="880.3682085599147" y="476.2580952684594"/>
      <point x="887.4188998811502" y="467.80030425021965"/>
      <point x="890.7097984968105" y="466.09596195932437" type="curve" smooth="yes"/>
      <point x="1006.909278783689" y="1125.0959619593243" type="line" smooth="yes"/>
      <point x="1015.3651776731703" y="1182.8521410734534"/>
      <point x="974.2625584252736" y="1240.7804238697497"/>
      <point x="900.1793196765342" y="1243.0" type="curve" smooth="yes"/>
      <point x="840.5223427066766" y="1242.1265860553585"/>
      <point x="791.0884715015754" y="1214.4332848679342"/>
    </contour>
    <contour>
      <point x="674.4247362310216" y="478.3619373400426" type="line" smooth="yes"/>
      <point x="676.8292770108917" y="476.9594383230768"/>
      <point x="677.1837682605734" y="477.21972018650695"/>
      <point x="676.8696165991004" y="480.0" type="curve" smooth="yes"/>
      <point x="382.64183339597537" y="480.0" type="line" smooth="yes"/>
      <point x="386.01766546077494" y="475.35434254355556"/>
      <point x="397.9670154475859" y="447.5583060927209"/>
      <point x="400.8638111920872" y="446.183946984935" type="curve" smooth="yes"/>
      <point x="815.1560452627575" y="948.5520446557081" type="line" smooth="yes"/>
      <point x="816.2242144198731" y="952.7559641977981"/>
      <point x="771.3989585745719" y="972.399380747774"/>
      <point x="768.5632741756564" y="972.36720492902" type="curve" smooth="yes"/>
    </contour>
  </outline>
</glyph>
<glyph name="five" format="2">
  <advance width="1080"/>
  <unicode hex="0035"/>
  <outline>
    <contour>
      <point x="502.3345389074505" y="1221.0" type="line" smooth="yes"/>
      <point x="438.1239418093158" y="1219.9937281205398"/>
      <point x="395.19735807922143" y="1182.427840773114"/>
      <point x="382.6439776580772" y="1129.1981332892353" type="curve" smooth="yes"/>
      <point x="274.4804873038447" y="629.1981332892353" type="line" smooth="yes"/>
      <point x="263.8251481575004" y="572.0829131965381"/>
      <point x="306.7553693048634" y="524.0778792675993"/>
      <point x="371.2485410611176" y="523.0" type="curve" smooth="yes"/>
      <point x="396.82152695845485" y="523.0974964999323"/>
      <point x="421.9426259673605" y="527.8855102255936"/>
      <point x="440.7292705658113" y="537.9811850368834" type="curve" smooth="yes"/>
      <point x="510.9386355544927" y="581.4838301694928"/>
      <point x="572.7741653981027" y="604.4067046201253"/>
      <point x="662.5310264985033" y="604.0" type="curve" smooth="yes"/>
      <point x="799.4035159445535" y="607.0740651629084"/>
      <point x="856.8574969382007" y="527.3109889715165"/>
      <point x="830.613163757555" y="391.90403804067563" type="curve" smooth="yes"/>
      <point x="806.9850446256022" y="246.72032336544672"/>
      <point x="705.5724253508167" y="157.93112259905976"/>
      <point x="552.2516123757691" y="160.0" type="curve" smooth="yes"/>
      <point x="455.8893399521435" y="159.34577293483898"/>
      <point x="368.4408758881934" y="195.36581666124508"/>
      <point x="299.6321588346832" y="252.1348635062368" type="curve" smooth="yes"/>
      <point x="262.0316423995736" y="280.7124076004486"/>
      <point x="198.22794827152197" y="270.7438893332289"/>
      <point x="154.1680653324801" y="218.1729312598101" type="curve" smooth="yes"/>
      <point x="113.06014576136727" y="163.54841345834762"/>
      <point x="121.2965618784669" y="102.08469175008557"/>
      <point x="156.84375624355846" y="70.49434684676274" type="curve" smooth="yes"/>
      <point x="252.15300813628127" y="-4.843753280712896"/>
      <point x="390.0551294489682" y="-55.44830196963923"/>
      <point x="526.1552192309164" y="-56.0" type="curve" smooth="yes"/>
      <point x="796.4010350616953" y="-53.718133530184986"/>
      <point x="1006.331480622421" y="135.08777541577396"/>
      <point x="1051.5800909623852" y="380.09596195932437" type="curve" smooth="yes"/>
      <point x="1092.6361830940311" y="625.061210254729"/>
      <point x="960.0155533203925" y="816.8055451062261"/>
      <point x="701.627419643356" y="820.0" type="curve" smooth="yes"/>
      <point x="618.2632821832862" y="819.7187530052582"/>
      <point x="534.9155924891851" y="797.7414361295686"/>
      <point x="510.7517445893627" y="730.3045640701886" type="curve"/>
      <point x="561.8079719750696" y="1013.6647701242929" type="line"/>
      <point x="1010.9434536854316" y="1009.0" type="line" smooth="yes"/>
      <point x="1065.732156236601" y="1010.4395745979152"/>
      <point x="1108.7462845671982" y="1049.6660731761267"/>
      <point x="1120.122459898856" y="1109.0959619593243" type="curve" smooth="yes"/>
      <point x="1129.716102084227" y="1169.4981123110567"/>
      <point x="1092.1718391139373" y="1219.2265872259923"/>
      <point x="1036.3345389074505" y="1221.0" type="curve" smooth="yes"/>
    </contour>
  </outline>
</glyph>
<glyph name="six" format="2">
  <advance width="1080"/>
  <unicode hex="0036"/>
  <outline>
    <contour>
      <point x="181.295950520319" y="517.9040380406757" type="curve" smooth="yes"/>
      <point x="155.47994596319236" y="370.4943068300261"/>
      <point x="162.91749667981676" y="251.903643501323"/>
      <point x="199.51301627982107" y="160.182738533211" type="curve" smooth="yes"/>
      <point x="258.4938828146498" y="20.611494475794128"/>
      <point x="393.36080419456346" y="-54.98139419677203"/>
      <point x="543.6208064244138" y="-56.0" type="curve" smooth="yes"/>
      <point x="802.2080399615845" y="-53.964605721877234"/>
      <point x="1008.5623543910533" y="118.38625638906805"/>
      <point x="1051.2268877925032" y="347.09596195932437" type="curve" smooth="yes"/>
      <point x="1090.8504904670501" y="589.5611280783717"/>
      <point x="932.4858580664884" y="762.3788150603003"/>
      <point x="698.3950228978879" y="765.0" type="curve" smooth="yes"/>
      <point x="577.1367514668716" y="764.2162233830653"/>
      <point x="449.9631003268117" y="708.7710150132722"/>
      <point x="417.35390932860474" y="589.427071183219" type="curve"/>
      <point x="495.88333844365735" y="842.5610572363561"/>
      <point x="687.5517886370149" y="1010.8777464613755"/>
      <point x="1048.4719678511551" y="1028.0431654950908" type="curve" smooth="yes"/>
      <point x="1087.3920246822327" y="1032.2264525703251"/>
      <point x="1124.0020428370747" y="1073.1433561118313"/>
      <point x="1130.732720349601" y="1138.999096293146" type="curve" smooth="yes"/>
      <point x="1134.658519704647" y="1204.7918406610231"/>
      <point x="1088.807758593116" y="1243.0569798342096"/>
      <point x="1050.1559362517166" y="1242.9658549567207" type="curve" smooth="yes"/>
      <point x="508.71734224954326" y="1215.6434866394816"/>
      <point x="240.65214673286437" y="848.1742184705272"/>
    </contour>
    <contour>
      <point x="830.259960587673" y="358.90403804067563" type="curve" smooth="yes"/>
      <point x="810.706256786093" y="233.94224534976993"/>
      <point x="711.960774020746" y="158.25367125489956"/>
      <point x="569.7171995692665" y="160.0" type="curve" smooth="yes"/>
      <point x="429.0853251717298" y="157.2616892997926"/>
      <point x="366.610553290956" y="234.83755041109913"/>
      <point x="391.8717925031302" y="362.09596195932437" type="curve" smooth="yes"/>
      <point x="409.0365213548237" y="476.0877326942063"/>
      <point x="512.8516967689317" y="550.6792206690805"/>
      <point x="650.2986297530351" y="549.0" type="curve" smooth="yes"/>
      <point x="795.1539189154344" y="551.2430165369716"/>
      <point x="855.2326925699256" y="483.89644616608444"/>
    </contour>
  </outline>
</glyph>
<glyph name="seven" format="2">
  <advance width="1080"/>
  <unicode hex="0037"/>
  <outline>
    <contour>
      <point x="437.0403275472964" y="1221.0" type="line" smooth="yes"/>
      <point x="387.4442087053161" y="1219.0987547390853"/>
      <point x="348.0928482370191" y="1179.3422373964456"/>
      <point x="337.1211198875234" y="1120.9040380406757" type="curve" smooth="yes"/>
      <point x="327.45873905507494" y="1061.7453104386261"/>
      <point x="360.68246067809616" y="1011.4132881639865"/>
      <point x="411.64924232527744" y="1009.0" type="curve" smooth="yes"/>
      <point x="888.6863169982829" y="1009.0" type="line" smooth="yes"/>
      <point x="897.0486640479725" y="1013.6001059575251"/>
      <point x="891.1146763982676" y="1023.4798926522427"/>
      <point x="882.1831727576763" y="1014.3938881109794" type="curve" smooth="yes"/>
      <point x="364.7483389890207" y="72.32994981715015" type="line" smooth="yes"/>
      <point x="339.7900064440722" y="17.575618888523763"/>
      <point x="370.5905186685003" y="-40.32057921067197"/>
      <point x="419.26765373297417" y="-53.247949891396566" type="curve" smooth="yes"/>
      <point x="467.4959082870602" y="-61.84059685926577"/>
      <point x="522.1055446321924" y="-37.38674307062459"/>
      <point x="547.6187604651852" y="7.786811577128731" type="curve" smooth="yes"/>
      <point x="1120.7195047528746" y="1062.7784904058633" type="line" smooth="yes"/>
      <point x="1126.3890460182201" y="1074.403931013145"/>
      <point x="1132.9477973384437" y="1093.558722150489"/>
      <point x="1136.4933550151873" y="1113.0959619593243" type="curve" smooth="yes"/>
      <point x="1145.7847092177778" y="1170.679999650389"/>
      <point x="1111.0478445843091" y="1219.0311252965573"/>
      <point x="1061.2599246545994" y="1221.0" type="curve" smooth="yes"/>
    </contour>
  </outline>
</glyph>
<glyph name="eight" format="2">
  <advance width="1080"/>
  <unicode hex="0038"/>
  <outline>
    <contour>
      <point x="294.50795244032565" y="884.9040380406756" type="curve" smooth="yes"/>
      <point x="274.57788972266684" y="760.1250381256276"/>
      <point x="338.3305346044017" y="656.5005097628384"/>
      <point x="408.99435465451916" y="613.0792804249531" type="curve" smooth="yes"/>
      <point x="406.9550585842932" y="620.5367710226293"/>
      <point x="410.52219531029726" y="648.4867082137902"/>
      <point x="408.35874052533876" y="650.6247851017738" type="curve" smooth="yes"/>
      <point x="301.043582953437" y="604.7132611909461"/>
      <point x="189.84717834701763" y="491.84061228427015"/>
      <point x="162.46770983846304" y="345.90403804067563" type="curve" smooth="yes"/>
      <point x="126.47307448422" y="121.4313122547033"/>
      <point x="289.3358349152105" y="-53.504674312058214"/>
      <point x="536.1208064244138" y="-56.0" type="curve" smooth="yes"/>
      <point x="781.4955158776075" y="-54.04084869124762"/>
      <point x="995.6587817348593" y="112.55198080039752"/>
      <point x="1037.4346370432932" y="334.09596195932437" type="curve" smooth="yes"/>
      <point x="1061.429006754984" y="481.8246552877944"/>
      <point x="986.0674126528887" y="601.7358642011403"/>
      <point x="890.8309889610201" y="649.9056154526976" type="curve" smooth="yes"/>
      <point x="893.3545584488672" y="642.7346064975491"/>
      <point x="891.7120602332491" y="613.6923217487877"/>
      <point x="894.1441681504092" y="611.7932770052108" type="curve" smooth="yes"/>
      <point x="976.4622104113785" y="652.92063494756"/>
      <point x="1072.069237820682" y="750.0051959548134"/>
      <point x="1095.4748796451556" y="873.0959619593244" type="curve" smooth="yes"/>
      <point x="1127.2369298290228" y="1073.5712024490995"/>
      <point x="978.4696504419628" y="1240.2948415580827"/>
      <point x="753.1793196765342" y="1243.0" type="curve" smooth="yes"/>
      <point x="529.3988807754507" y="1240.893906303522"/>
      <point x="332.05304986291435" y="1082.449706012855"/>
    </contour>
    <contour>
      <point x="816.6440368191714" y="346.90403804067563" type="curve" smooth="yes"/>
      <point x="799.4735471036996" y="233.63735593479737"/>
      <point x="698.4178932883605" y="158.23933907280332"/>
      <point x="562.2171995692665" y="160.0" type="curve" smooth="yes"/>
      <point x="427.29026235685944" y="157.7842910087175"/>
      <point x="360.45172623054947" y="224.85168180328205"/>
      <point x="383.61096402400165" y="335.09596195932437" type="curve" smooth="yes"/>
      <point x="400.72278889107037" y="448.27343944096066"/>
      <point x="501.2782144016357" y="521.6923085064121"/>
      <point x="637.6851473124896" y="520.0" type="curve" smooth="yes"/>
      <point x="772.8658208267088" y="522.1204842975536"/>
      <point x="839.8440944844718" y="457.0144783952673"/>
    </contour>
    <contour>
      <point x="875.9789714982002" y="881.9040380406756" type="curve" smooth="yes"/>
      <point x="863.1729562814229" y="792.1004418289521"/>
      <point x="773.986046317182" y="725.0993516670706"/>
      <point x="662.1945976309662" y="727.0" type="curve" smooth="yes"/>
      <point x="551.7734025641407" y="724.5875555631192"/>
      <point x="493.6225369099525" y="783.5499992641996"/>
      <point x="512.9458987030304" y="870.0959619593244" type="curve" smooth="yes"/>
      <point x="527.7625425924205" y="971.004582361517"/>
      <point x="614.2113111717458" y="1028.5436319871908"/>
      <point x="727.0829265316813" y="1027.0" type="curve" smooth="yes"/>
      <point x="838.83241893391" y="1028.9153295358594"/>
      <point x="897.1904206743817" y="979.6091347868181"/>
    </contour>
  </outline>
</glyph>
<glyph name="nine" format="2">
  <advance width="1080"/>
  <unicode hex="0039"/>
  <outline>
    <contour>
      <point x="238.07323830844476" y="839.9040380406757" type="curve" smooth="yes"/>
      <point x="198.44963563389783" y="597.4388719216283"/>
      <point x="356.8142680344596" y="424.6211849396996"/>
      <point x="590.90510320306" y="422.0" type="curve" smooth="yes"/>
      <point x="712.1633746340763" y="422.7837766169347"/>
      <point x="838.6039760218357" y="477.725447915641"/>
      <point x="911.359509817616" y="554.0584625111013" type="curve" smooth="yes"/>
      <point x="913.1680821938468" y="558.458143933437"/>
      <point x="868.2922195440644" y="583.4390193660882"/>
      <point x="865.499785786862" y="582.2530010237626" type="curve" smooth="yes"/>
      <point x="793.6810856168652" y="344.8420945330894"/>
      <point x="601.7483374639331" y="176.12225353862448"/>
      <point x="240.8281582497928" y="158.95683450490912" type="curve" smooth="yes"/>
      <point x="201.9081014187153" y="154.77354742967478"/>
      <point x="165.2980832638731" y="113.85664388816876"/>
      <point x="158.56740575134688" y="48.000903706853805" type="curve" smooth="yes"/>
      <point x="154.64160639630103" y="-17.791840661023087"/>
      <point x="200.49236750783194" y="-56.0569798342096"/>
      <point x="239.14418984923117" y="-55.965854956720754" type="curve" smooth="yes"/>
      <point x="780.5827838514045" y="-28.643486639481655"/>
      <point x="1048.6479793680835" y="338.8257815294728"/>
      <point x="1108.004175580629" y="669.0959619593244" type="curve" smooth="yes"/>
      <point x="1133.8201801377554" y="816.5056931699739"/>
      <point x="1126.382629421131" y="935.096356498677"/>
      <point x="1089.787109821127" y="1026.817261466789" type="curve" smooth="yes"/>
      <point x="1030.8062432862982" y="1166.3885055242058"/>
      <point x="895.9393219063845" y="1241.981394196772"/>
      <point x="745.6793196765342" y="1243.0" type="curve" smooth="yes"/>
      <point x="487.0920861393635" y="1240.9646057218772"/>
      <point x="280.7377717098946" y="1068.613743610932"/>
    </contour>
    <contour>
      <point x="897.4283335978178" y="824.9040380406756" type="curve" smooth="yes"/>
      <point x="880.2636047461243" y="710.9122673057936"/>
      <point x="776.4484293320163" y="636.3207793309195"/>
      <point x="639.0014963479128" y="638.0" type="curve" smooth="yes"/>
      <point x="494.1462071855136" y="635.7569834630284"/>
      <point x="434.06743353102235" y="703.1035538339156"/>
      <point x="459.0401655132749" y="828.0959619593244" type="curve" smooth="yes"/>
      <point x="478.59386931485477" y="953.0577546502301"/>
      <point x="577.3393520802018" y="1028.7463287451005"/>
      <point x="719.5829265316813" y="1027.0" type="curve" smooth="yes"/>
      <point x="860.2148009292181" y="1029.7383107002074"/>
      <point x="922.6895728099919" y="952.1624495889009"/>
    </contour>
  </outline>
</glyph>
<glyph name="less" format="2">
  <advance width="1172"/>
  <unicode hex="003C"/>
  <outline>
    <contour>
      <point x="473.2820933554501" y="577.0959619593243" type="line"/>
      <point x="1182.3129767039068" y="873.8986623188131" type="line" smooth="yes"/>
      <point x="1235.4715981928166" y="898.5545880856431"/>
      <point x="1263.2157872441812" y="953.8982164453328"/>
      <point x="1246.6747335550915" y="1010.4700948311639" type="curve" smooth="yes"/>
      <point x="1227.9002127369752" y="1063.5533732243223"/>
      <point x="1170.6932298947088" y="1091.8794378010211"/>
      <point x="1115.0436422387183" y="1068.99119797228" type="curve" smooth="yes"/>
      <point x="270.85195721052423" y="687.9861846385736" type="line" smooth="yes"/>
      <point x="231.6659367781759" y="669.6168300727466"/>
      <point x="200.67320919156788" y="636.5610158490092"/>
      <point x="191.31516615062" y="588.9040380406757" type="curve" smooth="yes"/>
      <point x="183.86009737366848" y="540.211440380862"/>
      <point x="207.86977670592648" y="498.8269594806094"/>
      <point x="242.66001922787044" y="479.0483960558115" type="curve" smooth="yes"/>
      <point x="952.4936289705965" y="98.04077764871633" type="line" smooth="yes"/>
      <point x="1003.0954492648211" y="74.12803380381797"/>
      <point x="1060.8942550658137" y="97.31670441525279"/>
      <point x="1095.4337917357986" y="146.95225632836778" type="curve" smooth="yes"/>
      <point x="1130.4759018688173" y="200.77779839330776"/>
      <point x="1118.9571202115642" y="263.53154165063626"/>
      <point x="1070.7826683832616" y="291.1260782302336" type="curve" smooth="yes"/>
    </contour>
  </outline>
</glyph>
<glyph name="greater" format="2">
  <advance width="1172"/>
  <unicode hex="003E"/>
  <outline>
    <contour>
      <point x="882.4679145039422" y="573.618275200403" type="line" smooth="yes"/>
      <point x="889.777360425551" y="575.7759738674486"/>
      <point x="890.8875519784151" y="596.3893234419739"/>
      <point x="877.1785807819492" y="593.3578578060037" type="curve" smooth="yes"/>
      <point x="195.34991946027301" y="292.1014481145874" type="line" smooth="yes"/>
      <point x="142.1910479423144" y="267.44541191435695"/>
      <point x="114.44685889094967" y="212.10178355466724"/>
      <point x="130.98791258003948" y="155.52990516883605" type="curve" smooth="yes"/>
      <point x="149.7624333981559" y="102.44662677567769"/>
      <point x="206.96941624042216" y="74.12056219897893"/>
      <point x="262.61900389641266" y="97.00880202772018" type="curve" smooth="yes"/>
      <point x="1106.810688924607" y="478.0138153614264" type="line" smooth="yes"/>
      <point x="1145.996709356955" y="496.3831699272535"/>
      <point x="1176.989436943563" y="529.4389841509907"/>
      <point x="1186.347479984511" y="577.0959619593244" type="curve" smooth="yes"/>
      <point x="1193.8025487614625" y="625.788559619138"/>
      <point x="1169.7928694292045" y="667.1730405193906"/>
      <point x="1135.0026269072605" y="686.9516039441885" type="curve" smooth="yes"/>
      <point x="425.1690171645345" y="1067.9592223512836" type="line" smooth="yes"/>
      <point x="374.56719687030983" y="1091.871966196182"/>
      <point x="316.7683910693174" y="1068.6832955847472"/>
      <point x="282.22885439933225" y="1019.0477436716322" type="curve" smooth="yes"/>
      <point x="247.1867442663136" y="965.2222016066922"/>
      <point x="258.70552592356677" y="902.4684583493638"/>
      <point x="306.8802965762612" y="874.8737549697423" type="curve" smooth="yes"/>
    </contour>
  </outline>
</glyph>
<glyph name="question" format="2">
  <advance width="888"/>
  <unicode hex="003F"/>
  <outline>
    <contour>
      <point x="325.1167989911192" y="1221.4873188009158" type="curve" smooth="yes"/>
      <point x="278.2990050535189" y="1197.4673617553078"/>
      <point x="247.90572412446724" y="1145.3191234065685"/>
      <point x="263.72089956130924" y="1082.0978504826012" type="curve" smooth="yes"/>
      <point x="284.3643936453045" y="1017.0927572855435"/>
      <point x="348.98898525577" y="1004.9066852044729"/>
      <point x="388.76386507961973" y="1023.3675984745206" type="curve" smooth="yes"/>
      <point x="477.52552699937297" y="1066.097240795408"/>
      <point x="560.1092881972003" y="1087.271058644625"/>
      <point x="646.8246044229079" y="1087.0" type="curve" smooth="yes"/>
      <point x="759.8677042131741" y="1089.1718279291056"/>
      <point x="794.7418795648787" y="1045.1969817148654"/>
      <point x="777.2471890035961" y="961.9040380406756" type="curve" smooth="yes"/>
      <point x="764.153753226165" y="873.8390922017938"/>
      <point x="703.7919780459031" y="836.7579371260326"/>
      <point x="543.2731462102388" y="775.78310431606" type="curve" smooth="yes"/>
      <point x="469.4588390201928" y="747.8295099789333" type="line" smooth="yes"/>
      <point x="437.21486743597285" y="734.7746918463471"/>
      <point x="413.84318764813213" y="702.0309552634629"/>
      <point x="408.7140942698619" y="669.4660432527947" type="curve" smooth="yes"/>
      <point x="379.02728218893344" y="444.3649458185042" type="line" smooth="yes"/>
      <point x="377.21956805392904" y="397.680021990966"/>
      <point x="420.5353474971474" y="356.5717040907865"/>
      <point x="472.7532545443115" y="355.0" type="curve" smooth="yes"/>
      <point x="524.0292467062509" y="356.28981856651296"/>
      <point x="571.058580840399" y="389.39543393797027"/>
      <point x="583.8378641994186" y="432.1946218519757" type="curve" smooth="yes"/>
      <point x="617.9030658143586" y="577.2723008442675" type="line" smooth="yes"/>
      <point x="617.237887757566" y="581.391130798162"/>
      <point x="623.734442826753" y="588.647490235379"/>
      <point x="628.793174571408" y="589.0388830619713" type="curve" smooth="yes"/>
      <point x="826.9671861021235" y="664.615839053613"/>
      <point x="963.027788562041" y="762.8037520604184"/>
      <point x="998.2141162084263" y="950.0959619593243" type="curve" smooth="yes"/>
      <point x="1030.4669743889076" y="1148.703361610933"/>
      <point x="904.3660170298604" y="1300.6405039559734"/>
      <point x="671.9209975677608" y="1303.0" type="curve" smooth="yes"/>
      <point x="553.1565448182176" y="1302.7909587833262"/>
      <point x="436.00044589456417" y="1275.9916422246479"/>
    </contour>
    <contour>
      <point x="285.1252012246173" y="172.90403804067563" type="curve" smooth="yes"/>
      <point x="265.02392542385223" y="58.90403804067563" type="line" smooth="yes"/>
      <point x="258.61681752562873" y="-3.611338416720738"/>
      <point x="315.9955565864412" y="-43.56791737468766"/>
      <point x="402.398789241634" y="-44.0" type="curve" smooth="yes"/>
      <point x="488.51854781635666" y="-43.61232024327619"/>
      <point x="548.2170560787247" y="-11.793640113304175"/>
      <point x="561.9908526286824" y="47.095961959324384" type="curve" smooth="yes"/>
      <point x="582.0921284294474" y="161.09596195932437" type="line" smooth="yes"/>
      <point x="588.499236327671" y="223.6113384167207"/>
      <point x="531.1204972668585" y="263.5679173746877"/>
      <point x="444.7172646116656" y="264.0" type="curve" smooth="yes"/>
      <point x="358.59750603694295" y="263.6123202432762"/>
      <point x="298.898997774575" y="231.79364011330415"/>
    </contour>
  </outline>
</glyph>
<glyph name="at" format="2">
  <advance width="1304"/>
  <unicode hex="0040"/>
  <outline>
    <contour>
      <point x="127.1077318931778" y="394.90403804067563" type="curve" smooth="yes"/>
      <point x="68.04733259559853" y="48.04436330326279"/>
      <point x="243.45090941168803" y="-184.17412807983033"/>
      <point x="577.0219719516049" y="-187.0" type="curve" smooth="yes"/>
      <point x="690.2570710493131" y="-186.84574026119103"/>
      <point x="805.9172814125567" y="-164.73375924262234"/>
      <point x="885.0335101311767" y="-132.48125299412806" type="curve" smooth="yes"/>
      <point x="916.4288737929146" y="-118.21518841249454"/>
      <point x="940.973238197427" y="-76.73425800664255"/>
      <point x="936.3718353616283" y="-31.642463286001963" type="curve" smooth="yes"/>
      <point x="929.5281174377392" y="12.727050358670299"/>
      <point x="888.3630051366104" y="47.485156794425194"/>
      <point x="848.6161955299004" y="39.611229363489166" type="curve" smooth="yes"/>
      <point x="780.1143648686177" y="19.181128062550727"/>
      <point x="689.8693236469278" y="3.881107937546872"/>
      <point x="596.710190578746" y="4.0" type="curve" smooth="yes"/>
      <point x="361.7905961189515" y="0.9474099049234148"/>
      <point x="272.0602447808868" y="138.14310186859774"/>
      <point x="317.07465909800794" y="383.09596195932437" type="curve" smooth="yes"/>
      <point x="370.12747071353385" y="693.8793005380321"/>
      <point x="602.7658733294701" y="924.1876740749195"/>
      <point x="865.392266576584" y="921.0" type="curve" smooth="yes"/>
      <point x="1094.5365269847614" y="923.9513530026895"/>
      <point x="1197.1875991525342" y="785.9831156636261"/>
      <point x="1151.14616315378" y="536.9040380406757" type="curve" smooth="yes"/>
      <point x="1125.0276892827878" y="384.63293140383166"/>
      <point x="1059.7781940258512" y="292.0927440348833"/>
      <point x="976.3739959263263" y="297.0" type="curve" smooth="yes"/>
      <point x="935.5866937848543" y="291.05124312747853"/>
      <point x="929.831429422488" y="313.9627279513103"/>
      <point x="964.4540429409966" y="390.53003149936126" type="curve" smooth="yes"/>
      <point x="1094.7104247554407" y="692.5430955142714" type="line" smooth="yes"/>
      <point x="1105.154923459362" y="733.5920107363638"/>
      <point x="1073.7324442754734" y="771.3814292676225"/>
      <point x="1045.2673650361553" y="783.5512977459796" type="curve" smooth="yes"/>
      <point x="1016.8225598955162" y="794.345772934839"/>
      <point x="971.1693560341768" y="794.1051949014868"/>
      <point x="944.6442272462169" y="766.921693317509" type="curve" smooth="yes"/>
      <point x="928.3915620879376" y="718.9157239048745" type="line"/>
      <point x="947.032793097137" y="758.3022351350153"/>
      <point x="897.797654246214" y="816.2561917765476"/>
      <point x="820.416679856145" y="819.0" type="curve" smooth="yes"/>
      <point x="621.1085199371272" y="812.9856206031175"/>
      <point x="429.0572574227693" y="551.1179901420373"/>
      <point x="394.4652685105069" y="362.90403804067563" type="curve" smooth="yes"/>
      <point x="369.2167580520696" y="208.29068798310595"/>
      <point x="450.885593647762" y="101.68232854007326"/>
      <point x="564.2751614535174" y="98.0" type="curve" smooth="yes"/>
      <point x="665.4718320282827" y="99.896502246014"/>
      <point x="745.2536148976175" y="162.2205783033482"/>
      <point x="795.0400743556394" y="232.05107373969307" type="curve"/>
      <point x="783.3298166196438" y="165.56097393303804"/>
      <point x="857.8898533544284" y="104.58719571865585"/>
      <point x="955.1567963570596" y="103.0" type="curve" smooth="yes"/>
      <point x="1138.7118280514198" y="106.7668891943378"/>
      <point x="1295.0447077444592" y="281.71158012411"/>
      <point x="1339.11309035861" y="525.0959619593244" type="curve" smooth="yes"/>
      <point x="1395.6372767956782" y="858.3240109544618"/>
      <point x="1216.8107116835479" y="1108.6434402091725"/>
      <point x="892.0804852037252" y="1112.0" type="curve" smooth="yes"/>
      <point x="527.1696238012628" y="1109.0239896699552"/>
      <point x="199.94815276838438" y="797.4362643243693"/>
    </contour>
    <contour>
      <point x="819.4359725750337" y="566.9040380406757" type="curve" smooth="yes"/>
      <point x="798.9843801712755" y="444.3222708236253"/>
      <point x="695.3981616132062" y="293.12107209068716"/>
      <point x="612.9029768684517" y="300.0" type="curve" smooth="yes"/>
      <point x="589.07461692271" y="296.90573762544005"/>
      <point x="585.5786243162926" y="298.2088191188739"/>
      <point x="596.784849676754" y="353.09596195932437" type="curve" smooth="yes"/>
      <point x="619.646665768875" y="492.1367985270796"/>
      <point x="741.135681803814" y="630.5867514250599"/>
      <point x="794.02315330617" y="624.0" type="curve" smooth="yes"/>
      <point x="825.788047270758" y="627.6044157139602"/>
      <point x="830.1045585852512" y="618.861178894723"/>
    </contour>
  </outline>
</glyph>
<glyph name="A" format="2">
  <advance width="1149"/>
  <unicode hex="0041"/>
  <outline>
    <contour>
      <point x="634.2847265836701" y="1160.3302761013463" type="curve" smooth="yes"/>
      <point x="53.37942230537964" y="100.332641238533" type="line" smooth="yes"/>
      <point x="26.238432589181983" y="47.319381308277855"/>
      <point x="48.62288414184294" y="-11.79151942226995"/>
      <point x="107.58518698681169" y="-34.01390469943308" type="curve" smooth="yes"/>
      <point x="166.21830311643748" y="-53.89709207058527"/>
      <point x="221.14328903709227" y="-30.862316225550256"/>
      <point x="249.57642784875895" y="19.704447681073468" type="curve" smooth="yes"/>
      <point x="385.80567969350005" y="268.67459077507226" type="line" smooth="yes"/>
      <point x="392.49670425267067" y="284.2442843493881"/>
      <point x="414.540446723996" y="297.95969525004296"/>
      <point x="428.60420518604155" y="296.0" type="curve" smooth="yes"/>
      <point x="836.547930771979" y="296.0" type="line" smooth="yes"/>
      <point x="849.2010560944746" y="298.4960980832248"/>
      <point x="860.7535107108713" y="289.42877923196534"/>
      <point x="859.9276989483769" y="278.5031034043482" type="curve" smooth="yes"/>
      <point x="908.3547124919199" y="29.542915485895897" type="line" smooth="yes"/>
      <point x="920.2594859488397" y="-24.517770982554637"/>
      <point x="975.4346106283848" y="-53.90250350006771"/>
      <point x="1039.327507001515" y="-34.40485774727212" type="curve" smooth="yes"/>
      <point x="1102.922627877375" y="-13.608577835399522"/>
      <point x="1137.1479349110814" y="35.543660798731565"/>
      <point x="1128.5707631569048" y="90.50903373736166" type="curve" smooth="yes"/>
      <point x="921.4780090348065" y="1150.5057192110712" type="line" smooth="yes"/>
      <point x="908.8363084936203" y="1208.0037296061041"/>
      <point x="857.1077840402058" y="1242.3650187422186"/>
      <point x="787.567484021751" y="1243.0" type="curve" smooth="yes"/>
      <point x="718.4358571905357" y="1242.4425350773938"/>
      <point x="664.4985115365869" y="1214.1567409539139"/>
    </contour>
    <contour>
      <point x="506.2226768826699" y="508.0" type="line" smooth="yes"/>
      <point x="497.80790894120554" y="503.4302815710793"/>
      <point x="503.37422641373445" y="494.4164900877375"/>
      <point x="512.0920381746239" y="503.5626569661721" type="curve" smooth="yes"/>
      <point x="786.3200870911917" y="1027.0429775836026" type="line"/>
      <point x="726.824809850757" y="1037.0335313654107" type="line"/>
      <point x="816.1226338966901" y="513.6301445280652" type="line" smooth="yes"/>
      <point x="821.4215864544165" y="505.87730601624105"/>
      <point x="820.0916787854707" y="504.64661673010323"/>
      <point x="809.375295290873" y="508.0" type="curve" smooth="yes"/>
    </contour>
  </outline>
</glyph>
<glyph name="C" format="2">
  <advance width="1060"/>
  <unicode hex="0043"/>
  <outline>
    <contour>
      <point x="139.2547629384131" y="599.9040380406757" type="curve" smooth="yes"/>
      <point x="73.9059380002546" y="218.7441287289832"/>
      <point x="253.37055409682003" y="-52.13186936811467"/>
      <point x="578.1208064244138" y="-56.0" type="curve" smooth="yes"/>
      <point x="715.3115127112509" y="-55.74074659543656"/>
      <point x="848.1654344065936" y="-21.65732637552779"/>
      <point x="984.6125967927416" y="48.83295055828253" type="curve" smooth="yes"/>
      <point x="1034.2960104051303" y="76.4162346455851"/>
      <point x="1059.4509562262888" y="132.8097636825416"/>
      <point x="1043.9704877057936" y="192.3025086687623" type="curve" smooth="yes"/>
      <point x="1020.6755290289667" y="258.84294396191933"/>
      <point x="952.724178104629" y="265.68623934844186"/>
      <point x="913.9617424321968" y="245.9330598303957" type="curve" smooth="yes"/>
      <point x="809.7241803865684" y="189.36015143099414"/>
      <point x="710.2934938884185" y="159.64159809474552"/>
      <point x="604.2171995692665" y="160.0" type="curve" smooth="yes"/>
      <point x="403.5645185939495" y="155.81216464306542"/>
      <point x="309.6756627639233" y="310.35753671399806"/>
      <point x="360.2216901432433" y="588.0959619593243" type="curve" smooth="yes"/>
      <point x="408.1418111007475" y="867.2240398774326"/>
      <point x="566.218757498495" y="1030.0778674267497"/>
      <point x="769.0829265316813" y="1027.0" type="curve" smooth="yes"/>
      <point x="874.8973360876763" y="1027.3977731132736"/>
      <point x="961.4442114380031" y="998.4858650029186"/>
      <point x="1044.3856213638528" y="942.6890294888127" type="curve" smooth="yes"/>
      <point x="1078.8968946447246" y="921.6037454125307"/>
      <point x="1143.2340021053867" y="924.7780619635365"/>
      <point x="1184.7070645822366" y="985.7309763762944" type="curve" smooth="yes"/>
      <point x="1219.9691695639397" y="1042.8522903410692"/>
      <point x="1212.4229271538882" y="1105.385899269011"/>
      <point x="1168.6282192464273" y="1136.6818442314561" type="curve" smooth="yes"/>
      <point x="1055.6066300132554" y="1207.952244950651"/>
      <point x="932.5588736611463" y="1242.7167540978646"/>
      <point x="795.1793196765342" y="1243.0" type="curve" smooth="yes"/>
      <point x="472.49407157219565" y="1240.1241704198312"/>
      <point x="207.68664033060872" y="979.4389202665476"/>
    </contour>
  </outline>
</glyph>
<glyph name="D" format="2">
  <advance width="1065"/>
  <unicode hex="0044"/>
  <outline>
    <contour>
      <point x="342.3001261009479" y="1221.0" type="line" smooth="yes"/>
      <point x="288.3760202867373" y="1219.8079309834798"/>
      <point x="245.0173855950863" y="1182.7200273224285"/>
      <point x="233.82642781035727" y="1124.9040380406757" type="curve" smooth="yes"/>
      <point x="48.50677108576054" y="73.90403804067563" type="line" smooth="yes"/>
      <point x="39.30589693025359" y="15.00678435579805"/>
      <point x="78.2041297355238" y="-32.55826969851977"/>
      <point x="133.0" y="-34.0" type="curve" smooth="yes"/>
      <point x="469.0" y="-34.0" type="line" smooth="yes"/>
      <point x="796.4762561907045" y="-31.628199940304977"/>
      <point x="1064.3357157090613" y="207.0277791048067"/>
      <point x="1133.0453631625346" y="587.0959619593244" type="curve" smooth="yes"/>
      <point x="1198.2715623976198" y="968.9872748981819"/>
      <point x="1007.5198522597844" y="1217.8836427250365"/>
      <point x="678.3001261009479" y="1221.0" type="curve" smooth="yes"/>
    </contour>
    <contour>
      <point x="912.0784359577046" y="598.9040380406757" type="curve" smooth="yes"/>
      <point x="862.8425876461715" y="310.6696352502325"/>
      <point x="700.8302490393057" y="175.97416248717812"/>
      <point x="475.39108522201894" y="178.0" type="curve" smooth="yes"/>
      <point x="293.39108522201894" y="178.0" type="line" smooth="yes"/>
      <point x="283.45746038595826" y="174.2580952684594"/>
      <point x="281.9913726877194" y="176.1403042502196"/>
      <point x="287.33824389844034" y="186.09596195932437" type="curve" smooth="yes"/>
      <point x="428.9288094073378" y="989.0959619593243" type="line" smooth="yes"/>
      <point x="428.4860171303205" y="1001.9841893375693"/>
      <point x="440.0059928275673" y="1011.8110447122663"/>
      <point x="451.909040878929" y="1009.0" type="curve" smooth="yes"/>
      <point x="633.909040878929" y="1009.0" type="line" smooth="yes"/>
      <point x="857.8137158046826" y="1011.6230584473277"/>
      <point x="964.5657599336956" y="885.4356115054615"/>
    </contour>
  </outline>
</glyph>
<glyph name="E" format="2">
  <advance width="831"/>
  <unicode hex="0045"/>
  <outline>
    <contour>
      <point x="342.3001261009479" y="1221.0" type="line" smooth="yes"/>
      <point x="288.3760202867373" y="1219.8079309834798"/>
      <point x="245.0173855950863" y="1182.7200273224285"/>
      <point x="233.82642781035727" y="1124.9040380406757" type="curve" smooth="yes"/>
      <point x="48.50677108576054" y="73.90403804067563" type="line" smooth="yes"/>
      <point x="39.30589693025359" y="15.00678435579805"/>
      <point x="78.2041297355238" y="-32.55826969851977"/>
      <point x="133.0" y="-34.0" type="curve" smooth="yes"/>
      <point x="709.7926315789473" y="-34.0" type="line" smooth="yes"/>
      <point x="758.0647526840185" y="-31.938237960464328"/>
      <point x="796.3620382203969" y="7.9301168873306676"/>
      <point x="807.2290062134246" y="66.09596195932438" type="curve" smooth="yes"/>
      <point x="816.9020902567057" y="124.9202221155849"/>
      <point x="784.9358035768274" y="175.35839264859803"/>
      <point x="735.1837168009663" y="178.0" type="curve" smooth="yes"/>
      <point x="293.39108522201894" y="178.0" type="line" smooth="yes"/>
      <point x="283.45746038595826" y="174.2580952684594"/>
      <point x="281.9913726877194" y="176.1403042502196"/>
      <point x="287.33824389844034" y="186.09596195932437" type="curve" smooth="yes"/>
      <point x="340.2363381109799" y="486.09596195932437" type="line" smooth="yes"/>
      <point x="339.79354583396264" y="498.9841893375693"/>
      <point x="351.3135215312094" y="508.8110447122662"/>
      <point x="363.2165695825711" y="506.0" type="curve" smooth="yes"/>
      <point x="687.0358928908418" y="506.0" type="line" smooth="yes"/>
      <point x="735.3080139959128" y="508.06176203953567"/>
      <point x="773.6052995322914" y="547.9301168873307"/>
      <point x="784.472267525319" y="606.0959619593244" type="curve" smooth="yes"/>
      <point x="794.1453515686002" y="664.9202221155849"/>
      <point x="762.1790648887218" y="715.358392648598"/>
      <point x="712.4269781128608" y="718.0" type="curve" smooth="yes"/>
      <point x="388.60765480459" y="718.0" type="line" smooth="yes"/>
      <point x="378.6740299685293" y="714.2580952684594"/>
      <point x="377.2079422702904" y="716.1403042502195"/>
      <point x="382.5548134810115" y="726.0959619593243" type="curve" smooth="yes"/>
      <point x="428.9288094073378" y="989.0959619593244" type="line" smooth="yes"/>
      <point x="428.4860171303205" y="1001.9841893375693"/>
      <point x="440.0059928275673" y="1011.8110447122663"/>
      <point x="451.909040878929" y="1009.0" type="curve" smooth="yes"/>
      <point x="877.4294920067485" y="1009.0" type="line" smooth="yes"/>
      <point x="925.7016131118197" y="1011.0617620395357"/>
      <point x="963.998898648198" y="1050.9301168873308"/>
      <point x="974.8658666412257" y="1109.0959619593243" type="curve" smooth="yes"/>
      <point x="984.5389506845069" y="1167.920222115585"/>
      <point x="952.5726640046285" y="1218.358392648598"/>
      <point x="902.8205772287674" y="1221.0" type="curve" smooth="yes"/>
    </contour>
  </outline>
</glyph>
<glyph name="F" format="2">
  <advance width="831"/>
  <unicode hex="0046"/>
  <outline>
    <contour>
      <point x="342.3001261009479" y="1221.0" type="line" smooth="yes"/>
      <point x="291.3760202867373" y="1219.8079309834798"/>
      <point x="245.5361886143215" y="1183.8407792518083"/>
      <point x="233.82642781035727" y="1124.9040380406757" type="curve" smooth="yes"/>
      <point x="46.2145203365505" y="60.90403804067564" type="line" smooth="yes"/>
      <point x="37.757680834414536" y="5.596908305787316"/>
      <point x="77.40677411956881" y="-42.833395738832294"/>
      <point x="142.23673019291536" y="-44.0" type="curve" smooth="yes"/>
      <point x="144.23673019291536" y="-44.0" type="line" smooth="yes"/>
      <point x="208.34725645268043" y="-43.018470040110294"/>
      <point x="252.55449712350725" y="-5.036045769882557"/>
      <point x="263.18144754138063" y="49.09596195932437" type="curve" smooth="yes"/>
      <point x="333.18325888264127" y="446.09596195932437" type="line" smooth="yes"/>
      <point x="332.740466605624" y="458.98418933756926"/>
      <point x="344.26044230287084" y="468.8110447122662"/>
      <point x="356.1634903542325" y="466.0" type="curve" smooth="yes"/>
      <point x="699.9004670984185" y="466.0" type="line" smooth="yes"/>
      <point x="749.016348008406" y="467.95684345809104"/>
      <point x="787.9923768027119" y="507.7554595530425"/>
      <point x="798.9262174978895" y="566.0959619593243" type="curve" smooth="yes"/>
      <point x="808.5928282613623" y="625.1343670533357"/>
      <point x="775.816120656087" y="675.5079510890914"/>
      <point x="725.2915523204374" y="678.0" type="curve" smooth="yes"/>
      <point x="381.5545755762514" y="678.0" type="line" smooth="yes"/>
      <point x="371.6209507401907" y="674.2580952684594"/>
      <point x="370.15486304195184" y="676.1403042502195"/>
      <point x="375.5017342526728" y="686.0959619593243" type="curve" smooth="yes"/>
      <point x="428.9288094073378" y="989.0959619593244" type="line" smooth="yes"/>
      <point x="428.4860171303205" y="1001.9841893375693"/>
      <point x="440.0059928275673" y="1011.8110447122663"/>
      <point x="451.909040878929" y="1009.0" type="curve" smooth="yes"/>
      <point x="892.1122966928824" y="1009.0" type="line" smooth="yes"/>
      <point x="941.2281776028699" y="1010.956843458091"/>
      <point x="980.2042063971759" y="1050.7554595530426"/>
      <point x="991.1380470923535" y="1109.0959619593243" type="curve" smooth="yes"/>
      <point x="1000.8046578558262" y="1168.1343670533356"/>
      <point x="968.027950250551" y="1218.5079510890914"/>
      <point x="917.5033819149014" y="1221.0" type="curve" smooth="yes"/>
    </contour>
  </outline>
</glyph>
<glyph name="G" format="2">
  <advance width="1093"/>
  <unicode hex="0047"/>
  <outline>
    <contour>
      <point x="131.2547629384131" y="599.9040380406757" type="curve" smooth="yes"/>
      <point x="65.93989120295414" y="218.5315363383477"/>
      <point x="249.62965981439487" y="-52.265894612697295"/>
      <point x="580.1208064244138" y="-56.0" type="curve" smooth="yes"/>
      <point x="737.733437626331" y="-55.80752720621451"/>
      <point x="900.111919988008" y="-21.11197898463965"/>
      <point x="1025.7133463186028" y="43.82379938710196" type="curve" smooth="yes"/>
      <point x="1057.6582586867792" y="61.3501404317703"/>
      <point x="1084.047737536008" y="98.14323103327682"/>
      <point x="1091.6982218437254" y="137.09596195932437" type="curve" smooth="yes"/>
      <point x="1159.2314554550676" y="520.0959619593243" type="line" smooth="yes"/>
      <point x="1168.4323296105745" y="578.993215644202"/>
      <point x="1129.5340968053044" y="626.5582696985198"/>
      <point x="1074.7382265408282" y="628.0" type="curve" smooth="yes"/>
      <point x="720.7382265408282" y="628.0" type="line" smooth="yes"/>
      <point x="665.9495239896588" y="626.5604254020848"/>
      <point x="622.9353956590614" y="587.3339268238733"/>
      <point x="611.5592203274036" y="527.9040380406756" type="curve" smooth="yes"/>
      <point x="601.9655781420328" y="467.5018876889433"/>
      <point x="639.5098411123225" y="417.77341277400785"/>
      <point x="695.3471413188092" y="416.0" type="curve" smooth="yes"/>
      <point x="914.3471413188092" y="416.0" type="line" smooth="yes"/>
      <point x="924.28076615487" y="419.74190473154056"/>
      <point x="925.7468538531087" y="417.8596957497804"/>
      <point x="920.3999826423878" y="407.90403804067563" type="curve" smooth="yes"/>
      <point x="888.8240563033373" y="228.8280610564309" type="line" smooth="yes"/>
      <point x="888.5443965272434" y="217.5891857388034"/>
      <point x="874.8585680141645" y="200.88260214255334"/>
      <point x="862.3664748395166" y="197.13681026924007" type="curve" smooth="yes"/>
      <point x="812.6987498737302" y="175.56710184323828"/>
      <point x="716.6310695684957" y="159.8987559979223"/>
      <point x="606.2171995692665" y="160.0" type="curve" smooth="yes"/>
      <point x="400.18914887628046" y="156.01494353374963"/>
      <point x="301.62808067273505" y="310.71113160047264"/>
      <point x="352.2216901432433" y="588.0959619593243" type="curve" smooth="yes"/>
      <point x="399.6194229975204" y="866.1870738606177"/>
      <point x="577.6434223252244" y="1029.8212740184385"/>
      <point x="781.0829265316813" y="1027.0" type="curve" smooth="yes"/>
      <point x="888.0369379209853" y="1027.2415939925754"/>
      <point x="976.082331527908" y="1004.8351784004772"/>
      <point x="1059.5934499930975" y="951.2857966323129" type="curve" smooth="yes"/>
      <point x="1095.154992150276" y="930.3975735059503"/>
      <point x="1159.6350033399667" y="935.2671528471203"/>
      <point x="1200.08145241469" y="997.4320431088645" type="curve" smooth="yes"/>
      <point x="1233.1454972999204" y="1054.5593323415908"/>
      <point x="1224.9007733268604" y="1117.0348434631167"/>
      <point x="1179.5680738843346" y="1147.1896879078672" type="curve" smooth="yes"/>
      <point x="1064.669006215912" y="1215.4586264822865"/>
      <point x="943.6364853678734" y="1242.8237786975765"/>
      <point x="807.1793196765342" y="1243.0" type="curve" smooth="yes"/>
      <point x="484.89477881770836" y="1240.2972997904003"/>
      <point x="200.08971854061076" y="980.2055032624577"/>
    </contour>
  </outline>
</glyph>
<glyph name="H" format="2">
  <advance width="1030"/>
  <unicode hex="0048"/>
  <outline>
    <contour>
      <point x="1089.0633959080326" y="1231.0" type="line" smooth="yes"/>
      <point x="1024.9528696482676" y="1230.0184700401103"/>
      <point x="980.7456289774407" y="1192.0360457698825"/>
      <point x="970.1186785595672" y="1137.9040380406757" type="curve" smooth="yes"/>
      <point x="899.5878862761813" y="737.9040380406757" type="line" smooth="yes"/>
      <point x="900.0306785531984" y="725.0158106624307"/>
      <point x="888.5107028559518" y="715.1889552877337"/>
      <point x="876.6076548045901" y="718.0" type="curve" smooth="yes"/>
      <point x="394.60765480459" y="718.0" type="line" smooth="yes"/>
      <point x="384.6740299685293" y="714.2580952684594"/>
      <point x="383.2079422702904" y="716.1403042502195"/>
      <point x="388.5548134810115" y="726.0959619593243" type="curve" smooth="yes"/>
      <point x="459.0856057643974" y="1126.0959619593243" type="line" smooth="yes"/>
      <point x="467.5424452665334" y="1181.4030916942127"/>
      <point x="427.8933519813791" y="1229.8333957388322"/>
      <point x="363.0633959080326" y="1231.0" type="curve" smooth="yes"/>
      <point x="361.0633959080326" y="1231.0" type="line" smooth="yes"/>
      <point x="296.95286964826755" y="1230.0184700401103"/>
      <point x="252.74562897744067" y="1192.0360457698825"/>
      <point x="242.11867855956726" y="1137.9040380406757" type="curve" smooth="yes"/>
      <point x="52.21452033655051" y="60.90403804067563" type="line" smooth="yes"/>
      <point x="43.757680834414536" y="5.596908305787316"/>
      <point x="83.40677411956881" y="-42.833395738832294"/>
      <point x="148.23673019291536" y="-44.0" type="curve" smooth="yes"/>
      <point x="150.23673019291536" y="-44.0" type="line" smooth="yes"/>
      <point x="214.34725645268043" y="-43.018470040110294"/>
      <point x="258.55449712350725" y="-5.036045769882557"/>
      <point x="269.18144754138063" y="49.09596195932436" type="curve" smooth="yes"/>
      <point x="346.2363381109799" y="486.09596195932437" type="line" smooth="yes"/>
      <point x="345.79354583396264" y="498.9841893375693"/>
      <point x="357.3135215312094" y="508.8110447122662"/>
      <point x="369.2165695825711" y="506.0" type="curve" smooth="yes"/>
      <point x="851.2165695825711" y="506.0" type="line" smooth="yes"/>
      <point x="861.1501944186318" y="509.74190473154056"/>
      <point x="862.6162821168706" y="507.8596957497805"/>
      <point x="857.2694109061497" y="497.90403804067563" type="curve" smooth="yes"/>
      <point x="780.2145203365504" y="60.90403804067563" type="line" smooth="yes"/>
      <point x="771.7576808344146" y="5.596908305787272"/>
      <point x="811.4067741195688" y="-42.833395738832294"/>
      <point x="876.2367301929154" y="-44.0" type="curve" smooth="yes"/>
      <point x="878.2367301929154" y="-44.0" type="line" smooth="yes"/>
      <point x="942.3472564526804" y="-43.018470040110294"/>
      <point x="986.5544971235073" y="-5.036045769882536"/>
      <point x="997.1814475413806" y="49.09596195932437" type="curve" smooth="yes"/>
      <point x="1187.0856057643973" y="1126.0959619593243" type="line" smooth="yes"/>
      <point x="1195.5424452665334" y="1181.4030916942127"/>
      <point x="1155.893351981379" y="1229.8333957388322"/>
      <point x="1091.0633959080326" y="1231.0" type="curve" smooth="yes"/>
    </contour>
  </outline>
</glyph>
<glyph name="I" format="2">
  <advance width="504"/>
  <unicode hex="0049"/>
  <outline>
    <contour>
      <point x="120.18887283263838" y="178.0" type="line" smooth="yes"/>
      <point x="84.07473170032866" y="169.32376799965323"/>
      <point x="64.8868623751823" y="132.2748056536604"/>
      <point x="55.2120790085944" y="77.90403804067563" type="curve" smooth="yes"/>
      <point x="45.7011274240053" y="23.441146635280926"/>
      <point x="54.34772671829452" y="-20.63379998268272"/>
      <point x="94.79778761061942" y="-34.0" type="curve" smooth="yes"/>
      <point x="409.5022123893805" y="-34.0" type="line" smooth="yes"/>
      <point x="445.61635352169026" y="-25.323767999653235"/>
      <point x="464.8042228468366" y="11.725194346339597"/>
      <point x="474.47900621342455" y="66.09596195932436" type="curve" smooth="yes"/>
      <point x="483.9899577980136" y="120.55885336471908"/>
      <point x="475.34335850372435" y="164.63379998268277"/>
      <point x="434.8932976113994" y="178.0" type="curve" smooth="yes"/>
      <point x="386.41971320812735" y="141.12970980929248" type="line"/>
      <point x="543.9546215210177" y="1034.4046073841946" type="line"/>
      <point x="587.4437016458907" y="1009.0" type="line" smooth="yes"/>
      <point x="623.5578427782004" y="1017.6762320003469"/>
      <point x="642.7457121033466" y="1054.7251943463395"/>
      <point x="652.4204954699346" y="1109.0959619593243" type="curve" smooth="yes"/>
      <point x="661.9314470545237" y="1163.558853364719"/>
      <point x="653.2848477602345" y="1207.6337999826828"/>
      <point x="612.8347868679095" y="1221.0" type="curve" smooth="yes"/>
      <point x="310.06546533398625" y="1221.0" type="line" smooth="yes"/>
      <point x="273.9513242016765" y="1212.3237679996532"/>
      <point x="254.76345487653015" y="1175.2748056536605"/>
      <point x="245.0886715099422" y="1120.9040380406757" type="curve" smooth="yes"/>
      <point x="235.5777199253531" y="1066.4411466352808"/>
      <point x="244.22431921964244" y="1022.3662000173172"/>
      <point x="284.6743801119673" y="1009.0" type="curve" smooth="yes"/>
      <point x="327.2000540417177" y="1046.0933817025311" type="line"/>
      <point x="169.69945958340827" y="152.79929687039547" type="line"/>
    </contour>
  </outline>
</glyph>
<glyph name="J" format="2">
  <advance width="683"/>
  <unicode hex="004A"/>
  <outline>
    <contour>
      <point x="445.89596975356943" y="1221.0" type="line" smooth="yes"/>
      <point x="404.39986707342274" y="1217.496739695047"/>
      <point x="372.9683263552028" y="1177.4606945638411"/>
      <point x="362.66665370666885" y="1120.9040380406757" type="curve" smooth="yes"/>
      <point x="352.99570118403045" y="1063.9958385936825"/>
      <point x="376.62075351819857" y="1013.8014264035637"/>
      <point x="420.5048845315505" y="1009.0" type="curve" smooth="yes"/>
      <point x="584.809040878929" y="1009.0" type="line" smooth="yes"/>
      <point x="594.7426657149897" y="1012.7419047315406"/>
      <point x="596.2087534132285" y="1010.8596957497805"/>
      <point x="590.8618822025076" y="1000.9040380406757" type="curve" smooth="yes"/>
      <point x="479.42323039475764" y="368.90403804067563" type="line" smooth="yes"/>
      <point x="453.83775649616734" y="221.23269916379704"/>
      <point x="412.93944202480884" y="155.4386565502827"/>
      <point x="340.55896491797006" y="160.0" type="curve" smooth="yes"/>
      <point x="289.06985550235385" y="158.59489431208493"/>
      <point x="250.63288613446707" y="183.4286817357293"/>
      <point x="217.1985445490055" y="239.6085425817537" type="curve" smooth="yes"/>
      <point x="197.14061455903533" y="268.9021801380512"/>
      <point x="133.4803891770109" y="270.49556464742466"/>
      <point x="99.85851400244496" y="213.47533912276424" type="curve" smooth="yes"/>
      <point x="72.31849455949009" y="162.1616769149058"/>
      <point x="69.02621345425663" y="110.30499315162723"/>
      <point x="89.18900682675992" y="74.17678899159517" type="curve" smooth="yes"/>
      <point x="140.7035602910466" y="-7.462730621376505"/>
      <point x="227.6660169230643" y="-54.89979851641238"/>
      <point x="313.8744716170304" y="-56.0" type="curve" smooth="yes"/>
      <point x="471.0623141886279" y="-53.399348325020085"/>
      <point x="646.874834952848" y="87.33691597437512"/>
      <point x="691.1003481783339" y="327.09596195932437" type="curve" smooth="yes"/>
      <point x="829.6933550151874" y="1113.0959619593243" type="line" smooth="yes"/>
      <point x="838.731672550113" y="1173.4658534260575"/>
      <point x="796.9959963654242" y="1219.5582696985198"/>
      <point x="745.200126100948" y="1221.0" type="curve" smooth="yes"/>
    </contour>
  </outline>
</glyph>
<glyph name="K" format="2">
  <advance width="988"/>
  <unicode hex="004B"/>
  <outline>
    <contour>
      <point x="339.0633959080326" y="1231.0" type="line" smooth="yes"/>
      <point x="274.95286964826755" y="1230.0184700401103"/>
      <point x="230.74562897744067" y="1192.0360457698825"/>
      <point x="220.1186785595673" y="1137.9040380406757" type="curve" smooth="yes"/>
      <point x="30.214520336550507" y="60.90403804067563" type="line" smooth="yes"/>
      <point x="21.757680834414536" y="5.596908305787316"/>
      <point x="61.406774119568816" y="-42.833395738832294"/>
      <point x="126.23673019291535" y="-44.0" type="curve" smooth="yes"/>
      <point x="128.23673019291536" y="-44.0" type="line" smooth="yes"/>
      <point x="192.34725645268043" y="-43.018470040110294"/>
      <point x="236.55449712350725" y="-5.036045769882557"/>
      <point x="247.18144754138063" y="49.09596195932437" type="curve" smooth="yes"/>
      <point x="293.48269136873296" y="311.68336430307437" type="line" smooth="yes"/>
      <point x="295.8673846925443" y="329.945160102272"/>
      <point x="314.0459896980504" y="361.5885814022633"/>
      <point x="330.2102403735216" y="375.11234282766475" type="curve" smooth="yes"/>
      <point x="458.4187202496802" y="489.4977276939015" type="line" smooth="yes"/>
      <point x="467.50292046624435" y="501.18768880165237"/>
      <point x="469.3597505279004" y="501.83496386305353"/>
      <point x="467.8952459542097" y="494.40359125659046" type="curve" smooth="yes"/>
      <point x="763.709182648349" y="-11.165347574759643" type="line" smooth="yes"/>
      <point x="794.2019158525602" y="-55.82112780506645"/>
      <point x="853.6174958909623" y="-57.16262725648035"/>
      <point x="906.6349839011227" y="-30.191841255737156" type="curve" smooth="yes"/>
      <point x="967.1574782883167" y="2.265640606415939"/>
      <point x="988.1422981195694" y="61.121915467323404"/>
      <point x="962.5548204589171" y="109.19274462414263" type="curve" smooth="yes"/>
      <point x="651.2300476305289" y="639.9877787074771" type="line" smooth="yes"/>
      <point x="643.9479772203579" y="645.4993032194841"/>
      <point x="647.8033909622018" y="661.1679433185427"/>
      <point x="661.265975874626" y="670.4745862766056" type="curve" smooth="yes"/>
      <point x="1107.51507463187" y="1068.6103160345174" type="line" smooth="yes"/>
      <point x="1151.0946446392866" y="1108.2674527121153"/>
      <point x="1154.4668005248348" y="1174.334725092325"/>
      <point x="1104.5379711504047" y="1214.3208643302912" type="curve" smooth="yes"/>
      <point x="1061.604644479114" y="1244.5309557511182"/>
      <point x="1001.3422083751879" y="1248.1469142898277"/>
      <point x="962.3159292740643" y="1216.3216582042437" type="curve" smooth="yes"/>
      <point x="323.32884855483667" y="644.1973201521121" type="line" smooth="yes"/>
      <point x="313.9746600313696" y="632.3898987480455"/>
      <point x="343.3804584326583" y="616.6276781282952"/>
      <point x="348.90488521631033" y="625.9982446741681" type="curve" smooth="yes"/>
      <point x="437.0856057643974" y="1126.0959619593243" type="line" smooth="yes"/>
      <point x="445.5424452665334" y="1181.4030916942127"/>
      <point x="405.8933519813791" y="1229.8333957388322"/>
      <point x="341.0633959080326" y="1231.0" type="curve" smooth="yes"/>
    </contour>
  </outline>
</glyph>
<glyph name="L" format="2">
  <advance width="849"/>
  <unicode hex="004C"/>
  <outline>
    <contour>
      <point x="364.0633959080326" y="1231.0" type="line" smooth="yes"/>
      <point x="299.95286964826755" y="1230.0184700401103"/>
      <point x="255.74562897744067" y="1192.0360457698825"/>
      <point x="245.11867855956726" y="1137.9040380406757" type="curve" smooth="yes"/>
      <point x="57.50677108576054" y="73.90403804067563" type="line" smooth="yes"/>
      <point x="48.26578286180657" y="15.501887688943297"/>
      <point x="86.2041297355238" y="-32.55826969851977"/>
      <point x="142.0" y="-34.0" type="curve" smooth="yes"/>
      <point x="717.2032558139534" y="-34.0" type="line" smooth="yes"/>
      <point x="766.3191367239409" y="-32.04315654190894"/>
      <point x="805.2951655182469" y="7.755459553042471"/>
      <point x="816.2290062134246" y="66.09596195932438" type="curve" smooth="yes"/>
      <point x="825.8956169768973" y="125.13436705333572"/>
      <point x="793.1189093716221" y="175.50795108909148"/>
      <point x="742.5943410359724" y="178.0" type="curve" smooth="yes"/>
      <point x="302.39108522201894" y="178.0" type="line" smooth="yes"/>
      <point x="292.45746038595826" y="174.2580952684594"/>
      <point x="290.9913726877194" y="176.14030425021957"/>
      <point x="296.3382438984404" y="186.09596195932437" type="curve" smooth="yes"/>
      <point x="462.0856057643974" y="1126.0959619593243" type="line" smooth="yes"/>
      <point x="470.5424452665334" y="1181.4030916942127"/>
      <point x="430.8933519813791" y="1229.8333957388322"/>
      <point x="366.0633959080326" y="1231.0" type="curve" smooth="yes"/>
    </contour>
  </outline>
</glyph>
<glyph name="M" format="2">
  <advance width="1106"/>
  <unicode hex="004D"/>
  <outline>
    <contour>
      <point x="1126.1025299914388" y="1231.0" type="line" smooth="yes"/>
      <point x="1070.8101371841424" y="1229.973265254286"/>
      <point x="1021.871276978025" y="1200.3597332146835"/>
      <point x="989.0219603409754" y="1150.355782662785" type="curve" smooth="yes"/>
      <point x="651.4243699563062" y="623.8789891977173" type="line" smooth="yes"/>
      <point x="646.0916976132912" y="610.543686449157"/>
      <point x="668.9530362423044" y="607.7499128657887"/>
      <point x="672.2408563844026" y="614.9532025314788" type="curve" smooth="yes"/>
      <point x="520.3069990587704" y="1141.4313600863982" type="line" smooth="yes"/>
      <point x="504.0187005018911" y="1194.0037296061041"/>
      <point x="459.2646080699353" y="1229.7422712297655"/>
      <point x="403.10252999143876" y="1231.0" type="curve" smooth="yes"/>
      <point x="401.10252999143876" y="1231.0" type="line" smooth="yes"/>
      <point x="347.6534083286883" y="1230.3827624647668"/>
      <point x="294.5930495227073" y="1199.9676449849346"/>
      <point x="280.3263204840829" y="1138.7907085508248" type="curve" smooth="yes"/>
      <point x="60.422801179797844" y="61.793842308487626" type="line" smooth="yes"/>
      <point x="50.74884568503603" y="6.113270960919172"/>
      <point x="90.44590820297498" y="-42.833395738832294"/>
      <point x="155.27586427632153" y="-44.0" type="curve" smooth="yes"/>
      <point x="157.27586427632153" y="-44.0" type="line" smooth="yes"/>
      <point x="221.48646137445618" y="-42.993728120539856"/>
      <point x="264.5936312069134" y="-5.036045769882557"/>
      <point x="276.0644651412304" y="48.27036895371646" type="curve" smooth="yes"/>
      <point x="430.7164873217462" y="813.2789438383556" type="line" smooth="yes"/>
      <point x="432.1150398301366" y="828.6894699410772"/>
      <point x="386.615792839445" y="826.0677266515771"/>
      <point x="386.94767813491353" y="815.0574435890366" type="curve" smooth="yes"/>
      <point x="502.7789531509151" y="412.58404535811866" type="line" smooth="yes"/>
      <point x="519.4718737503604" y="358.4316223340021"/>
      <point x="562.802583350818" y="325.0442193065604"/>
      <point x="616.1641931770367" y="324.0" type="curve" smooth="yes"/>
      <point x="668.8759042176393" y="324.8861129912804"/>
      <point x="714.2995468051872" y="352.1069603428304"/>
      <point x="748.0750790630738" y="403.65457919751407" type="curve" smooth="yes"/>
      <point x="1005.8375736729796" y="806.1238899890462" type="line" smooth="yes"/>
      <point x="1014.1087771599657" y="821.7191050695053"/>
      <point x="968.448410051426" y="838.3384232693543"/>
      <point x="964.2481372592543" y="825.0759126513051" type="curve" smooth="yes"/>
      <point x="849.1168848883842" y="60.06753628663181" type="line" smooth="yes"/>
      <point x="841.7968149178208" y="5.596908305787272"/>
      <point x="880.3278546045578" y="-42.80141952589892"/>
      <point x="945.2758642763216" y="-44.0" type="curve" smooth="yes"/>
      <point x="947.2758642763216" y="-44.0" type="line" smooth="yes"/>
      <point x="1011.3863905360867" y="-43.018470040110294"/>
      <point x="1055.7712452998583" y="-4.6373929309755155"/>
      <point x="1065.3672310625136" y="49.9984505493515" type="curve" smooth="yes"/>
      <point x="1225.270909712072" y="1126.9952269885114" type="line" smooth="yes"/>
      <point x="1232.4077419738637" y="1190.3839018311448"/>
      <point x="1182.0970068907632" y="1230.2727710433744"/>
      <point x="1128.1025299914388" y="1231.0" type="curve" smooth="yes"/>
    </contour>
  </outline>
</glyph>
<glyph name="N" format="2">
  <advance width="1030"/>
  <unicode hex="004E"/>
  <outline>
    <contour>
      <point x="1091.0633959080326" y="1231.0" type="line" smooth="yes"/>
      <point x="1028.7503070000896" y="1229.968053518651"/>
      <point x="984.7456289774407" y="1192.0360457698825"/>
      <point x="974.1186785595672" y="1137.9040380406757" type="curve" smooth="yes"/>
      <point x="825.1498153142007" y="293.0575721609167" type="line"/>
      <point x="885.4042896500789" y="301.4033229666592" type="line"/>
      <point x="476.9717598982345" y="1183.3022351350153" type="line" smooth="yes"/>
      <point x="461.3147917239043" y="1211.0685652878935"/>
      <point x="424.96521421332574" y="1230.292114743295"/>
      <point x="389.0633959080326" y="1231.0" type="curve" smooth="yes"/>
      <point x="362.0633959080326" y="1231.0" type="line" smooth="yes"/>
      <point x="298.0506015470437" y="1230.042323261667"/>
      <point x="252.92621507980357" y="1192.427840773114"/>
      <point x="242.11867855956726" y="1137.9040380406757" type="curve" smooth="yes"/>
      <point x="52.21452033655051" y="60.90403804067563" type="line" smooth="yes"/>
      <point x="43.757680834414536" y="5.596908305787316"/>
      <point x="83.16758964355837" y="-42.76813527950605"/>
      <point x="146.23673019291536" y="-44.0" type="curve" smooth="yes"/>
      <point x="148.23673019291536" y="-44.0" type="line" smooth="yes"/>
      <point x="210.54981910085834" y="-42.968053518650976"/>
      <point x="254.55449712350725" y="-5.036045769882557"/>
      <point x="265.18144754138063" y="49.09596195932437" type="curve" smooth="yes"/>
      <point x="417.85385046617915" y="914.9461464702158" type="line"/>
      <point x="357.61383246174586" y="906.5643701699012" type="line"/>
      <point x="769.9850227559701" y="18.6724469942601" type="line" smooth="yes"/>
      <point x="788.4474314018904" y="-19.729359617212552"/>
      <point x="825.5980144335527" y="-53.98789247098578"/>
      <point x="875.1208064244138" y="-56.0" type="curve" smooth="yes"/>
      <point x="936.9774276510691" y="-54.539929594180876"/>
      <point x="983.9398680023897" y="-14.751022813358436"/>
      <point x="994.0075618886283" y="31.095961959324367" type="curve" smooth="yes"/>
      <point x="1187.0856057643973" y="1126.0959619593243" type="line" smooth="yes"/>
      <point x="1195.5424452665334" y="1181.4030916942127"/>
      <point x="1156.1325364573895" y="1229.768135279506"/>
      <point x="1093.0633959080326" y="1231.0" type="curve" smooth="yes"/>
    </contour>
  </outline>
</glyph>
<glyph name="O" format="2">
  <advance width="1168"/>
  <unicode hex="004F"/>
  <outline>
    <contour>
      <point x="131.07843595770467" y="598.9040380406757" type="curve" smooth="yes"/>
      <point x="65.76650763186424" y="217.51350455907848"/>
      <point x="249.68411801967125" y="-52.293706460169034"/>
      <point x="580.1208064244138" y="-56.0" type="curve" smooth="yes"/>
      <point x="908.6030018456192" y="-53.21266420260254"/>
      <point x="1177.5335837843168" y="207.40529745296024"/>
      <point x="1246.0453631625346" y="587.0959619593244" type="curve" smooth="yes"/>
      <point x="1311.3602348979937" y="968.4684636616523"/>
      <point x="1127.670466286553" y="1239.2658946126974"/>
      <point x="797.1793196765342" y="1243.0" type="curve" smooth="yes"/>
      <point x="468.6543313309412" y="1240.194145127757"/>
      <point x="199.5834232663112" y="978.5815367766611"/>
    </contour>
    <contour>
      <point x="1025.0784359577046" y="598.9040380406757" type="curve" smooth="yes"/>
      <point x="976.8828737808687" y="317.93491755708715"/>
      <point x="816.4937153143752" y="157.10733000284256"/>
      <point x="606.2171995692665" y="160.0" type="curve" smooth="yes"/>
      <point x="397.96121690746793" y="156.13512764290894"/>
      <point x="301.1155569132222" y="307.5919709061962"/>
      <point x="352.04536316253484" y="587.0959619593243" type="curve" smooth="yes"/>
      <point x="400.24897481423534" y="868.0815561106224"/>
      <point x="560.8661617328348" y="1029.9190986715366"/>
      <point x="771.0829265316813" y="1027.0" type="curve" smooth="yes"/>
      <point x="979.26270751274" y="1030.9048065267436"/>
      <point x="1076.0052376055362" y="878.4301261668015"/>
    </contour>
  </outline>
</glyph>
<glyph name="P" format="2">
  <advance width="885"/>
  <unicode hex="0050"/>
  <outline>
    <contour>
      <point x="342.3001261009479" y="1221.0" type="line" smooth="yes"/>
      <point x="288.3760202867373" y="1219.8079309834798"/>
      <point x="245.0173855950863" y="1182.7200273224285"/>
      <point x="233.82642781035727" y="1124.9040380406757" type="curve" smooth="yes"/>
      <point x="46.2145203365505" y="60.90403804067564" type="line" smooth="yes"/>
      <point x="37.757680834414536" y="5.596908305787316"/>
      <point x="77.40677411956881" y="-42.833395738832294"/>
      <point x="142.23673019291536" y="-44.0" type="curve" smooth="yes"/>
      <point x="144.23673019291536" y="-44.0" type="line" smooth="yes"/>
      <point x="208.34725645268043" y="-43.018470040110294"/>
      <point x="252.55449712350725" y="-5.036045769882557"/>
      <point x="263.18144754138063" y="49.09596195932437" type="curve" smooth="yes"/>
      <point x="318.1954655224217" y="361.09596195932437" type="line" smooth="yes"/>
      <point x="315.69670065034376" y="362.3241893375692"/>
      <point x="315.0534553670651" y="361.81104471226627"/>
      <point x="315.2965034184267" y="359.0" type="curve" smooth="yes"/>
      <point x="510.24082656253154" y="359.0" type="line" smooth="yes"/>
      <point x="765.4054568284859" y="361.40460424286437"/>
      <point x="943.050350634899" y="537.5590417429714"/>
      <point x="987.6791244006855" y="782.0959619593244" type="curve" smooth="yes"/>
      <point x="1029.4139586478864" y="1029.1667408137496"/>
      <point x="907.3548651598253" y="1217.7507450670912"/>
      <point x="650.2444492450527" y="1221.0" type="curve" smooth="yes"/>
    </contour>
    <contour>
      <point x="340.6875886404457" y="571.0" type="line" smooth="yes"/>
      <point x="342.41396380438505" y="567.2580952684594"/>
      <point x="349.4646551256206" y="558.8003042502197"/>
      <point x="352.7555537412809" y="557.0959619593243" type="curve" smooth="yes"/>
      <point x="432.808002982924" y="1011.0959619593243" type="line" smooth="yes"/>
      <point x="430.309238110846" y="1012.3241893375692"/>
      <point x="429.6659928275674" y="1011.8110447122663"/>
      <point x="429.909040878929" y="1009.0" type="curve" smooth="yes"/>
      <point x="606.6579491758722" y="1009.0" type="line" smooth="yes"/>
      <point x="765.0595066765455" y="1011.2984809431612"/>
      <point x="815.6335622042104" y="943.2935327710801"/>
      <point x="787.2791549833371" y="793.9040380406757" type="curve" smooth="yes"/>
      <point x="762.6656380308569" y="644.885113874601"/>
      <point x="677.3501305976587" y="569.2469072395379"/>
      <point x="517.4364969373889" y="571.0" type="curve" smooth="yes"/>
    </contour>
  </outline>
</glyph>
<glyph name="Q" format="2">
  <advance width="1184"/>
  <unicode hex="0051"/>
  <outline>
    <contour>
      <point x="597.0448583372716" y="285.7144185968828" type="curve" smooth="yes"/>
      <point x="691.8845081874556" y="80.7432197296871" type="line"/>
      <point x="710.7171533276501" y="39.609636694234666" type="line"/>
      <point x="799.4398690387683" y="-149.4937630501317" type="line" smooth="yes"/>
      <point x="824.2457252636251" y="-196.8317373859815"/>
      <point x="883.5271206360908" y="-211.46843019282863"/>
      <point x="942.5260506466154" y="-178.5601302524847" type="curve" smooth="yes"/>
      <point x="1001.8180629896261" y="-144.22133221319908"/>
      <point x="1022.4882944840505" y="-87.57162534084355"/>
      <point x="1001.2919639751846" y="-39.629169649245625" type="curve" smooth="yes"/>
      <point x="799.0101943166309" y="395.33648700004426" type="line" smooth="yes"/>
      <point x="774.6212081368334" y="443.5077856060802"/>
      <point x="715.0256435989" y="458.46843019282863"/>
      <point x="655.716399070402" y="425.38161330720914" type="curve" smooth="yes"/>
      <point x="597.5583742646562" y="390.22133221319905"/>
      <point x="576.0012409230917" y="335.08291319653813"/>
    </contour>
    <component base="O"/>
  </outline>
</glyph>
<glyph name="R" format="2">
  <advance width="954"/>
  <unicode hex="0052"/>
  <outline>
    <contour>
      <point x="342.3001261009479" y="1221.0" type="line" smooth="yes"/>
      <point x="288.3760202867373" y="1219.8079309834798"/>
      <point x="245.0173855950863" y="1182.7200273224285"/>
      <point x="233.82642781035727" y="1124.9040380406757" type="curve" smooth="yes"/>
      <point x="46.2145203365505" y="60.90403804067564" type="line" smooth="yes"/>
      <point x="37.757680834414536" y="5.596908305787316"/>
      <point x="77.40677411956881" y="-42.833395738832294"/>
      <point x="142.23673019291536" y="-44.0" type="curve" smooth="yes"/>
      <point x="144.23673019291536" y="-44.0" type="line" smooth="yes"/>
      <point x="208.34725645268043" y="-43.018470040110294"/>
      <point x="252.55449712350725" y="-5.036045769882557"/>
      <point x="263.18144754138063" y="49.09596195932436" type="curve" smooth="yes"/>
      <point x="332.30162397909896" y="441.09596195932437" type="line" smooth="yes"/>
      <point x="329.802859107021" y="442.3241893375692"/>
      <point x="329.15961382374235" y="441.81104471226627"/>
      <point x="329.40266187510395" y="439.0" type="curve" smooth="yes"/>
      <point x="499.23823316416645" y="439.0" type="line" smooth="yes"/>
      <point x="502.29025098855453" y="440.7368569658851"/>
      <point x="506.41615396976687" y="438.3290297666636"/>
      <point x="504.7842287225854" y="436.67335461887984" type="curve" smooth="yes"/>
      <point x="711.5336369395873" y="-1.4881909329798706" type="line" smooth="yes"/>
      <point x="735.6546722375201" y="-46.07566842363092"/>
      <point x="792.4131992317103" y="-54.97326525428589"/>
      <point x="850.0836618541309" y="-31.381806711640408" type="curve" smooth="yes"/>
      <point x="912.1967915459251" y="-4.392137611407275"/>
      <point x="937.4692840466764" y="52.40309169421267"/>
      <point x="916.187813409101" y="102.67267392508415" type="curve" smooth="yes"/>
      <point x="733.536742939841" y="483.36142630052836" type="line" smooth="yes"/>
      <point x="731.2502454790584" y="477.51367969025137"/>
      <point x="725.677373843538" y="466.55285226569646"/>
      <point x="726.8317456542931" y="463.7771246973796" type="curve" smooth="yes"/>
      <point x="889.5136974120364" y="505.07259137278356"/>
      <point x="1013.5775893642732" y="642.7483961076827"/>
      <point x="1046.482203629024" y="822.0959619593243" type="curve" smooth="yes"/>
      <point x="1084.2967329332116" y="1051.280469074845"/>
      <point x="946.0904112365519" y="1218.890267738311"/>
      <point x="664.3001261009479" y="1221.0" type="curve" smooth="yes"/>
    </contour>
    <contour>
      <point x="432.808002982924" y="1011.0959619593243" type="line" smooth="yes"/>
      <point x="430.309238110846" y="1012.3241893375692"/>
      <point x="429.6659928275674" y="1011.8110447122663"/>
      <point x="429.909040878929" y="1009.0" type="curve" smooth="yes"/>
      <point x="617.909040878929" y="1009.0" type="line" smooth="yes"/>
      <point x="795.7949149942059" y="1010.2443484363779"/>
      <point x="850.8882937444411" y="960.704765860309"/>
      <point x="825.5152764241939" y="833.9040380406757" type="curve" smooth="yes"/>
      <point x="805.4936501105524" y="706.7553621288685"/>
      <point x="721.6459726944951" y="650.0092982700918"/>
      <point x="542.7937470971228" y="651.0" type="curve" smooth="yes"/>
      <point x="354.7937470971229" y="651.0" type="line" smooth="yes"/>
      <point x="356.5201222610622" y="647.2580952684594"/>
      <point x="363.5708135822978" y="638.8003042502197"/>
      <point x="366.86171219795807" y="637.0959619593243" type="curve" smooth="yes"/>
    </contour>
  </outline>
</glyph>
<glyph name="S" format="2">
  <advance width="1031"/>
  <unicode hex="0053"/>
  <outline>
    <contour>
      <point x="192.11650984591708" y="868.9040380406757" type="curve" smooth="yes"/>
      <point x="167.46247960998875" y="718.9845549523551"/>
      <point x="235.8486208987466" y="624.5553085669096"/>
      <point x="329.6309139059472" y="577.4905001041983" type="curve" smooth="yes"/>
      <point x="463.96991275697707" y="512.6736177857227"/>
      <point x="655.4143343169673" y="510.522424141925"/>
      <point x="760.9693270693168" y="461.11341610813145" type="curve" smooth="yes"/>
      <point x="821.7182620853657" y="433.50328397310614"/>
      <point x="849.0227197819634" y="407.6746690674133"/>
      <point x="833.6052481861799" y="332.90403804067563" type="curve" smooth="yes"/>
      <point x="817.5028651012883" y="227.1039781060892"/>
      <point x="731.5986996492779" y="158.7738991556752"/>
      <point x="545.6469886661935" y="160.0" type="curve" smooth="yes"/>
      <point x="420.69208174110025" y="159.4582852178009"/>
      <point x="312.361262792033" y="201.11653177902562"/>
      <point x="232.28198866782944" y="259.5358548098299" type="curve" smooth="yes"/>
      <point x="197.989938513546" y="282.34506213618346"/>
      <point x="133.66532014240025" y="278.4790437862055"/>
      <point x="89.61691085437826" y="218.42887879138863" type="curve" smooth="yes"/>
      <point x="52.31109296444714" y="163.17842378561872"/>
      <point x="57.074747988724496" y="99.22776017257709"/>
      <point x="99.59521524186563" y="66.08443653252124" type="curve" smooth="yes"/>
      <point x="209.70569921747378" y="-9.78738259235044"/>
      <point x="361.65328170784153" y="-55.645450174014776"/>
      <point x="519.5505955213407" y="-56.0" type="curve" smooth="yes"/>
      <point x="823.5403880152667" y="-54.499293006591714"/>
      <point x="1013.988668940349" y="103.62191466170869"/>
      <point x="1054.57217539101" y="321.09596195932437" type="curve" smooth="yes"/>
      <point x="1085.6633773106416" y="508.5671784537758"/>
      <point x="997.7314653129016" y="614.6414462121217"/>
      <point x="882.7522746382602" y="665.1914599525785" type="curve" smooth="yes"/>
      <point x="734.9466842358977" y="728.4718292886225"/>
      <point x="538.8595851498469" y="727.4557928744554"/>
      <point x="452.84803531497147" y="777.713673753646" type="curve" smooth="yes"/>
      <point x="415.10048812767474" y="797.4492772495129"/>
      <point x="403.38631068978714" y="811.7917392847147"/>
      <point x="413.0834370507472" y="857.0959619593243" type="curve" smooth="yes"/>
      <point x="429.73643461012557" y="966.6524110559376"/>
      <point x="515.8727240290516" y="1028.3137606515581"/>
      <point x="666.5127156286082" y="1027.0" type="curve" smooth="yes"/>
      <point x="792.7824084742807" y="1027.3306638879571"/>
      <point x="894.1774366188854" y="996.1720944045261"/>
      <point x="976.4627564993629" y="940.6890294888127" type="curve" smooth="yes"/>
      <point x="1012.1658336091473" y="919.2480005267385"/>
      <point x="1076.9140245879514" y="924.967123219809"/>
      <point x="1118.1368536791636" y="985.7309763762944" type="curve" smooth="yes"/>
      <point x="1153.2985947140432" y="1042.5672031230963"/>
      <point x="1147.4734587444295" y="1105.7293596172124"/>
      <point x="1103.2343353240628" y="1137.6818442314561" type="curve" smooth="yes"/>
      <point x="989.2493300519687" y="1209.3723347609257"/>
      <point x="849.3044563012635" y="1242.7985858675886"/>
      <point x="692.609108773461" y="1243.0" type="curve" smooth="yes"/>
      <point x="442.8130784640955" y="1241.558221545072"/>
      <point x="235.43528828213596" y="1098.6512542519615"/>
    </contour>
  </outline>
</glyph>
<glyph name="T" format="2">
  <advance width="926"/>
  <unicode hex="0054"/>
  <outline>
    <contour>
      <point x="327.33573761173926" y="1221.0" type="line" smooth="yes"/>
      <point x="280.72915897250346" y="1218.698934699992"/>
      <point x="243.85465886121364" y="1178.7124745136946"/>
      <point x="233.1211198875234" y="1120.9040380406757" type="curve" smooth="yes"/>
      <point x="223.4390516863648" y="1062.514171745426"/>
      <point x="253.6979558373367" y="1011.9870902306303"/>
      <point x="301.9446523897203" y="1009.0" type="curve" smooth="yes"/>
      <point x="523.8590408789289" y="1009.0" type="line" smooth="yes"/>
      <point x="533.7926657149898" y="1012.7419047315406"/>
      <point x="535.2587534132285" y="1010.8596957497805"/>
      <point x="529.9118822025075" y="1000.9040380406757" type="curve" smooth="yes"/>
      <point x="364.1645203365505" y="60.90403804067563" type="line" smooth="yes"/>
      <point x="355.70768083441453" y="5.596908305787331"/>
      <point x="395.3567741195688" y="-42.833395738832294"/>
      <point x="460.1867301929153" y="-44.0" type="curve" smooth="yes"/>
      <point x="462.1867301929153" y="-44.0" type="line" smooth="yes"/>
      <point x="526.2972564526805" y="-43.018470040110294"/>
      <point x="570.5044971235073" y="-5.036045769882536"/>
      <point x="581.1314475413807" y="49.09596195932437" type="curve" smooth="yes"/>
      <point x="746.8788094073378" y="989.0959619593243" type="line" smooth="yes"/>
      <point x="746.4360171303206" y="1001.9841893375693"/>
      <point x="757.9559928275673" y="1011.8110447122663"/>
      <point x="769.859040878929" y="1009.0" type="curve" smooth="yes"/>
      <point x="991.7734293681377" y="1009.0" type="line" smooth="yes"/>
      <point x="1038.3800080073734" y="1011.3010653000081"/>
      <point x="1075.2545081186634" y="1051.2875254863054"/>
      <point x="1085.9880470923536" y="1109.0959619593243" type="curve" smooth="yes"/>
      <point x="1095.6701152935123" y="1167.485828254574"/>
      <point x="1065.4112111425402" y="1218.0129097693698"/>
      <point x="1017.1645145901566" y="1221.0" type="curve" smooth="yes"/>
    </contour>
  </outline>
</glyph>
<glyph name="U" format="2">
  <advance width="1046"/>
  <unicode hex="0055"/>
  <outline>
    <contour>
      <point x="1097.0633959080326" y="1231.0" type="line" smooth="yes"/>
      <point x="1032.9528696482676" y="1230.0184700401103"/>
      <point x="988.7456289774407" y="1192.0360457698825"/>
      <point x="978.1186785595672" y="1137.9040380406757" type="curve" smooth="yes"/>
      <point x="854.8661190443503" y="438.90403804067563" type="line" smooth="yes"/>
      <point x="821.5683221658975" y="240.8010763286615"/>
      <point x="716.765421731343" y="158.35367583485208"/>
      <point x="545.2171995692665" y="160.0" type="curve" smooth="yes"/>
      <point x="374.863146962673" y="157.94326078079712"/>
      <point x="307.18037284257457" y="230.77011329680084"/>
      <point x="343.83304624918037" y="427.09596195932437" type="curve" smooth="yes"/>
      <point x="467.0856057643974" y="1126.0959619593243" type="line" smooth="yes"/>
      <point x="475.5424452665334" y="1181.4030916942127"/>
      <point x="435.8933519813791" y="1229.8333957388322"/>
      <point x="371.0633959080326" y="1231.0" type="curve" smooth="yes"/>
      <point x="369.0633959080326" y="1231.0" type="line" smooth="yes"/>
      <point x="304.95286964826755" y="1230.0184700401103"/>
      <point x="260.7456289774407" y="1192.0360457698825"/>
      <point x="250.11867855956726" y="1137.9040380406757" type="curve" smooth="yes"/>
      <point x="123.33957943018098" y="418.90403804067563" type="line" smooth="yes"/>
      <point x="73.47273404980209" y="120.21664069515877"/>
      <point x="247.5028097681281" y="-53.953437275112265"/>
      <point x="519.1208064244138" y="-56.0" type="curve" smooth="yes"/>
      <point x="789.5497785607934" y="-54.36103428783789"/>
      <point x="1013.8809193521573" y="110.77033313121726"/>
      <point x="1068.306506635011" y="407.09596195932437" type="curve" smooth="yes"/>
      <point x="1195.0856057643973" y="1126.0959619593243" type="line" smooth="yes"/>
      <point x="1203.5424452665334" y="1181.4030916942127"/>
      <point x="1163.893351981379" y="1229.8333957388322"/>
      <point x="1099.0633959080326" y="1231.0" type="curve" smooth="yes"/>
    </contour>
  </outline>
</glyph>
<glyph name="V" format="2">
  <advance width="1134"/>
  <unicode hex="0056"/>
  <outline>
    <contour>
      <point x="1100.9585670508457" y="1167.3504226978694" type="curve" smooth="yes"/>
      <point x="582.4755980256381" y="222.72364556816683" type="line" smooth="yes"/>
      <point x="583.5298701266081" y="219.65590647653582"/>
      <point x="622.4781562106706" y="215.5754678740351"/>
      <point x="627.4911675381716" y="212.9108404856365" type="curve" smooth="yes"/>
      <point x="442.1352904075628" y="1157.5339605105014" type="line" smooth="yes"/>
      <point x="430.2454793053449" y="1211.5177709825546"/>
      <point x="375.0703546257997" y="1240.9025035000677"/>
      <point x="311.17745825266957" y="1221.4048577472722" type="curve" smooth="yes"/>
      <point x="247.75123274193012" y="1200.7032814782938"/>
      <point x="212.3570303431033" y="1151.4563392012685"/>
      <point x="221.9687019790863" y="1096.316518107933" type="curve" smooth="yes"/>
      <point x="434.0613455580169" y="36.320294420549565" type="line" smooth="yes"/>
      <point x="447.8654471143971" y="-21.340016630920054"/>
      <point x="498.9586160294287" y="-55.27604905150682"/>
      <point x="562.9374812324336" y="-56.0" type="curve" smooth="yes"/>
      <point x="626.4540128874656" y="-55.369669090192744"/>
      <point x="679.8160802844305" y="-27.35973321468341"/>
      <point x="711.1520439584694" y="26.54580282294191" type="curve" smooth="yes"/>
      <point x="1297.0571587743957" y="1086.543118336141" type="line" smooth="yes"/>
      <point x="1325.2665326650026" y="1139.6806186917222"/>
      <point x="1301.664331053783" y="1198.9437124400906"/>
      <point x="1242.919778267373" y="1221.0139046994332" type="curve" smooth="yes"/>
      <point x="1184.2866621377473" y="1240.8970920705854"/>
      <point x="1129.3616762170923" y="1217.8623162255503"/>
    </contour>
  </outline>
</glyph>
<glyph name="W" format="2">
  <advance width="1195"/>
  <unicode hex="0057"/>
  <outline>
    <contour>
      <point x="1158.7378291080051" y="1148.8737150210766" type="curve" smooth="yes"/>
      <point x="902.8061398371415" y="284.6429287095709" type="line"/>
      <point x="853.9175582022478" y="850.8946671769338" type="line" smooth="yes"/>
      <point x="845.5086560347336" y="887.9185988478923"/>
      <point x="804.9137987468417" y="918.1786183725615"/>
      <point x="753.4855228440545" y="919.0" type="curve" smooth="yes"/>
      <point x="702.5775410098103" y="918.2908363814691"/>
      <point x="661.0740697324635" y="894.1052584424922"/>
      <point x="642.3747179827999" y="860.8912910040796" type="curve" smooth="yes"/>
      <point x="387.0912757197567" y="280.8655858661715" type="line"/>
      <point x="439.2315465972244" y="1137.3301760051554" type="line" smooth="yes"/>
      <point x="440.6481631283049" y="1193.8211097285373"/>
      <point x="394.9201238407523" y="1235.6956666358678"/>
      <point x="329.48071149605227" y="1229.7821724538703" type="curve" smooth="yes"/>
      <point x="265.06325457075394" y="1221.1626272564804"/>
      <point x="222.37707958012987" y="1179.9592924734109"/>
      <point x="219.2992603505303" y="1123.2837217828933" type="curve" smooth="yes"/>
      <point x="178.04276407500387" y="44.29205572811718" type="line" smooth="yes"/>
      <point x="178.40981540903138" y="-17.57685067152554"/>
      <point x="228.56833682617972" y="-55.274002872461544"/>
      <point x="286.5569513414768" y="-56.0" type="curve" smooth="yes"/>
      <point x="345.13081140890415" y="-55.145688161192695"/>
      <point x="398.9785777880579" y="-25.15674095391393"/>
      <point x="428.0629865002237" y="27.084249629273717" type="curve" smooth="yes"/>
      <point x="708.3458157826874" y="595.0" type="line"/>
      <point x="778.5390634294035" y="37.0715032398338" type="line" smooth="yes"/>
      <point x="790.6407808310245" y="-19.00372960610413"/>
      <point x="841.3564259257408" y="-54.99623285931092"/>
      <point x="900.5569513414767" y="-56.0" type="curve" smooth="yes"/>
      <point x="958.082006564754" y="-55.368003451408086"/>
      <point x="1010.0385415249791" y="-25.771306686327378"/>
      <point x="1030.4508437967188" y="32.795885812132774" type="curve" smooth="yes"/>
      <point x="1369.705374521324" y="1111.7886372761193" type="line" smooth="yes"/>
      <point x="1386.5598769376359" y="1168.5870026802193"/>
      <point x="1350.4413631188706" y="1220.6767623347343"/>
      <point x="1287.3241084347496" y="1229.763780038331" type="curve" smooth="yes"/>
      <point x="1224.0446407392087" y="1235.7223140410836"/>
      <point x="1176.2643011896084" y="1203.2558775534703"/>
    </contour>
  </outline>
</glyph>
<glyph name="X" format="2">
  <advance width="1049"/>
  <unicode hex="0058"/>
  <outline>
    <contour>
      <point x="1001.135259269421" y="1193.8547359400293" type="curve" smooth="yes"/>
      <point x="653.0446243349484" y="758.7474975585938" type="line"/>
      <point x="465.71933878549663" y="1186.9465056104002" type="line" smooth="yes"/>
      <point x="435.8142242248386" y="1237.9288103612055"/>
      <point x="376.56448991301687" y="1242.69859822797"/>
      <point x="317.6594306871278" y="1218.3472337539622" type="curve" smooth="yes"/>
      <point x="260.9815733660219" y="1193.3921376114072"/>
      <point x="230.24464628376973" y="1135.998593892457"/>
      <point x="254.86875973120704" y="1082.504859244429" type="curve" smooth="yes"/>
      <point x="503.91407536916137" y="611.2943305074488" type="line"/>
      <point x="58.65152288622753" y="111.41250016244341" type="line" smooth="yes"/>
      <point x="18.72496215272643" y="61.94163272564727"/>
      <point x="32.02929961693493" y="-2.883070381096225"/>
      <point x="83.49026884381922" y="-30.494905682865294" type="curve" smooth="yes"/>
      <point x="134.79416915369072" y="-55.2804160903842"/>
      <point x="191.73958126382522" y="-54.076779251577534"/>
      <point x="234.08710190041927" y="-7.007480655614934" type="curve" smooth="yes"/>
      <point x="608.5828146059292" y="452.63836669921875" type="line"/>
      <point x="815.7769834928243" y="-0.2392515869987264" type="line" smooth="yes"/>
      <point x="844.3607445945652" y="-51.92881036120559"/>
      <point x="905.0214965793152" y="-55.63081582316669"/>
      <point x="963.6918651129845" y="-31.34723375396215" type="curve" smooth="yes"/>
      <point x="1020.599167915388" y="-6.2219380364635235"/>
      <point x="1051.2829764970509" y="52.00140610754313"/>
      <point x="1026.2652214282364" y="104.91243905660633" type="curve" smooth="yes"/>
      <point x="757.5115016655697" y="598.919771726447" type="line"/>
      <point x="1176.836775923057" y="1075.7447570872505" type="line" smooth="yes"/>
      <point x="1217.6263336473858" y="1125.0583672743528"/>
      <point x="1203.0763269148642" y="1190.1294565476626"/>
      <point x="1151.861026956293" y="1217.4949056828652" type="curve" smooth="yes"/>
      <point x="1100.148174509456" y="1242.412804281344"/>
      <point x="1043.4353875555785" y="1240.0767792515776"/>
    </contour>
  </outline>
</glyph>
<glyph name="Y" format="2">
  <advance width="910"/>
  <unicode hex="0059"/>
  <outline>
    <contour>
      <point x="913.2655308885546" y="1191.6099727697654" type="curve" smooth="yes"/>
      <point x="571.2837841346427" y="708.0475967776996" type="line" smooth="yes"/>
      <point x="565.5214402563436" y="695.017380242748"/>
      <point x="582.7314118003875" y="692.8743297613628"/>
      <point x="586.0386855260476" y="699.7859664169534" type="curve" smooth="yes"/>
      <point x="414.235053506831" y="1183.3061313544206" type="line" smooth="yes"/>
      <point x="397.94814993405527" y="1226.790820087887"/>
      <point x="341.2225989261919" y="1242.7259843643624"/>
      <point x="291.7529444143963" y="1216.8889321444883" type="curve" smooth="yes"/>
      <point x="240.49458100811438" y="1187.79088877161"/>
      <point x="219.6515459594093" y="1134.5861074493969"/>
      <point x="234.2329327876543" y="1085.4400114719945" type="curve" smooth="yes"/>
      <point x="419.4396574717915" y="519.0507828806913" type="line" smooth="yes"/>
      <point x="425.57988124120556" y="501.73660083838024"/>
      <point x="427.81077474658287" y="465.1173445441895"/>
      <point x="423.8287023449733" y="444.6466833043475" type="curve" smooth="yes"/>
      <point x="356.16452033655054" y="60.90403804067563" type="line" smooth="yes"/>
      <point x="347.7076808344146" y="5.596908305787331"/>
      <point x="387.35677411956885" y="-42.833395738832294"/>
      <point x="452.1867301929154" y="-44.0" type="curve" smooth="yes"/>
      <point x="454.1867301929154" y="-44.0" type="line" smooth="yes"/>
      <point x="518.2972564526805" y="-43.018470040110294"/>
      <point x="562.5044971235073" y="-5.036045769882557"/>
      <point x="573.1314475413807" y="49.09596195932437" type="curve" smooth="yes"/>
      <point x="640.9209278208544" y="433.54920902963687" type="line" smooth="yes"/>
      <point x="644.2555150175283" y="454.3755064610873"/>
      <point x="659.9371907092958" y="492.23765692080286"/>
      <point x="673.1720972316053" y="511.19539803449834" type="curve" smooth="yes"/>
      <point x="1057.9734465863226" y="1076.882422773045" type="line" smooth="yes"/>
      <point x="1088.5230289279104" y="1123.528976558812"/>
      <point x="1083.9603054601027" y="1182.7345604767752"/>
      <point x="1039.4739368236092" y="1215.2406683348404" type="curve" smooth="yes"/>
      <point x="996.4442321975774" y="1242.4100539678261"/>
      <point x="941.8677400256258" y="1231.0077242342659"/>
    </contour>
  </outline>
</glyph>
<glyph name="Z" format="2">
  <advance width="1000"/>
  <unicode hex="005A"/>
  <outline>
    <contour>
      <point x="352.3001261009479" y="1221.0" type="line" smooth="yes"/>
      <point x="297.51142354977844" y="1219.5604254020848"/>
      <point x="254.4972952191812" y="1180.3339268238733"/>
      <point x="243.1211198875234" y="1120.9040380406757" type="curve" smooth="yes"/>
      <point x="233.52747770215245" y="1060.5018876889433"/>
      <point x="271.0717406724422" y="1010.7734127740079"/>
      <point x="326.909040878929" y="1009.0" type="curve" smooth="yes"/>
      <point x="859.4796885575396" y="1051.4567760854143" type="line"/>
      <point x="61.836025488492325" y="133.21811060615232" type="line" smooth="yes"/>
      <point x="50.07773894721642" y="119.1596255417252"/>
      <point x="37.275524444929346" y="97.79480613582514"/>
      <point x="32.50677108576055" y="73.90403804067563" type="curve" smooth="yes"/>
      <point x="23.30589693025358" y="15.00678435579805"/>
      <point x="62.2041297355238" y="-32.55826969851977"/>
      <point x="117.0" y="-34.0" type="curve" smooth="yes"/>
      <point x="883.0" y="-34.0" type="line" smooth="yes"/>
      <point x="937.7887025511694" y="-32.56042540208479"/>
      <point x="980.8028308817668" y="6.666073176126652"/>
      <point x="992.1790062134246" y="66.09596195932438" type="curve" smooth="yes"/>
      <point x="1001.7726483987955" y="126.49811231105669"/>
      <point x="964.2283854285057" y="176.22658722599218"/>
      <point x="908.391085222019" y="178.0" type="curve" smooth="yes"/>
      <point x="333.14021511948704" y="136.89399120030853" type="line"/>
      <point x="1134.1610133444974" y="1057.7721685670585" type="line" smooth="yes"/>
      <point x="1146.2080109593808" y="1072.2707318216749"/>
      <point x="1155.231346323276" y="1093.839406455162"/>
      <point x="1158.7933550151872" y="1113.0959619593243" type="curve" smooth="yes"/>
      <point x="1167.9942291706943" y="1171.9932156442019"/>
      <point x="1129.095996365424" y="1219.5582696985198"/>
      <point x="1074.3001261009479" y="1221.0" type="curve" smooth="yes"/>
    </contour>
  </outline>
</glyph>
<glyph name="bracketleft" format="2">
  <advance width="681"/>
  <unicode hex="005B"/>
  <outline>
    <contour>
      <point x="385.9206175320139" y="1406.0" type="line" smooth="yes"/>
      <point x="331.9965117178033" y="1404.8079309834798"/>
      <point x="288.63787702615235" y="1367.7200273224285"/>
      <point x="277.4469192414232" y="1309.9040380406757" type="curve" smooth="yes"/>
      <point x="0.7898865098417076" y="-259.09596195932437" type="line" smooth="yes"/>
      <point x="-8.410987645665251" y="-317.99321564420194"/>
      <point x="30.48724515960496" y="-365.5582696985198"/>
      <point x="85.28311542408116" y="-367.0" type="curve" smooth="yes"/>
      <point x="499.2831154240812" y="-367.0" type="line" smooth="yes"/>
      <point x="554.0718179752507" y="-365.5604254020848"/>
      <point x="597.0859463058479" y="-326.33392682387336"/>
      <point x="608.4621216375058" y="-266.90403804067563" type="curve" smooth="yes"/>
      <point x="618.0557638228767" y="-206.50188768894324"/>
      <point x="580.5115008525868" y="-156.77341277400782"/>
      <point x="524.6742006461001" y="-155.0" type="curve" smooth="yes"/>
      <point x="231.62392508349214" y="-187.1517006126854" type="line"/>
      <point x="479.0200955631822" y="1215.1803110023288" type="line"/>
      <point x="774.5295323099949" y="1194.0" type="line" smooth="yes"/>
      <point x="829.3182348611643" y="1195.4395745979152"/>
      <point x="872.3323631917617" y="1234.6660731761267"/>
      <point x="883.7085385234196" y="1294.0959619593243" type="curve" smooth="yes"/>
      <point x="893.3021807087905" y="1354.4981123110567"/>
      <point x="855.7579177385006" y="1404.2265872259923"/>
      <point x="799.9206175320139" y="1406.0" type="curve" smooth="yes"/>
    </contour>
  </outline>
</glyph>
<glyph name="backslash" format="2">
  <advance width="1017"/>
  <unicode hex="005C"/>
  <outline>
    <contour>
      <point x="295.7544569335604" y="1316.3014096423817" type="curve" smooth="yes"/>
      <point x="678.0525974494005" y="-326.71307191599504" type="line" smooth="yes"/>
      <point x="689.1371154245601" y="-360.230659578487"/>
      <point x="728.616526102189" y="-387.73111038095425"/>
      <point x="769.8183961963485" y="-389.0" type="curve" smooth="yes"/>
      <point x="841.7425020105592" y="-387.80793098347976"/>
      <point x="909.9277637289018" y="-341.3338285177372"/>
      <point x="904.2782247182419" y="-277.3014096423817" type="curve" smooth="yes"/>
      <point x="521.9800842024017" y="1365.713071915995" type="line" smooth="yes"/>
      <point x="510.8955662272422" y="1399.2306595784871"/>
      <point x="471.4161555496133" y="1426.7311103809543"/>
      <point x="430.21428545545376" y="1428.0" type="curve" smooth="yes"/>
      <point x="358.2901796412431" y="1426.8079309834798"/>
      <point x="290.10491792290054" y="1380.3338285177372"/>
    </contour>
  </outline>
</glyph>
<glyph name="bracketright" format="2">
  <advance width="681"/>
  <unicode hex="005D"/>
  <outline>
    <contour>
      <point x="110.67420064610012" y="-155.0" type="line" smooth="yes"/>
      <point x="55.88549809493065" y="-156.43957459791523"/>
      <point x="12.871369764333398" y="-195.66607317612664"/>
      <point x="1.4951944326755608" y="-255.09596195932437" type="curve" smooth="yes"/>
      <point x="-8.09844775269535" y="-315.49811231105673"/>
      <point x="29.445815217594426" y="-365.2265872259922"/>
      <point x="85.28311542408116" y="-367.0" type="curve" smooth="yes"/>
      <point x="499.2831154240812" y="-367.0" type="line" smooth="yes"/>
      <point x="553.2072212382918" y="-365.80793098347976"/>
      <point x="596.5658559299427" y="-328.72002732242845"/>
      <point x="607.7568137146719" y="-270.90403804067563" type="curve" smooth="yes"/>
      <point x="884.4138464462534" y="1298.0959619593243" type="line" smooth="yes"/>
      <point x="893.6147206017604" y="1356.9932156442019"/>
      <point x="854.7164877964901" y="1404.5582696985198"/>
      <point x="799.9206175320139" y="1406.0" type="curve" smooth="yes"/>
      <point x="385.9206175320139" y="1406.0" type="line" smooth="yes"/>
      <point x="331.13191498084444" y="1404.5604254020848"/>
      <point x="288.1177866502472" y="1365.3339268238733"/>
      <point x="276.74161131858943" y="1305.9040380406757" type="curve" smooth="yes"/>
      <point x="267.14796913321845" y="1245.5018876889433"/>
      <point x="304.6922321035082" y="1195.7734127740077"/>
      <point x="360.529532309995" y="1194.0" type="curve" smooth="yes"/>
      <point x="653.5798078726029" y="1226.1517006126853" type="line"/>
      <point x="406.1836373929129" y="-176.18031100232872" type="line"/>
    </contour>
  </outline>
</glyph>
<glyph name="asciicircum" format="2">
  <advance width="903"/>
  <unicode hex="005E"/>
  <outline>
    <contour>
      <point x="562.5082005987502" y="1191.4654935103424" type="curve" smooth="yes"/>
      <point x="150.2943592304926" y="600.4589102807241" type="line" smooth="yes"/>
      <point x="120.19433156062502" y="547.978318651531"/>
      <point x="157.39810898365545" y="491.8186314245215"/>
      <point x="199.5781094765964" y="476.7951474566699" type="curve" smooth="yes"/>
      <point x="240.48694662025156" y="463.22176443946785"/>
      <point x="303.4559946499876" y="469.2767864594304"/>
      <point x="335.8808271615038" y="508.0466341185121" type="curve" smooth="yes"/>
      <point x="641.9142683906191" y="964.7604616820769" type="line" smooth="yes"/>
      <point x="640.4162906438332" y="967.4956604511053"/>
      <point x="610.9287510544375" y="969.984911821093"/>
      <point x="604.2842048326733" y="973.40030997956" type="curve" smooth="yes"/>
      <point x="749.2505157553894" y="516.7027795745064" type="line" smooth="yes"/>
      <point x="774.1443338568132" y="469.3122690057527"/>
      <point x="841.5042545023898" y="462.27513825319306"/>
      <point x="887.8479585169285" y="477.89480509851313" type="curve" smooth="yes"/>
      <point x="928.9908727125043" y="492.68254540778497"/>
      <point x="973.814252943506" y="537.875796291559"/>
      <point x="962.3212333292174" y="592.0744538238246" type="curve" smooth="yes"/>
      <point x="758.5194001534045" y="1183.1065601461535" type="line" smooth="yes"/>
      <point x="746.6751917192987" y="1213.6519218313156"/>
      <point x="712.0505878789547" y="1242.0107543418842"/>
      <point x="664.9087147664719" y="1243.0" type="curve" smooth="yes"/>
      <point x="618.3851355788913" y="1242.1571373343388"/>
      <point x="583.0906523065225" y="1219.5474958313907"/>
    </contour>
  </outline>
</glyph>
<glyph name="a" format="2">
  <advance width="1013"/>
  <unicode hex="0061"/>
  <outline>
    <contour>
      <point x="319.98389875019535" y="885.6215542269682" type="curve" smooth="yes"/>
      <point x="275.5640760301735" y="862.904610264227"/>
      <point x="244.38140076616227" y="809.410092076327"/>
      <point x="259.63611430100957" y="751.1724389914834" type="curve" smooth="yes"/>
      <point x="277.80802904468993" y="696.1043208799202"/>
      <point x="334.58543051871015" y="669.1940717314872"/>
      <point x="385.74506778939275" y="691.2173200381488" type="curve" smooth="yes"/>
      <point x="487.30474021015834" y="738.9527415926012"/>
      <point x="598.8463652224164" y="767.3137690632216"/>
      <point x="695.2379115474805" y="767.0" type="curve" smooth="yes"/>
      <point x="849.2699301761602" y="768.2040351548601"/>
      <point x="881.1963864381006" y="734.974983071636"/>
      <point x="858.604975571874" y="618.9040380406757" type="curve" smooth="yes"/>
      <point x="849.9489146927359" y="569.8130773473163" type="line" smooth="yes"/>
      <point x="852.2729256299194" y="564.5896356213508"/>
      <point x="857.4284312494608" y="567.4859094774789"/>
      <point x="857.4431349910557" y="571.913353525614" type="curve" smooth="yes"/>
      <point x="797.3037992901523" y="593.957720205658"/>
      <point x="693.2534772820912" y="612.8718165037897"/>
      <point x="582.0933218302013" y="613.0" type="curve" smooth="yes"/>
      <point x="356.28664554918447" y="612.3116970147942"/>
      <point x="139.1054139793035" y="514.6638287229223"/>
      <point x="93.12482118887047" y="275.90403804067563" type="curve" smooth="yes"/>
      <point x="61.2734926026337" y="74.13692428827392"/>
      <point x="204.46888035405814" y="-54.28833335729298"/>
      <point x="415.1208064244138" y="-56.0" type="curve" smooth="yes"/>
      <point x="566.1092317729363" y="-55.35336987720192"/>
      <point x="712.4252152403329" y="3.772732435450866"/>
      <point x="811.125099838972" y="77.3983136837382" type="curve" smooth="yes"/>
      <point x="811.7152750192498" y="81.43981270034209"/>
      <point x="781.155331317473" y="99.02333963359504"/>
      <point x="777.2076382750321" y="100.56398066762877" type="curve" smooth="yes"/>
      <point x="770.2145203365504" y="60.90403804067562" type="line" smooth="yes"/>
      <point x="761.669529391999" y="6.631653335862342"/>
      <point x="798.7845392726896" y="-42.65970126635576"/>
      <point x="861.2367301929154" y="-44.0" type="curve" smooth="yes"/>
      <point x="863.2367301929154" y="-44.0" type="line" smooth="yes"/>
      <point x="924.8726977226333" y="-42.88495195109242"/>
      <point x="966.9065248223757" y="-4.231922898651778"/>
      <point x="977.1814475413806" y="49.09596195932437" type="curve" smooth="yes"/>
      <point x="1075.571902776704" y="607.0959619593243" type="line" smooth="yes"/>
      <point x="1114.049879282577" y="838.6374341956939"/>
      <point x="986.176974929038" y="978.3794510735539"/>
      <point x="724.8053237502079" y="980.0" type="curve" smooth="yes"/>
      <point x="591.7689470181929" y="979.7595566155311"/>
      <point x="445.9710571018633" y="946.1051949014868"/>
    </contour>
    <contour>
      <point x="808.6816090021172" y="335.7745568395037" type="line" smooth="yes"/>
      <point x="806.5707434329855" y="318.9338414168508"/>
      <point x="789.5100911534436" y="289.5811189157446"/>
      <point x="774.3632972369131" y="277.2426361308788" type="curve" smooth="yes"/>
      <point x="700.0977600638614" y="211.743930059216"/>
      <point x="580.8143528357092" y="152.09671619808626"/>
      <point x="445.98291070430736" y="153.0" type="curve" smooth="yes"/>
      <point x="335.1471355682465" y="151.44516193387364"/>
      <point x="296.7340065512418" y="185.31021213967693"/>
      <point x="314.620729335826" y="267.09596195932437" type="curve" smooth="yes"/>
      <point x="328.9365666274469" y="372.65355615475164"/>
      <point x="419.99580331649395" y="404.4922464055813"/>
      <point x="558.2312175503076" y="404.0" type="curve" smooth="yes"/>
      <point x="658.4703690639541" y="404.092454151496"/>
      <point x="759.4476948555382" y="389.34054809518295"/>
      <point x="805.709430165703" y="373.1207454630711" type="curve" smooth="yes"/>
      <point x="812.5978440149938" y="374.04695026349987"/>
      <point x="816.62714532699" y="366.47695201810603"/>
      <point x="812.5908047880483" y="357.9447078295814" type="curve" smooth="yes"/>
    </contour>
  </outline>
</glyph>
<glyph name="b" format="2">
  <advance width="1033"/>
  <unicode hex="0062"/>
  <outline>
    <contour>
      <point x="375.1042684965907" y="1356.0" type="line" smooth="yes"/>
      <point x="310.99374223682565" y="1355.0184700401103"/>
      <point x="266.7865015659988" y="1317.0360457698825"/>
      <point x="256.1595511481254" y="1262.9040380406757" type="curve" smooth="yes"/>
      <point x="44.21452033655051" y="60.90403804067563" type="line" smooth="yes"/>
      <point x="35.66952939199903" y="6.631653335862387"/>
      <point x="72.7845392726895" y="-42.65970126635576"/>
      <point x="135.23673019291536" y="-44.0" type="curve" smooth="yes"/>
      <point x="137.23673019291536" y="-44.0" type="line" smooth="yes"/>
      <point x="198.8726977226333" y="-42.88495195109242"/>
      <point x="240.90652482237564" y="-4.231922898651799"/>
      <point x="251.18144754138063" y="49.09596195932436" type="curve" smooth="yes"/>
      <point x="260.69252488079525" y="103.03596195932435" type="line" smooth="yes"/>
      <point x="259.5962413705646" y="111.47064396720359"/>
      <point x="225.4752360004232" y="104.11110230557198"/>
      <point x="223.1061994704871" y="99.71939962692994" type="curve" smooth="yes"/>
      <point x="273.762999887987" y="16.39659018804685"/>
      <point x="389.2778817462147" y="-54.829905317190565"/>
      <point x="531.1208064244138" y="-56.0" type="curve" smooth="yes"/>
      <point x="790.5805036157977" y="-53.63472689780994"/>
      <point x="1022.9479103335282" y="143.51380929534915"/>
      <point x="1079.9465286897257" y="456.09596195932437" type="curve" smooth="yes"/>
      <point x="1133.0421493556844" y="770.7247314576542"/>
      <point x="962.9475167672217" y="976.9192234163396"/>
      <point x="701.8053237502079" y="980.0" type="curve" smooth="yes"/>
      <point x="560.4375538266588" y="978.9542171278055"/>
      <point x="433.83789670651095" y="910.5975901102736"/>
      <point x="367.4744569615419" y="842.323220195702" type="curve" smooth="yes"/>
      <point x="358.28165367668373" y="829.5127312100691"/>
      <point x="392.39633658920616" y="812.8471051085304"/>
      <point x="397.65853060973257" y="823.0959619593243" type="curve" smooth="yes"/>
      <point x="473.1264783529556" y="1251.0959619593243" type="line" smooth="yes"/>
      <point x="481.5833178550915" y="1306.4030916942127"/>
      <point x="441.9342245699372" y="1354.8333957388322"/>
      <point x="377.1042684965907" y="1356.0" type="curve" smooth="yes"/>
    </contour>
    <contour>
      <point x="858.9796014848957" y="467.90403804067563" type="curve" smooth="yes"/>
      <point x="827.3571624713477" y="280.93161822501753"/>
      <point x="714.2489215777624" y="156.99818075229678"/>
      <point x="547.2171995692665" y="160.0" type="curve" smooth="yes"/>
      <point x="383.7764681353626" y="157.1792597082176"/>
      <point x="295.35209264677053" y="257.0059959497896"/>
      <point x="332.94652868972594" y="456.09596195932437" type="curve" smooth="yes"/>
      <point x="366.4686859534978" y="657.3146533488577"/>
      <point x="500.7044233313519" y="766.1863527042158"/>
      <point x="665.708930605355" y="764.0" type="curve" smooth="yes"/>
      <point x="830.652490252093" y="768.0301697838953"/>
      <point x="893.3340684804084" y="653.4124556021073"/>
    </contour>
  </outline>
</glyph>
<glyph name="c" format="2">
  <advance width="1062"/>
  <unicode hex="0063"/>
  <outline>
    <contour>
      <point x="115.97960148489577" y="467.90403804067563" type="curve" smooth="yes"/>
      <point x="67.38853876947506" y="177.81408862441398"/>
      <point x="239.79388013465004" y="-52.834058816310204"/>
      <point x="546.1208064244138" y="-56.0" type="curve" smooth="yes"/>
      <point x="703.385351291441" y="-55.589947415008815"/>
      <point x="872.7900725498796" y="-3.9706362673306614"/>
      <point x="999.1118364798393" y="77.42273184077433" type="curve" smooth="yes"/>
      <point x="1045.6073374241992" y="108.52075897235596"/>
      <point x="1068.3758028236032" y="169.1930772585366"/>
      <point x="1046.110157372168" y="227.09714125064747" type="curve" smooth="yes"/>
      <point x="1015.3239955338743" y="289.77867652524554"/>
      <point x="946.1253929363199" y="289.67109250323364"/>
      <point x="908.7030145232291" y="265.13727571831276" type="curve" smooth="yes"/>
      <point x="805.323990865226" y="194.7087259182399"/>
      <point x="689.0615377992403" y="159.6068319202077"/>
      <point x="572.2171995692665" y="160.0" type="curve" smooth="yes"/>
      <point x="391.71359016354864" y="156.7547501979452"/>
      <point x="306.3694937962076" y="273.91109638838157"/>
      <point x="340.94652868972594" y="456.09596195932437" type="curve" smooth="yes"/>
      <point x="371.5087988044818" y="640.3817152312929"/>
      <point x="508.44948215978815" y="766.4773359931488"/>
      <point x="690.708930605355" y="764.0" type="curve" smooth="yes"/>
      <point x="798.1616844691883" y="764.3054521832223"/>
      <point x="890.1290177197942" y="738.7214675175711"/>
      <point x="971.5392356048808" y="674.3124640270629" type="curve" smooth="yes"/>
      <point x="1004.7194995150004" y="649.3258652928138"/>
      <point x="1070.8782576000115" y="650.0284682681886"/>
      <point x="1114.3755849750726" y="709.4727860423324" type="curve" smooth="yes"/>
      <point x="1152.9264501930206" y="765.2915011228042"/>
      <point x="1146.4656868658944" y="830.5641708980485"/>
      <point x="1105.4993981751995" y="863.4297320487599" type="curve" smooth="yes"/>
      <point x="1001.1288810752359" y="939.586714809701"/>
      <point x="863.4302530614048" y="979.6839728783057"/>
      <point x="716.8053237502079" y="980.0" type="curve" smooth="yes"/>
      <point x="412.19903690957847" y="977.5765978549268"/>
      <point x="168.75309610033844" y="755.8121153731715"/>
    </contour>
  </outline>
</glyph>
<glyph name="d" format="2">
  <advance width="1033"/>
  <unicode hex="0064"/>
  <outline>
    <contour>
      <point x="1122.1042684965907" y="1356.0" type="line" smooth="yes"/>
      <point x="1057.9937422368257" y="1355.0184700401103"/>
      <point x="1013.7865015659988" y="1317.0360457698825"/>
      <point x="1003.1595511481254" y="1262.9040380406757" type="curve" smooth="yes"/>
      <point x="927.6916034049024" y="834.9040380406756" type="line" smooth="yes"/>
      <point x="928.0079184696757" y="821.8186379326115"/>
      <point x="958.6332516839421" y="828.3592730138536"/>
      <point x="958.8002365064217" y="836.4321305380593" type="curve" smooth="yes"/>
      <point x="914.2973591201788" y="907.4746812093489"/>
      <point x="806.9391808386748" y="978.7501550330294"/>
      <point x="664.8053237502079" y="980.0" type="curve" smooth="yes"/>
      <point x="405.345626558824" y="977.63472689781"/>
      <point x="172.97821984109342" y="780.4861907046509"/>
      <point x="115.97960148489577" y="467.90403804067563" type="curve" smooth="yes"/>
      <point x="62.88398081893715" y="153.2752685423458"/>
      <point x="232.97861340739996" y="-52.91922341633965"/>
      <point x="494.1208064244138" y="-56.0" type="curve" smooth="yes"/>
      <point x="635.2423346938461" y="-55.01576560627985"/>
      <point x="769.9811678190003" y="13.325681339849098"/>
      <point x="846.6106887878175" y="93.67492744650625" type="curve" smooth="yes"/>
      <point x="852.235477536207" y="102.85532461575055"/>
      <point x="815.1158046790965" y="120.48426619974161"/>
      <point x="810.7255976759651" y="114.84403804067563" type="curve" smooth="yes"/>
      <point x="801.2145203365504" y="60.90403804067563" type="line" smooth="yes"/>
      <point x="792.669529391999" y="6.631653335862342"/>
      <point x="829.7845392726896" y="-42.65970126635576"/>
      <point x="892.2367301929154" y="-44.0" type="curve" smooth="yes"/>
      <point x="894.2367301929154" y="-44.0" type="line" smooth="yes"/>
      <point x="955.8726977226333" y="-42.88495195109242"/>
      <point x="997.9065248223757" y="-4.231922898651778"/>
      <point x="1008.1814475413806" y="49.09596195932437" type="curve" smooth="yes"/>
      <point x="1220.1264783529555" y="1251.0959619593243" type="line" smooth="yes"/>
      <point x="1228.5833178550915" y="1306.4030916942127"/>
      <point x="1188.9342245699372" y="1354.8333957388322"/>
      <point x="1124.1042684965907" y="1356.0" type="curve" smooth="yes"/>
    </contour>
    <contour>
      <point x="862.9796014848957" y="467.90403804067563" type="curve" smooth="yes"/>
      <point x="829.4574442211238" y="266.6853466511423"/>
      <point x="695.2217068432697" y="157.81364729578416"/>
      <point x="530.2171995692665" y="160.0" type="curve" smooth="yes"/>
      <point x="365.27363992252856" y="155.96983021610467"/>
      <point x="302.5920616942133" y="270.5875443978926"/>
      <point x="336.94652868972594" y="456.09596195932437" type="curve" smooth="yes"/>
      <point x="368.5689677032739" y="643.0683817749825"/>
      <point x="481.6772085968591" y="767.0018192477032"/>
      <point x="648.708930605355" y="764.0" type="curve" smooth="yes"/>
      <point x="812.149662039259" y="766.8207402917824"/>
      <point x="900.574037527851" y="666.9940040502104"/>
    </contour>
  </outline>
</glyph>
<glyph name="e" format="2">
  <advance width="1061"/>
  <unicode hex="0065"/>
  <outline>
    <contour>
      <point x="107.97960148489577" y="467.90403804067563" type="curve" smooth="yes"/>
      <point x="54.81802175555432" y="155.61359774678115"/>
      <point x="205.6135845270917" y="-53.20184219908343"/>
      <point x="511.1208064244138" y="-56.0" type="curve" smooth="yes"/>
      <point x="670.0806901258403" y="-55.76861443813141"/>
      <point x="836.9568469453866" y="-17.398516128782504"/>
      <point x="953.2814727614652" y="33.935525976351045" type="curve" smooth="yes"/>
      <point x="1005.3820356176071" y="58.57489076215185"/>
      <point x="1036.1939503329447" y="111.8034523850542"/>
      <point x="1026.971900112205" y="168.32274299059344" type="curve" smooth="yes"/>
      <point x="1014.8463013406882" y="225.01131541098084"/>
      <point x="956.7315325436554" y="265.0"/>
      <point x="896.2510215674694" y="239.20925181737778" type="curve" smooth="yes"/>
      <point x="800.0868880108521" y="188.0246910494034"/>
      <point x="666.6346479793323" y="156.75749642676755"/>
      <point x="536.6882186271412" y="157.0" type="curve" smooth="yes"/>
      <point x="363.58749109670487" y="154.8497616112756"/>
      <point x="296.4913489439047" y="233.88782473214863"/>
      <point x="316.6147470653426" y="372.7986374024579" type="curve" smooth="yes"/>
      <point x="315.28701597930194" y="385.0415798539986"/>
      <point x="325.2736980628395" y="393.91532887954594"/>
      <point x="336.93896680109765" y="391.0" type="curve" smooth="yes"/>
      <point x="1012.9389668010976" y="391.0" type="line" smooth="yes"/>
      <point x="1066.072825737071" y="391.98727004912064"/>
      <point x="1112.7469541909372" y="427.6223269537234"/>
      <point x="1120.63520692296" y="483.00068618969937" type="curve" smooth="yes"/>
      <point x="1152.1651755293758" y="759.4065476917834"/>
      <point x="1013.0870171982835" y="976.8550357681723"/>
      <point x="701.8053237502079" y="980.0" type="curve" smooth="yes"/>
      <point x="410.75148962702974" y="977.7915882417174"/>
      <point x="163.37957120032348" y="770.0866857308737"/>
    </contour>
    <contour>
      <point x="904.1386836175523" y="611.8334414085684" type="curve" smooth="yes"/>
      <point x="907.5983509555118" y="601.5831580948449"/>
      <point x="901.7481894454575" y="595.8388758357921"/>
      <point x="890.6247441002827" y="599.0" type="curve" smooth="yes"/>
      <point x="371.6247441002827" y="599.0" type="line" smooth="yes"/>
      <point x="362.8392598577139" y="594.6416447736201"/>
      <point x="366.3369207058203" y="589.7531497504997"/>
      <point x="373.95606044766873" y="599.1848787607657" type="curve" smooth="yes"/>
      <point x="407.97714860510797" y="689.4346246092574"/>
      <point x="520.0983751196462" y="768.4612345326073"/>
      <point x="676.2379115474805" y="767.0" type="curve" smooth="yes"/>
      <point x="841.5915451002016" y="768.7098330529207"/>
      <point x="906.1258981787463" y="700.9206563668803"/>
    </contour>
  </outline>
</glyph>
<glyph name="g" format="2">
  <advance width="1033"/>
  <unicode hex="0067"/>
  <outline>
    <contour>
      <point x="120.38777600260735" y="492.90403804067563" type="curve" smooth="yes"/>
      <point x="70.0760457277348" y="192.61982255636815"/>
      <point x="242.49690449694864" y="-3.2307485349707648"/>
      <point x="502.937155459837" y="-6.0" type="curve" smooth="yes"/>
      <point x="643.5516241692279" y="-5.136382818191066"/>
      <point x="770.0527977074661" y="56.848168634359396"/>
      <point x="835.2419330363516" y="122.7546036931807" type="curve" smooth="yes"/>
      <point x="844.4513925651007" y="135.4679702146051"/>
      <point x="810.7860755477284" y="152.0587606885656"/>
      <point x="805.4970057739362" y="141.90403804067563" type="curve" smooth="yes"/>
      <point x="778.518977725541" y="-11.095961959324367" type="line" smooth="yes"/>
      <point x="756.1604926741466" y="-147.85438300111565"/>
      <point x="669.0925623640302" y="-229.73080641541912"/>
      <point x="490.8023310543822" y="-228.0" type="curve" smooth="yes"/>
      <point x="386.4281675064713" y="-228.19388649929274"/>
      <point x="276.3574407544782" y="-205.30326036684633"/>
      <point x="184.4409560885871" y="-170.2103732379788" type="curve" smooth="yes"/>
      <point x="139.9511124610044" y="-156.00439657565443"/>
      <point x="84.81545078641146" y="-180.38719037313933"/>
      <point x="54.13720163452251" y="-237.48187753597344" type="curve" smooth="yes"/>
      <point x="25.326646988187306" y="-296.10200348000274"/>
      <point x="40.83584307612263" y="-356.6290261065652"/>
      <point x="86.6581063066923" y="-377.6844294730411" type="curve" smooth="yes"/>
      <point x="197.81488100618603" y="-420.8493943100453"/>
      <point x="335.81853863066107" y="-443.87717410594325"/>
      <point x="464.7059379095293" y="-444.0" type="curve" smooth="yes"/>
      <point x="745.8133615545536" y="-442.46290170733363"/>
      <point x="946.8577980612619" y="-286.2658680919344"/>
      <point x="993.1936541811612" y="-35.90403804067563" type="curve" smooth="yes"/>
      <point x="1151.7116098380711" y="863.0959619593243" type="line" smooth="yes"/>
      <point x="1160.2566007826226" y="917.3683466641377"/>
      <point x="1123.141590901932" y="966.6597012663558"/>
      <point x="1060.6893999817062" y="968.0" type="curve" smooth="yes"/>
      <point x="1058.6893999817062" y="968.0" type="line" smooth="yes"/>
      <point x="997.0534324519883" y="966.8849519510924"/>
      <point x="955.019605352246" y="928.2319228986519"/>
      <point x="944.7446826332409" y="874.9040380406756" type="curve" smooth="yes"/>
      <point x="935.2336052938264" y="820.9640380406755" type="line" smooth="yes"/>
      <point x="936.3298888040571" y="812.5293560327965"/>
      <point x="970.4508941741984" y="819.888897694428"/>
      <point x="972.8199307041344" y="824.2806003730701" type="curve" smooth="yes"/>
      <point x="922.1631302866347" y="907.6034098119532"/>
      <point x="806.648248428407" y="978.8299053171905"/>
      <point x="664.8053237502079" y="980.0" type="curve" smooth="yes"/>
      <point x="405.9049307224642" y="977.8493429411853"/>
      <point x="175.00252084331441" y="790.9484566153498"/>
    </contour>
    <contour>
      <point x="867.3877760026073" y="492.90403804067563" type="curve" smooth="yes"/>
      <point x="836.9072513467895" y="307.3709232080618"/>
      <point x="704.8440921810754" y="208.1060129094853"/>
      <point x="539.0335486046898" y="210.0" type="curve" smooth="yes"/>
      <point x="373.09601399901607" y="206.4815048225104"/>
      <point x="309.5222369173028" y="311.4140100779976"/>
      <point x="341.3547032074375" y="481.09596195932437" type="curve" smooth="yes"/>
      <point x="370.02636627936465" y="652.4582550107642"/>
      <point x="480.8966095937283" y="766.6617626070065"/>
      <point x="648.708930605355" y="764.0" type="curve" smooth="yes"/>
      <point x="813.1537880912936" y="766.4030318471597"/>
      <point x="902.5591235068465" y="676.0128491273756"/>
    </contour>
  </outline>
</glyph>
<glyph name="h" format="2">
  <advance width="1010"/>
  <unicode hex="0068"/>
  <outline>
    <contour>
      <point x="391.1042684965907" y="1356.0" type="line" smooth="yes"/>
      <point x="326.99374223682565" y="1355.0184700401103"/>
      <point x="282.7865015659988" y="1317.0360457698825"/>
      <point x="272.1595511481254" y="1262.9040380406757" type="curve" smooth="yes"/>
      <point x="60.21452033655051" y="60.90403804067563" type="line" smooth="yes"/>
      <point x="51.757680834414536" y="5.596908305787316"/>
      <point x="91.40677411956881" y="-42.833395738832294"/>
      <point x="156.23673019291536" y="-44.0" type="curve" smooth="yes"/>
      <point x="158.23673019291536" y="-44.0" type="line" smooth="yes"/>
      <point x="222.34725645268043" y="-43.018470040110294"/>
      <point x="266.55449712350725" y="-5.036045769882557"/>
      <point x="277.18144754138063" y="49.09596195932437" type="curve" smooth="yes"/>
      <point x="336.6036400401333" y="386.09596195932437" type="line" smooth="yes"/>
      <point x="371.9359724293811" y="601.6347544130078"/>
      <point x="577.7845992686644" y="767.0504353555541"/>
      <point x="734.708930605355" y="764.0" type="curve" smooth="yes"/>
      <point x="849.4084097780304" y="767.1536857296167"/>
      <point x="869.1184629325743" y="716.6743537585726"/>
      <point x="849.1943597262062" y="610.9040380406757" type="curve" smooth="yes"/>
      <point x="752.2145203365504" y="60.90403804067563" type="line" smooth="yes"/>
      <point x="743.7576808344146" y="5.596908305787272"/>
      <point x="783.4067741195688" y="-42.833395738832294"/>
      <point x="848.2367301929154" y="-44.0" type="curve" smooth="yes"/>
      <point x="850.2367301929154" y="-44.0" type="line" smooth="yes"/>
      <point x="914.3472564526804" y="-43.018470040110294"/>
      <point x="958.5544971235073" y="-5.036045769882536"/>
      <point x="969.1814475413806" y="49.09596195932438" type="curve" smooth="yes"/>
      <point x="1068.8061916416632" y="614.0959619593243" type="line" smooth="yes"/>
      <point x="1104.1055669008617" y="825.7079798104803"/>
      <point x="993.168514191106" y="977.2637992131521"/>
      <point x="775.8053237502079" y="980.0" type="curve" smooth="yes"/>
      <point x="630.9072150987071" y="978.5273338151636"/>
      <point x="456.22112802157767" y="882.0956170344693"/>
      <point x="369.1742729243898" y="781.8019345040665" type="curve" smooth="yes"/>
      <point x="360.12645364021625" y="768.1902324893853"/>
      <point x="397.86778374045605" y="751.0053488370496"/>
      <point x="402.9025847865162" y="762.0959619593243" type="curve" smooth="yes"/>
      <point x="489.1264783529556" y="1251.0959619593243" type="line" smooth="yes"/>
      <point x="497.5833178550915" y="1306.4030916942127"/>
      <point x="457.9342245699372" y="1354.8333957388322"/>
      <point x="393.1042684965907" y="1356.0" type="curve" smooth="yes"/>
    </contour>
  </outline>
</glyph>
<glyph name="k" format="2">
  <advance width="972"/>
  <unicode hex="006B"/>
  <outline>
    <contour>
      <point x="883.1889454372081" y="950.9438150447627" type="curve" smooth="yes"/>
      <point x="312.53815799022215" y="511.5182898396622" type="line" smooth="yes"/>
      <point x="303.05802349961067" y="500.64048540333005"/>
      <point x="328.0386009647881" y="485.9847085218939"/>
      <point x="333.7611134078112" y="494.74339237924625" type="curve" smooth="yes"/>
      <point x="467.1264783529556" y="1251.0959619593243" type="line" smooth="yes"/>
      <point x="475.5833178550915" y="1306.4030916942127"/>
      <point x="435.9342245699372" y="1354.8333957388322"/>
      <point x="371.1042684965907" y="1356.0" type="curve" smooth="yes"/>
      <point x="369.1042684965907" y="1356.0" type="line" smooth="yes"/>
      <point x="304.99374223682565" y="1355.0184700401103"/>
      <point x="260.7865015659988" y="1317.0360457698825"/>
      <point x="250.15955114812542" y="1262.9040380406757" type="curve" smooth="yes"/>
      <point x="38.21452033655051" y="60.90403804067563" type="line" smooth="yes"/>
      <point x="29.757680834414536" y="5.596908305787316"/>
      <point x="69.40677411956881" y="-42.833395738832294"/>
      <point x="134.23673019291536" y="-44.0" type="curve" smooth="yes"/>
      <point x="136.23673019291536" y="-44.0" type="line" smooth="yes"/>
      <point x="200.34725645268043" y="-43.018470040110294"/>
      <point x="244.55449712350725" y="-5.036045769882557"/>
      <point x="255.18144754138063" y="49.09596195932436" type="curve" smooth="yes"/>
      <point x="282.6102372633594" y="204.65235844369937" type="line" smooth="yes"/>
      <point x="284.6685876118324" y="222.15727032154254"/>
      <point x="303.18433198833355" y="251.58143433940327"/>
      <point x="319.8200863915837" y="263.21136695470295" type="curve" smooth="yes"/>
      <point x="444.9419517914291" y="358.500267475657" type="line" smooth="yes"/>
      <point x="455.5265695517283" y="369.5985824352661"/>
      <point x="464.1321216393449" y="369.57761848903374"/>
      <point x="464.48706134900607" y="361.6404761016695" type="curve" smooth="yes"/>
      <point x="741.0569218100042" y="-17.03212337824518" type="line" smooth="yes"/>
      <point x="772.2134399544708" y="-54.2332750256585"/>
      <point x="828.5670594864001" y="-54.015360232878336"/>
      <point x="884.5759489758675" y="-25.161042849994686" type="curve" smooth="yes"/>
      <point x="945.4323522380286" y="7.610497851643228"/>
      <point x="964.6686587012664" y="69.52955631947187"/>
      <point x="934.113139703455" y="115.18209026909324" type="curve" smooth="yes"/>
      <point x="649.4588941444259" y="501.0056390004096" type="line" smooth="yes"/>
      <point x="641.9596168808881" y="503.99993735101543"/>
      <point x="644.5932804091834" y="513.5103799542032"/>
      <point x="658.1903747797356" y="520.9036244373112" type="curve" smooth="yes"/>
      <point x="1032.4518349711404" y="805.9294434526737" type="line" smooth="yes"/>
      <point x="1081.465827199099" y="845.7441224465298"/>
      <point x="1076.2973087295259" y="916.2547498957484"/>
      <point x="1025.7605610035953" y="952.3066108064637" type="curve" smooth="yes"/>
      <point x="979.0087816581361" y="981.5945470199871"/>
      <point x="920.6664659421541" y="977.7592211981946"/>
    </contour>
  </outline>
</glyph>
<glyph name="l" format="2">
  <advance width="491"/>
  <unicode hex="006C"/>
  <outline>
    <contour>
      <point x="117.03746680096636" y="178.0" type="line" smooth="yes"/>
      <point x="81.31771557851204" y="167.5287830123428"/>
      <point x="64.7915246556889" y="131.88513063290242"/>
      <point x="55.2120790085944" y="77.90403804067563" type="curve" smooth="yes"/>
      <point x="45.746247578475106" y="23.858998572585328"/>
      <point x="51.3927855261462" y="-17.62080141736051"/>
      <point x="91.6463815789474" y="-34.0" type="curve" smooth="yes"/>
      <point x="399.1036184210526" y="-34.0" type="line" smooth="yes"/>
      <point x="434.8233696435069" y="-23.528783012342792"/>
      <point x="451.34956056633" y="12.114869367097583"/>
      <point x="460.9290062134246" y="66.09596195932436" type="curve" smooth="yes"/>
      <point x="470.39483764354384" y="120.14100142741468"/>
      <point x="464.74829969587273" y="161.62080141736052"/>
      <point x="424.49470364307155" y="178.0" type="curve" smooth="yes"/>
      <point x="378.5907836296181" y="140.48790715191595" type="line"/>
      <point x="572.2158065511139" y="1238.0959619593243" type="line" smooth="yes"/>
      <point x="581.4166807066209" y="1296.9932156442019"/>
      <point x="542.5184479013507" y="1344.5582696985198"/>
      <point x="487.72257763687446" y="1346.0" type="curve" smooth="yes"/>
      <point x="332.92159079476926" y="1346.0" type="line" smooth="yes"/>
      <point x="297.20183957231495" y="1335.5287830123427"/>
      <point x="280.6756486494918" y="1299.8851306329025"/>
      <point x="271.09620300239726" y="1245.9040380406757" type="curve" smooth="yes"/>
      <point x="261.630371572278" y="1191.8589985725853"/>
      <point x="267.2769095199491" y="1150.3791985826394"/>
      <point x="307.53050557275026" y="1134.0" type="curve" smooth="yes"/>
      <point x="341.53576722833145" y="1171.7214189655213" type="line"/>
      <point x="161.8052701750689" y="152.31570401249186" type="line"/>
    </contour>
  </outline>
</glyph>
<glyph name="m" format="2">
  <advance width="1140"/>
  <unicode hex="006D"/>
  <outline>
    <contour>
      <point x="762.2909438891468" y="798.9976375125746" type="curve"/>
      <point x="790.3432033960197" y="900.1241351106664"/>
      <point x="704.8729541809442" y="977.7863539240846"/>
      <point x="605.8053237502079" y="980.0" type="curve" smooth="yes"/>
      <point x="504.19746367269863" y="978.3028374075094"/>
      <point x="395.1229464353703" y="908.1229974936969"/>
      <point x="330.82957722614844" y="789.8812775596303" type="curve"/>
      <point x="392.7116098380711" y="863.0959619593243" type="line" smooth="yes"/>
      <point x="401.31328350164597" y="916.3269478360119"/>
      <point x="366.8536248456454" y="966.4451619338736"/>
      <point x="306.6893999817063" y="968.0" type="curve" smooth="yes"/>
      <point x="304.6893999817063" y="968.0" type="line" smooth="yes"/>
      <point x="245.4580503859885" y="966.7228083244951"/>
      <point x="205.6813098474974" y="927.4007577247372"/>
      <point x="195.74468263324098" y="874.9040380406757" type="curve" smooth="yes"/>
      <point x="52.21452033655051" y="60.90403804067563" type="line" smooth="yes"/>
      <point x="43.757680834414536" y="5.596908305787316"/>
      <point x="83.40677411956881" y="-42.833395738832294"/>
      <point x="148.23673019291536" y="-44.0" type="curve" smooth="yes"/>
      <point x="150.23673019291536" y="-44.0" type="line" smooth="yes"/>
      <point x="214.34725645268043" y="-43.018470040110294"/>
      <point x="258.55449712350725" y="-5.036045769882557"/>
      <point x="269.18144754138063" y="49.09596195932437" type="curve" smooth="yes"/>
      <point x="340.0648937861836" y="451.09596195932437" type="line" smooth="yes"/>
      <point x="373.6801142461515" y="646.1559474649837"/>
      <point x="465.2107352831291" y="770.1489746273149"/>
      <point x="540.708930605355" y="764.0" type="curve" smooth="yes"/>
      <point x="591.9302597279598" y="768.4284561852438"/>
      <point x="593.075255645462" y="748.343066089878"/>
      <point x="577.8923436651718" y="665.9040380406756" type="curve" smooth="yes"/>
      <point x="471.21452033655055" y="60.90403804067563" type="line" smooth="yes"/>
      <point x="462.75768083441454" y="5.596908305787331"/>
      <point x="502.4067741195688" y="-42.833395738832294"/>
      <point x="567.2367301929154" y="-44.0" type="curve" smooth="yes"/>
      <point x="569.2367301929154" y="-44.0" type="line" smooth="yes"/>
      <point x="633.3472564526804" y="-43.018470040110294"/>
      <point x="677.5544971235073" y="-5.036045769882536"/>
      <point x="688.1814475413806" y="49.09596195932437" type="curve" smooth="yes"/>
      <point x="759.0648937861836" y="451.09596195932437" type="line" smooth="yes"/>
      <point x="792.6801142461514" y="646.1559474649837"/>
      <point x="884.2107352831291" y="770.1489746273149"/>
      <point x="959.708930605355" y="764.0" type="curve" smooth="yes"/>
      <point x="1010.9302597279599" y="768.4284561852437"/>
      <point x="1012.0752556454621" y="748.3430660898781"/>
      <point x="996.8923436651718" y="665.9040380406757" type="curve" smooth="yes"/>
      <point x="890.2145203365504" y="60.90403804067563" type="line" smooth="yes"/>
      <point x="881.7576808344146" y="5.596908305787272"/>
      <point x="921.4067741195688" y="-42.833395738832294"/>
      <point x="986.2367301929154" y="-44.0" type="curve" smooth="yes"/>
      <point x="988.2367301929154" y="-44.0" type="line" smooth="yes"/>
      <point x="1052.3472564526803" y="-43.018470040110294"/>
      <point x="1096.5544971235072" y="-5.036045769882582"/>
      <point x="1107.1814475413805" y="49.09596195932436" type="curve" smooth="yes"/>
      <point x="1217.0331565227543" y="672.0959619593243" type="line" smooth="yes"/>
      <point x="1249.33281214956" y="866.7206545583986"/>
      <point x="1151.5682135616512" y="977.0899157933576"/>
      <point x="1023.8053237502079" y="980.0" type="curve" smooth="yes"/>
      <point x="921.2366422407181" y="978.3156768635746"/>
      <point x="818.6133311860718" y="910.2705891092164"/>
    </contour>
  </outline>
</glyph>
<glyph name="n" format="2">
  <advance width="1010"/>
  <unicode hex="006E"/>
  <outline>
    <contour>
      <point x="355.4212979257661" y="767.9111680038776" type="curve" smooth="yes"/>
      <point x="346.43101025307703" y="753.9997815139589"/>
      <point x="385.4848864964956" y="736.6638818754378"/>
      <point x="390.4340070565977" y="748.0959619593244" type="curve" smooth="yes"/>
      <point x="410.7116098380711" y="863.0959619593243" type="line" smooth="yes"/>
      <point x="419.2566007826226" y="917.3683466641376"/>
      <point x="382.14159090193215" y="966.6597012663558"/>
      <point x="319.6893999817063" y="968.0" type="curve" smooth="yes"/>
      <point x="317.6893999817063" y="968.0" type="line" smooth="yes"/>
      <point x="256.05343245198833" y="966.8849519510924"/>
      <point x="214.01960535224597" y="928.2319228986518"/>
      <point x="203.74468263324098" y="874.9040380406757" type="curve" smooth="yes"/>
      <point x="60.21452033655051" y="60.90403804067563" type="line" smooth="yes"/>
      <point x="51.757680834414536" y="5.596908305787316"/>
      <point x="91.40677411956881" y="-42.833395738832294"/>
      <point x="156.23673019291536" y="-44.0" type="curve" smooth="yes"/>
      <point x="158.23673019291536" y="-44.0" type="line" smooth="yes"/>
      <point x="222.34725645268043" y="-43.018470040110294"/>
      <point x="266.55449712350725" y="-5.036045769882557"/>
      <point x="277.18144754138063" y="49.09596195932437" type="curve" smooth="yes"/>
      <point x="336.6036400401333" y="386.09596195932437" type="line" smooth="yes"/>
      <point x="371.9359724293811" y="601.6347544130078"/>
      <point x="577.7845992686644" y="767.0504353555541"/>
      <point x="734.708930605355" y="764.0" type="curve" smooth="yes"/>
      <point x="849.4084097780304" y="767.1536857296167"/>
      <point x="869.1184629325743" y="716.6743537585726"/>
      <point x="849.1943597262062" y="610.9040380406757" type="curve" smooth="yes"/>
      <point x="752.2145203365504" y="60.90403804067563" type="line" smooth="yes"/>
      <point x="743.7576808344146" y="5.596908305787272"/>
      <point x="783.4067741195688" y="-42.833395738832294"/>
      <point x="848.2367301929154" y="-44.0" type="curve" smooth="yes"/>
      <point x="850.2367301929154" y="-44.0" type="line" smooth="yes"/>
      <point x="914.3472564526804" y="-43.018470040110294"/>
      <point x="958.5544971235073" y="-5.036045769882536"/>
      <point x="969.1814475413806" y="49.09596195932438" type="curve" smooth="yes"/>
      <point x="1068.8061916416632" y="614.0959619593243" type="line" smooth="yes"/>
      <point x="1104.1055669008617" y="825.7079798104803"/>
      <point x="993.168514191106" y="977.2637992131521"/>
      <point x="775.8053237502079" y="980.0" type="curve" smooth="yes"/>
      <point x="619.1561732503293" y="978.2892488861376"/>
      <point x="439.15023064281144" y="868.4873893954508"/>
    </contour>
  </outline>
</glyph>
<glyph name="o" format="2">
  <advance width="1096"/>
  <unicode hex="006F"/>
  <outline>
    <contour>
      <point x="115.97960148489577" y="467.90403804067563" type="curve" smooth="yes"/>
      <point x="66.71675292804358" y="171.90428052207824"/>
      <point x="254.05103270502164" y="-52.95224495065102"/>
      <point x="544.1208064244138" y="-56.0" type="curve" smooth="yes"/>
      <point x="832.5229710239228" y="-53.65732637552779"/>
      <point x="1088.9217150604125" y="162.55406156581435"/>
      <point x="1142.9465286897257" y="456.09596195932437" type="curve" smooth="yes"/>
      <point x="1192.209377246578" y="752.0957194779218"/>
      <point x="1004.8750974696001" y="976.952244950651"/>
      <point x="714.8053237502079" y="980.0" type="curve" smooth="yes"/>
      <point x="426.40315915069897" y="977.6573263755278"/>
      <point x="170.0044151142091" y="761.4459384341857"/>
    </contour>
    <contour>
      <point x="921.9796014848957" y="467.90403804067563" type="curve" smooth="yes"/>
      <point x="891.1023489317507" y="281.6853466511423"/>
      <point x="753.6835453773664" y="157.60549813873948"/>
      <point x="570.2171995692665" y="160.0" type="curve" smooth="yes"/>
      <point x="388.4525557410805" y="156.87644141836296"/>
      <point x="301.9969973573975" y="272.0059959497896"/>
      <point x="336.94652868972594" y="456.09596195932437" type="curve" smooth="yes"/>
      <point x="367.82378124287084" y="642.3146533488577"/>
      <point x="505.2425847972552" y="766.3945018612606"/>
      <point x="688.708930605355" y="764.0" type="curve" smooth="yes"/>
      <point x="870.4735744335411" y="767.1235585816371"/>
      <point x="956.9291328172241" y="651.9940040502104"/>
    </contour>
  </outline>
</glyph>
<glyph name="p" format="2">
  <advance width="1033"/>
  <unicode hex="0070"/>
  <outline>
    <contour>
      <point x="349.315441386804" y="830.3250725534938" type="curve" smooth="yes"/>
      <point x="343.6906526384146" y="821.1446753842495"/>
      <point x="380.81032549552503" y="803.5157338002583"/>
      <point x="385.20053249865657" y="809.1559619593244" type="curve" smooth="yes"/>
      <point x="394.7116098380711" y="863.0959619593244" type="line" smooth="yes"/>
      <point x="403.2566007826226" y="917.3683466641376"/>
      <point x="366.14159090193215" y="966.6597012663558"/>
      <point x="303.6893999817063" y="968.0" type="curve" smooth="yes"/>
      <point x="301.6893999817063" y="968.0" type="line" smooth="yes"/>
      <point x="240.05343245198836" y="966.8849519510924"/>
      <point x="198.01960535224597" y="928.2319228986518"/>
      <point x="187.74468263324098" y="874.9040380406757" type="curve" smooth="yes"/>
      <point x="-24.20034817833391" y="-327.09596195932437" type="line" smooth="yes"/>
      <point x="-32.65718768046987" y="-382.40309169421266"/>
      <point x="6.99190560468441" y="-430.8333957388323"/>
      <point x="71.82186167803094" y="-432.0" type="curve" smooth="yes"/>
      <point x="73.82186167803094" y="-432.0" type="line" smooth="yes"/>
      <point x="137.932387937796" y="-431.0184700401103"/>
      <point x="182.13962860862284" y="-393.03604576988255"/>
      <point x="192.76657902649623" y="-338.90403804067563" type="curve" smooth="yes"/>
      <point x="268.23452676971925" y="89.09596195932437" type="line" smooth="yes"/>
      <point x="267.918211704946" y="102.18136206738838"/>
      <point x="237.29287849067947" y="95.64072698614642"/>
      <point x="237.12589366819998" y="87.56786946194077" type="curve" smooth="yes"/>
      <point x="281.62877105444284" y="16.525318790651063"/>
      <point x="388.9869493359468" y="-54.750155033029415"/>
      <point x="531.1208064244138" y="-56.0" type="curve" smooth="yes"/>
      <point x="790.5805036157977" y="-53.63472689780994"/>
      <point x="1022.9479103335282" y="143.51380929534915"/>
      <point x="1079.9465286897257" y="456.09596195932437" type="curve" smooth="yes"/>
      <point x="1133.0421493556844" y="770.7247314576542"/>
      <point x="962.9475167672217" y="976.9192234163396"/>
      <point x="701.8053237502079" y="980.0" type="curve" smooth="yes"/>
      <point x="560.6837954807755" y="979.0157656062798"/>
      <point x="425.9449623556213" y="910.6743186601509"/>
    </contour>
    <contour>
      <point x="858.9796014848957" y="467.90403804067563" type="curve" smooth="yes"/>
      <point x="827.3571624713477" y="280.93161822501753"/>
      <point x="714.2489215777624" y="156.99818075229678"/>
      <point x="547.2171995692665" y="160.0" type="curve" smooth="yes"/>
      <point x="383.7764681353626" y="157.1792597082176"/>
      <point x="295.35209264677053" y="257.0059959497896"/>
      <point x="332.94652868972594" y="456.09596195932437" type="curve" smooth="yes"/>
      <point x="366.4686859534978" y="657.3146533488577"/>
      <point x="500.7044233313519" y="766.1863527042158"/>
      <point x="665.708930605355" y="764.0" type="curve" smooth="yes"/>
      <point x="830.652490252093" y="768.0301697838953"/>
      <point x="893.3340684804084" y="653.4124556021073"/>
    </contour>
  </outline>
</glyph>
<glyph name="q" format="2">
  <advance width="1017"/>
  <unicode hex="0071"/>
  <outline>
    <contour>
      <point x="107.97960148489577" y="467.90403804067563" type="curve" smooth="yes"/>
      <point x="54.88398081893715" y="153.2752685423458"/>
      <point x="224.97861340739996" y="-52.91922341633965"/>
      <point x="486.1208064244138" y="-56.0" type="curve" smooth="yes"/>
      <point x="627.488576347963" y="-54.95421712780546"/>
      <point x="755.0451907441652" y="14.116861898440192"/>
      <point x="798.2387370729748" y="141.72329111822557" type="curve"/>
      <point x="714.7996518216661" y="-327.09596195932437" type="line" smooth="yes"/>
      <point x="706.3428123195301" y="-382.40309169421266"/>
      <point x="745.9919056046843" y="-430.8333957388323"/>
      <point x="810.8218616780309" y="-432.0" type="curve" smooth="yes"/>
      <point x="812.8218616780309" y="-432.0" type="line" smooth="yes"/>
      <point x="876.932387937796" y="-431.0184700401103"/>
      <point x="921.1396286086228" y="-393.0360457698826"/>
      <point x="931.7665790264963" y="-338.90403804067563" type="curve" smooth="yes"/>
      <point x="1143.7116098380711" y="863.0959619593243" type="line" smooth="yes"/>
      <point x="1152.2566007826226" y="917.3683466641377"/>
      <point x="1115.141590901932" y="966.6597012663558"/>
      <point x="1052.6893999817062" y="968.0" type="curve" smooth="yes"/>
      <point x="1050.6893999817062" y="968.0" type="line" smooth="yes"/>
      <point x="989.0534324519883" y="966.8849519510924"/>
      <point x="947.019605352246" y="928.2319228986519"/>
      <point x="936.7446826332409" y="874.9040380406757" type="curve" smooth="yes"/>
      <point x="959.7241644364607" y="809.4851567944252" type="line"/>
      <point x="915.1645363469765" y="906.6077562946696"/>
      <point x="798.648248428407" y="978.8299053171905"/>
      <point x="656.8053237502079" y="980.0" type="curve" smooth="yes"/>
      <point x="397.345626558824" y="977.63472689781"/>
      <point x="164.97821984109342" y="780.4861907046509"/>
    </contour>
    <contour>
      <point x="854.9796014848957" y="467.90403804067563" type="curve" smooth="yes"/>
      <point x="821.4574442211238" y="266.6853466511423"/>
      <point x="687.2217068432697" y="157.81364729578416"/>
      <point x="522.2171995692665" y="160.0" type="curve" smooth="yes"/>
      <point x="357.27363992252856" y="155.96983021610467"/>
      <point x="294.5920616942133" y="270.5875443978926"/>
      <point x="328.94652868972594" y="456.09596195932437" type="curve" smooth="yes"/>
      <point x="360.5689677032739" y="643.0683817749825"/>
      <point x="473.6772085968591" y="767.0018192477032"/>
      <point x="640.708930605355" y="764.0" type="curve" smooth="yes"/>
      <point x="804.149662039259" y="766.8207402917824"/>
      <point x="892.574037527851" y="666.9940040502104"/>
    </contour>
  </outline>
</glyph>
